STARTFONT 2.1
COMMENT
COMMENT Converted from OpenType font "BeVietnam-Thin.ttf" by "otf2bdf 3.0".
COMMENT
FONT -FreeType-Be Vietnam Thin-Medium-R-Normal--77-560-100-100-P-338-ISO10646-1
SIZE 56 100 100
FONTBOUNDINGBOX 120 101 -26 -19
STARTPROPERTIES 19
FOUNDRY "FreeType"
FAMILY_NAME "Be Vietnam Thin"
WEIGHT_NAME "Medium"
SLANT "R"
SETWIDTH_NAME "Normal"
ADD_STYLE_NAME ""
PIXEL_SIZE 77
POINT_SIZE 560
RESOLUTION_X 100
RESOLUTION_Y 100
SPACING "P"
AVERAGE_WIDTH 338
CHARSET_REGISTRY "ISO10646"
CHARSET_ENCODING "1"
FONT_ASCENT 93
FONT_DESCENT 20
COPYRIGHT "Copyright 2019 The Bevietnam Project Authors (https://github.com/bettergui/beVietnam)"
_OTF_FONTFILE "BeVietnam-Thin.ttf"
_OTF_PSNAME "BeVietnam-Thin"
ENDPROPERTIES
CHARS 445
STARTCHAR 000D
ENCODING 13
SWIDTH 591 0
DWIDTH 46 0
BBX 0 0 0 0
BITMAP
ENDCHAR
STARTCHAR 0020
ENCODING 32
SWIDTH 218 0
DWIDTH 17 0
BBX 0 0 0 0
BITMAP
ENDCHAR
STARTCHAR 0021
ENCODING 33
SWIDTH 205 0
DWIDTH 16 0
BBX 6 61 5 -1
BITMAP
78
78
78
78
78
78
78
78
78
78
78
78
78
78
78
38
38
38
38
38
38
38
38
38
38
38
38
38
38
38
38
38
38
30
30
30
30
30
30
30
30
30
30
30
30
30
30
30
10
00
00
00
00
00
00
38
7C
FC
7C
78
10
ENDCHAR
STARTCHAR 0022
ENCODING 34
SWIDTH 488 0
DWIDTH 38 0
BBX 23 16 9 42
BITMAP
04000C
1C003C
380070
700060
6000E0
E000C0
C000C0
C001C0
C001C0
E001C0
F801F8
FE01FC
FE01FE
FE00FC
FE00FC
7C0030
ENDCHAR
STARTCHAR 0023
ENCODING 35
SWIDTH 861 0
DWIDTH 67 0
BBX 53 54 7 0
BITMAP
00000700007000
00000700007000
00000600007000
00000E00006000
00000E0000E000
00000E0000E000
00000E0000E000
00001C0000C000
00001C0001C000
00001C0001C000
00001C0001C000
0000180001C000
00003800018000
00003800038000
00003800038000
00003800038000
3FFFFFFFFFFFF8
3FFFFFFFFFFFF8
3FFFFFFFFFFFF8
00007000070000
00007000070000
0000E000060000
0000E0000E0000
0000E0000E0000
0000E0000E0000
0000C0000E0000
0001C0000C0000
0001C0001C0000
0001C0001C0000
0001C0001C0000
000380001C0000
00038000380000
00038000380000
00038000380000
00030000380000
FFFFFFFFFFFFE0
FFFFFFFFFFFFE0
00070000700000
00070000700000
00060000700000
000E0000600000
000E0000E00000
000E0000E00000
000E0000E00000
001C0000E00000
001C0001C00000
001C0001C00000
001C0001C00000
00180001C00000
00380001800000
00380003800000
00380003800000
00380003800000
00300003800000
ENDCHAR
STARTCHAR 0024
ENCODING 36
SWIDTH 540 0
DWIDTH 42 0
BBX 34 63 4 -5
BITMAP
0000C00000
0000C00000
0000C00000
0000C00000
000FFC0000
007FFF8000
00FFDFC000
03E0C1F000
07C0C07800
0F00C03C00
0E00C01C00
1C00C00E00
1C00C00E00
3800C00700
3800C00700
3000C00380
7000C00380
7000C00380
7000C00180
7000C001C0
7000C00000
7000C00000
3800C00000
3800C00000
3C00C00000
1C00C00000
1E00C00000
0F80C00000
03E0C00000
01FFC00000
003FFE0000
0003FFC000
0000C3F000
0000C07C00
0000C01E00
0000C00700
0000C00380
0000C00380
0000C001C0
0000C001C0
0000C000C0
E000C000C0
E000C000C0
E000C000C0
6000C000C0
7000C000C0
7000C000C0
3800C001C0
3800C001C0
3C00C00380
1C00C00380
0E00C00700
0700C00E00
0780C01E00
01E0C07800
00FCC3F000
007FFFE000
000FFF0000
0000E00000
0000C00000
0000C00000
0000C00000
0000C00000
ENDCHAR
STARTCHAR 0025
ENCODING 37
SWIDTH 848 0
DWIDTH 66 0
BBX 62 56 2 -1
BITMAP
03FE000000000000
0FFF8000001C0000
1C03C000001C0000
3800E00000380000
3000E00000380000
7000700000700000
7000700000700000
E000700000E00000
E000380000E00000
E000380001C00000
E000380001C00000
E000380003800000
E000380003800000
E000380007000000
E000700007000000
700070000E000000
700070000E000000
3000E0001C000000
3800E0001C000000
1C03C00038000000
0FFF800030000000
03FE000070000000
00000000E0000000
00000000E0000000
00000001C0000000
00000001C0000000
0000000380000000
0000000380000000
0000000700000000
0000000700000000
0000000E00000000
0000000E00000000
0000001C00000000
0000001C00003E00
000000380001FFC0
00000038000781E0
00000070000E0070
00000070000E0038
000000E0001C0038
000000E0001C001C
000001C00038001C
000001C00038001C
000003800038001C
000003800038001C
000007000038000C
000007000038001C
00000E000038001C
00000E000038001C
00001C000038001C
00001C00001C001C
00003800001C0038
00003800000E0038
00007000000E0070
00006000000781E0
0000E0000001FFC0
0000000000007E00
ENDCHAR
STARTCHAR 0026
ENCODING 38
SWIDTH 591 0
DWIDTH 46 0
BBX 44 55 6 0
BITMAP
0000FFE00000
0003FFF80000
0007E0FC0000
000F001E0000
001C000F0000
003800078000
007800038000
00700001C000
00700001C000
00E00000C000
00E00000E000
00E00000E000
00E00000E000
00E00000E000
00600000E000
007000000000
007000000000
007000000000
003800000000
003800000000
001C00000000
000E00000000
000F00000000
000700000000
000380000000
0001C0000000
0007E0000000
003FF0000000
00FE38000000
03F01C000F00
07801E000E00
0E000F001C00
1C0007001C00
380003803800
380001C03800
700000E07000
60000070F000
E0000038E000
E000003DC000
C000001FC000
C000000F8000
C00000078000
C00000078000
C000000FC000
E000000EE000
E000001C7000
E00000383800
700000783C00
700000F01C00
380001E00E00
1C0003C00700
1F000F800380
07E07F0001C0
03FFFC0000E0
00FFF0000070
ENDCHAR
STARTCHAR 0027
ENCODING 39
SWIDTH 295 0
DWIDTH 23 0
BBX 7 16 7 44
BITMAP
7C
FE
FE
FE
FE
1E
06
06
06
06
0E
0C
1C
38
70
40
ENDCHAR
STARTCHAR 0028
ENCODING 40
SWIDTH 424 0
DWIDTH 33 0
BBX 19 76 9 -16
BITMAP
000040
0001E0
000380
000780
000F00
001E00
003C00
007800
007000
00E000
01E000
01C000
038000
038000
070000
070000
0F0000
0E0000
1E0000
1C0000
1C0000
3C0000
380000
380000
780000
780000
700000
700000
700000
F00000
F00000
F00000
F00000
F00000
F00000
F00000
F00000
F00000
F00000
F00000
F00000
F00000
F00000
F00000
F00000
F00000
700000
700000
700000
780000
780000
780000
380000
380000
3C0000
1C0000
1C0000
1E0000
0E0000
0F0000
070000
078000
038000
03C000
01C000
00E000
00E000
007000
003800
001C00
000E00
000700
000380
0001C0
0000E0
000040
ENDCHAR
STARTCHAR 0029
ENCODING 41
SWIDTH 424 0
DWIDTH 33 0
BBX 18 76 6 -16
BITMAP
C00000
E00000
700000
380000
1C0000
0E0000
070000
078000
03C000
01C000
00E000
00F000
007000
007800
003800
003C00
001C00
001E00
000E00
000E00
000F00
000700
000700
000780
000780
000380
000380
000380
0003C0
0003C0
0003C0
0003C0
0003C0
0001C0
0001C0
0001C0
0001C0
0001C0
0001C0
0001C0
0001C0
0001C0
0001C0
0003C0
0003C0
0003C0
0003C0
0003C0
000380
000380
000380
000780
000780
000700
000F00
000F00
000E00
001E00
001C00
001C00
003800
003800
007000
007000
00E000
00E000
01C000
038000
070000
0E0000
1C0000
1C0000
300000
600000
C00000
800000
ENDCHAR
STARTCHAR 002A
ENCODING 42
SWIDTH 488 0
DWIDTH 38 0
BBX 26 28 6 32
BITMAP
001F0000
001E0000
001E0000
000E0000
000E0000
200E0180
380E0380
7C0E07C0
7E0E1FC0
7F8C3FC0
1FC47E00
03E5F800
00FFC000
001F0000
003F8000
00FFE000
07E4FC00
1FCC7F00
FF0C3FC0
7E0E0FC0
7C0E0780
300E0380
200E0000
000E0000
000E0000
001E0000
001E0000
001F0000
ENDCHAR
STARTCHAR 002B
ENCODING 43
SWIDTH 565 0
DWIDTH 44 0
BBX 28 29 8 10
BITMAP
00060000
00060000
00060000
00060000
00060000
00060000
00060000
00060000
00060000
00060000
00060000
00060000
00060000
FFFFFFF0
FFFFFFF0
FFFFFFF0
00060000
00060000
00060000
00060000
00060000
00060000
00060000
00060000
00060000
00060000
00060000
00060000
00060000
ENDCHAR
STARTCHAR 002C
ENCODING 44
SWIDTH 244 0
DWIDTH 19 0
BBX 7 16 6 -11
BITMAP
10
7E
FE
FE
FE
7E
0E
06
06
06
06
0E
0C
18
70
60
ENDCHAR
STARTCHAR 002D
ENCODING 45
SWIDTH 604 0
DWIDTH 47 0
BBX 29 3 9 23
BITMAP
FFFFFFF8
FFFFFFF8
FFFFFFF8
ENDCHAR
STARTCHAR 002E
ENCODING 46
SWIDTH 218 0
DWIDTH 17 0
BBX 6 5 6 0
BITMAP
78
FC
FC
FC
78
ENDCHAR
STARTCHAR 002F
ENCODING 47
SWIDTH 475 0
DWIDTH 37 0
BBX 30 73 6 -9
BITMAP
0000001C
00000038
00000038
00000038
00000070
00000070
00000060
000000E0
000000E0
000001C0
000001C0
000001C0
00000380
00000380
00000380
00000700
00000700
00000E00
00000E00
00000E00
00001C00
00001C00
00001C00
00003800
00003800
00003000
00007000
00007000
0000E000
0000E000
0000E000
0001C000
0001C000
0001C000
00038000
00038000
00070000
00070000
00070000
000E0000
000E0000
000E0000
001C0000
001C0000
00180000
00380000
00380000
00700000
00700000
00700000
00E00000
00E00000
00C00000
01C00000
01C00000
03800000
03800000
03800000
07000000
07000000
07000000
0E000000
0E000000
0C000000
1C000000
1C000000
38000000
38000000
38000000
70000000
70000000
60000000
E0000000
ENDCHAR
STARTCHAR 0030
ENCODING 48
SWIDTH 578 0
DWIDTH 45 0
BBX 36 57 5 -1
BITMAP
0000F00000
001FFF0000
007FFFC000
00FC03F000
01E0007800
0380003C00
0700000E00
0E00000700
1C00000700
1C00000380
3800000180
38000001C0
70000000C0
70000000E0
70000000E0
60000000E0
E000000060
E000000060
E000000070
E000000070
C000000070
C000000070
C000000070
C000000070
C000000070
C000000070
C000000070
C000000070
C000000070
C000000070
C000000070
C000000070
C000000070
C000000070
C000000070
C000000070
C000000070
E000000070
E000000070
E000000060
E000000060
60000000E0
70000000E0
70000000E0
30000000C0
38000001C0
3800000180
1C00000380
1C00000700
0E00000700
0700000E00
0380003C00
01E0007800
00FC03F000
007FFFC000
000FFF0000
0000600000
ENDCHAR
STARTCHAR 0031
ENCODING 49
SWIDTH 462 0
DWIDTH 36 0
BBX 23 54 9 0
BITMAP
007800
00F800
01F800
03B800
073800
0E3800
1C3800
383800
703800
E03800
C03800
803800
003800
003800
003800
003800
003800
003800
003800
003800
003800
003800
003800
003800
003800
003800
003800
003800
003800
003800
003800
003800
003800
003800
003800
003800
003800
003800
003800
003800
003800
003800
003800
003800
003800
003800
003800
003800
003800
003800
003800
FFFFFE
FFFFFE
FFFFFE
ENDCHAR
STARTCHAR 0032
ENCODING 50
SWIDTH 565 0
DWIDTH 44 0
BBX 35 56 6 0
BITMAP
0000700000
001FFF8000
00FFFFE000
01F803F800
03E0007C00
0780001E00
0700000E00
0E00000700
1C00000780
1C00000380
1800000380
38000001C0
38000001C0
30000001C0
30000001C0
30000001C0
70000001C0
00000001C0
00000001C0
00000001C0
00000001C0
0000000180
0000000380
0000000380
0000000700
0000000700
0000000E00
0000001E00
0000001C00
0000003800
0000007800
000000F000
000001E000
000003C000
0000078000
00000F0000
00001E0000
00003C0000
0000780000
0000F00000
0001E00000
0003C00000
000F000000
001E000000
003C000000
0078000000
00F0000000
01E0000000
03C0000000
0780000000
0E00000000
3C00000000
7800000000
FFFFFFFFE0
FFFFFFFFE0
FFFFFFFFE0
ENDCHAR
STARTCHAR 0033
ENCODING 51
SWIDTH 578 0
DWIDTH 45 0
BBX 33 57 7 -1
BITMAP
0001C00000
007FFF0000
01FFFFC000
03F007E000
078000F800
0F00007C00
1E00001C00
1C00000E00
3800000E00
3000000700
7000000700
7000000300
0000000380
0000000380
0000000380
0000000380
0000000380
0000000380
0000000300
0000000300
0000000700
0000000600
0000000E00
0000001C00
0000003800
000000F000
00000FE000
001FFF8000
001FFF0000
00003FE000
000001F000
0000007C00
0000001C00
0000000E00
0000000700
0000000700
0000000380
0000000380
0000000180
0000000180
0000000180
0000000180
0000000180
0000000180
0000000180
E000000380
E000000380
6000000300
7000000700
3800000E00
3C00001E00
1E00003C00
0F8000F800
03F003F000
01FFFFC000
003FFF0000
0000E00000
ENDCHAR
STARTCHAR 0034
ENCODING 52
SWIDTH 578 0
DWIDTH 45 0
BBX 38 54 4 0
BITMAP
0000007800
000000F800
000001F800
000001F800
000003B800
000007B800
0000073800
00000E3800
00001C3800
00001C3800
0000383800
0000703800
0000703800
0000E03800
0001C03800
0003C03800
0003803800
0007003800
000F003800
000E003800
001C003800
0038003800
0038003800
0070003800
00E0003800
01E0003800
01C0003800
0380003800
0780003800
0700003800
0E00003800
1E00003800
1C00003800
3800003800
7000003800
7000003800
E000003800
FFFFFFFFFC
FFFFFFFFFC
FFFFFFFFFC
0000003800
0000003800
0000003800
0000003800
0000003800
0000003800
0000003800
0000003800
0000003800
0000003800
0000003800
0000003800
0000003800
0000003800
ENDCHAR
STARTCHAR 0035
ENCODING 53
SWIDTH 604 0
DWIDTH 47 0
BBX 34 54 8 0
BITMAP
3FFFFFFC00
3FFFFFFC00
3800000000
3000000000
3000000000
3000000000
3000000000
3000000000
3000000000
3000000000
3000000000
7000000000
7000000000
7000000000
7000000000
7000000000
7000000000
700FFC0000
707FFF8000
71FFFFE000
63E003F000
6780007800
6F00003C00
6E00000E00
7C00000700
7800000700
7000000380
7000000380
0000000180
00000001C0
00000001C0
00000000C0
00000000C0
00000000C0
00000000C0
00000000C0
00000000C0
00000000C0
00000000C0
00000001C0
00000001C0
00000001C0
E000000180
E000000380
6000000300
7000000700
3800000E00
3C00001E00
1E00003C00
0F80007800
07E001F000
01FFFFC000
007FFF0000
000FF80000
ENDCHAR
STARTCHAR 0036
ENCODING 54
SWIDTH 578 0
DWIDTH 45 0
BBX 34 55 6 -1
BITMAP
0000780000
0000700000
0000E00000
0001E00000
0001C00000
0003800000
0007800000
000F000000
000E000000
001E000000
003C000000
0038000000
0070000000
00F0000000
00E0000000
01C0000000
03C0000000
0380000000
0700000000
0F00000000
0E0FF80000
1C7FFF0000
1CFFFFC000
3BF003F000
378000F800
3F00003C00
7E00001E00
7C00000F00
7800000700
F000000780
F000000380
E000000180
E0000001C0
E0000001C0
C0000001C0
C0000000C0
C0000000C0
C0000000C0
C0000000C0
C0000000C0
E0000001C0
E0000001C0
E0000001C0
6000000180
7000000380
7000000700
3800000700
1C00000E00
1E00001E00
0F00007C00
07C000F800
01F80FE000
00FFFFC000
001FFE0000
0000600000
ENDCHAR
STARTCHAR 0037
ENCODING 55
SWIDTH 488 0
DWIDTH 38 0
BBX 32 54 3 0
BITMAP
FFFFFFFF
FFFFFFFF
0000000F
0000000E
0000000E
0000001C
0000001C
00000038
00000038
00000038
00000070
00000070
000000E0
000000E0
000000E0
000001C0
000001C0
00000380
00000380
00000700
00000700
00000700
00000E00
00000E00
00001C00
00001C00
00001C00
00003800
00003800
00007000
00007000
00006000
0000E000
0000E000
0001C000
0001C000
00038000
00038000
00038000
00070000
00070000
000E0000
000E0000
000C0000
001C0000
001C0000
00380000
00380000
00300000
00700000
00700000
00E00000
00E00000
00C00000
ENDCHAR
STARTCHAR 0038
ENCODING 56
SWIDTH 604 0
DWIDTH 47 0
BBX 38 57 5 -1
BITMAP
0000300000
000FFFC000
003FFFF000
007C00F800
01E0003E00
03C0000F00
0780000700
0700000380
0E000001C0
0C000001C0
1C000000C0
1C000000E0
18000000E0
18000000E0
18000000E0
18000000E0
18000000E0
1C000000E0
1C000000E0
1C000001C0
0E000001C0
0F00000380
0700000780
03C0000F00
01E0001E00
00FC00FC00
003FFFF000
007FFFF800
01FC00FE00
03E0001F00
0780000780
0E000001C0
1C000000E0
3800000060
3000000070
7000000030
6000000038
6000000018
E000000018
E00000001C
E00000001C
E00000001C
E00000001C
E00000001C
E000000018
6000000038
7000000038
7000000070
3800000070
1C000000E0
1E000003C0
0F80000780
07E0001F00
01FE03FE00
007FFFF800
001FFFE000
0000380000
ENDCHAR
STARTCHAR 0039
ENCODING 57
SWIDTH 578 0
DWIDTH 45 0
BBX 34 56 6 0
BITMAP
0001A00000
003FFE0000
00FFFF8000
03F807E000
07C000F000
0F00007800
1E00001C00
1C00000E00
3800000F00
7000000700
7000000380
E000000380
E000000180
C0000001C0
C0000001C0
C0000001C0
C0000001C0
C0000001C0
C0000001C0
C0000001C0
C0000001C0
C0000001C0
E0000001C0
E0000001C0
60000003C0
70000003C0
7800000780
3800000F80
1C00000F80
1E00003F00
0F80007B00
07E001F700
01FC0FEE00
00FFFF8E00
001FFE1C00
0000003C00
0000003800
0000007000
000000F000
000000E000
000001E000
000003C000
0000038000
0000078000
00000F0000
00000E0000
00001E0000
00003C0000
0000380000
0000700000
0000F00000
0000E00000
0001C00000
0003C00000
0003800000
0007000000
ENDCHAR
STARTCHAR 003A
ENCODING 58
SWIDTH 244 0
DWIDTH 19 0
BBX 6 40 5 0
BITMAP
78
FC
FC
FC
78
00
00
00
00
00
00
00
00
00
00
00
00
00
00
00
00
00
00
00
00
00
00
00
00
00
00
00
00
00
00
78
FC
FC
FC
78
ENDCHAR
STARTCHAR 003B
ENCODING 59
SWIDTH 270 0
DWIDTH 21 0
BBX 7 50 6 -11
BITMAP
78
FC
FC
FC
78
00
00
00
00
00
00
00
00
00
00
00
00
00
00
00
00
00
00
00
00
00
00
00
00
00
00
00
00
00
30
7E
FE
FE
FE
7E
0E
06
06
06
0E
0C
1C
38
70
60
ENDCHAR
STARTCHAR 003C
ENCODING 60
SWIDTH 552 0
DWIDTH 43 0
BBX 27 31 8 10
BITMAP
00000060
000001E0
000007C0
00001F80
00003E00
0000F800
0003E000
000F8000
003E0000
007C0000
01F00000
07C00000
1F000000
7C000000
F8000000
E0000000
F8000000
3E000000
0F800000
03E00000
00F80000
007C0000
001F0000
0007C000
0001F000
0000FC00
00003F00
00000F80
000003E0
000000E0
00000060
ENDCHAR
STARTCHAR 003D
ENCODING 61
SWIDTH 707 0
DWIDTH 55 0
BBX 37 20 9 15
BITMAP
FFFFFFFFF8
FFFFFFFFF8
FFFFFFFFF8
0000000000
0000000000
0000000000
0000000000
0000000000
0000000000
0000000000
0000000000
0000000000
0000000000
0000000000
0000000000
0000000000
0000000000
FFFFFFFFF8
FFFFFFFFF8
FFFFFFFFF8
ENDCHAR
STARTCHAR 003E
ENCODING 62
SWIDTH 552 0
DWIDTH 43 0
BBX 27 31 8 10
BITMAP
E0000000
F0000000
7C000000
1F000000
07C00000
03F00000
00F80000
003E0000
000F8000
0003E000
0001F800
00007C00
00001F00
000007C0
000001E0
000000E0
000003E0
00000F80
00001E00
00007C00
0001F000
0007C000
001F0000
007C0000
01F80000
03E00000
0F800000
3E000000
F8000000
F0000000
C0000000
ENDCHAR
STARTCHAR 003F
ENCODING 63
SWIDTH 578 0
DWIDTH 45 0
BBX 35 57 5 -1
BITMAP
0003F80000
003FFF8000
00FFFFE000
01F801F800
03C0003C00
0F00001E00
0E00000700
1C00000380
3800000380
38000001C0
70000001C0
70000001C0
70000000C0
60000000C0
60000000E0
E0000000E0
E0000000E0
00000000C0
00000000C0
00000001C0
00000001C0
0000000380
0000000380
0000000700
0000000E00
0000001E00
0000003C00
0000007800
000000F000
000001E000
000003C000
0000078000
00000F0000
00001E0000
00003C0000
0000380000
0000700000
0000600000
0000E00000
0000E00000
0000C00000
0001C00000
0001C00000
0000000000
0000000000
0000000000
0000000000
0000000000
0000000000
0000000000
0000000000
0001C00000
0003E00000
0003E00000
0003E00000
0003E00000
0000800000
ENDCHAR
STARTCHAR 0040
ENCODING 64
SWIDTH 1002 0
DWIDTH 78 0
BBX 68 68 5 -13
BITMAP
0000003FFFE0000000
000001FFFFFE000000
00000FFF8FFF800000
00003F80001FE00000
0000FC000003F80000
0003F00000007E0000
0007C00000001F0000
000F000000000FC000
001E0000000003E000
003C0000000001F000
00780000000000F800
00F000000000007C00
01E000000000003C00
03C000000000001E00
038000000000000F00
070000000000000700
0F0000000000000780
0E0000020000000380
1E00003FF0600001C0
1C0000FFFC600001C0
1C0001E03E600001E0
380003800F600000E0
3800070007600000E0
38000E0003E00000E0
70000C0001E0000070
70001C0001E0000070
7000180000E0000070
7000380000E0000070
7000380000E0000070
600038000060000070
600030000060000070
E00030000060000070
E00030000060000070
E00030000060000070
E00030000060000070
E00030000060000070
600030000070000070
600038000070000060
7000380000F00000E0
7000380000F00000E0
7000180000F00000C0
70001C0001F80001C0
70000C000198000380
38000E00039C000380
38000700070E000F00
380007800E0F001E00
380003E03E07C0FC00
1C0001FFFC03FFF000
1C00007FF000FFC000
0E00000FC000000000
0E0000000000000000
070000000000000000
078000000000000000
038000000000000000
01C000000000000000
01E000000000000000
00F000000000000000
007800000000000000
003C00000000000000
001F00000000000000
000F80000000000000
0003E0000000000000
0001F8000000000000
00007F000000000000
00001FF00000000000
000007FFFFFFFFF000
000000FFFFFFFFF000
00000003FFFFFFF000
ENDCHAR
STARTCHAR 0041
ENCODING 65
SWIDTH 681 0
DWIDTH 53 0
BBX 45 54 4 0
BITMAP
000007000000
00000F800000
00000F800000
00000D800000
00001DC00000
00001DC00000
000038E00000
000038E00000
000030600000
000070700000
000070700000
0000E0380000
0000E0380000
0000C0180000
0001C01C0000
0001C01C0000
0003800E0000
0003800E0000
000300060000
000700070000
000700070000
000600038000
000E00038000
000E00018000
001C0001C000
001C0001C000
00180000E000
00380000E000
003800006000
007000007000
007000007000
006000003800
00E000003800
00FFFFFFF800
01FFFFFFFC00
01FFFFFFFC00
018000000E00
038000000E00
038000000600
030000000700
070000000700
070000000380
0E0000000380
0E0000000180
0C00000001C0
1C00000001C0
1C00000000C0
3800000000E0
380000000060
300000000070
700000000070
700000000030
E00000000038
E00000000018
ENDCHAR
STARTCHAR 0042
ENCODING 66
SWIDTH 617 0
DWIDTH 48 0
BBX 38 54 7 0
BITMAP
FFFFFFE000
FFFFFFFC00
E00001FE00
E000001F00
E000000780
E0000003C0
E0000001C0
E0000000E0
E0000000E0
E000000070
E000000070
E000000070
E000000070
E000000070
E000000070
E000000070
E000000070
E000000060
E0000000E0
E0000001E0
E0000001C0
E000000380
E000000F00
E000001E00
E00001F800
FFFFFFE000
FFFFFFF800
E00007FE00
E000000F80
E0000003C0
E0000000E0
E000000070
E000000038
E000000038
E000000018
E00000001C
E00000001C
E00000001C
E00000001C
E00000001C
E00000001C
E00000001C
E00000001C
E000000018
E000000038
E000000038
E000000070
E0000000E0
E0000001E0
E0000007C0
E000001F80
FFFFFFFE00
FFFFFFF800
FFFFFFC000
ENDCHAR
STARTCHAR 0043
ENCODING 67
SWIDTH 720 0
DWIDTH 56 0
BBX 47 56 5 0
BITMAP
000001C00000
00007FFF0000
0003FFFFE000
000FF007F800
003F0000FC00
007C00001F00
00F000000F80
01E0000003C0
03C0000001C0
0780000000E0
070000000070
0E0000000078
0E0000000038
1C000000003C
1C000000001C
38000000001C
38000000000E
38000000000E
700000000006
700000000000
700000000000
700000000000
700000000000
E00000000000
E00000000000
E00000000000
E00000000000
E00000000000
E00000000000
E00000000000
E00000000000
E00000000000
E00000000000
E00000000000
700000000000
700000000000
700000000000
700000000000
700000000000
380000000000
38000000000E
3C000000001C
1C000000001C
1C0000000038
0E0000000038
0F0000000070
0700000000F0
0380000001E0
03C0000003C0
01E000000780
00F800000F00
007C00003E00
001F8000FC00
000FFE1FF000
0003FFFFC000
00007FFE0000
ENDCHAR
STARTCHAR 0044
ENCODING 68
SWIDTH 681 0
DWIDTH 53 0
BBX 43 54 7 0
BITMAP
FFFFFFC00000
FFFFFFF80000
E00001FE0000
E000001F8000
E0000007C000
E0000001E000
E0000000F000
E00000007800
E00000003C00
E00000001E00
E00000000E00
E00000000F00
E00000000700
E00000000380
E00000000380
E00000000380
E000000001C0
E000000001C0
E000000001C0
E000000000C0
E000000000E0
E000000000E0
E000000000E0
E000000000E0
E000000000E0
E000000000E0
E000000000E0
E000000000E0
E000000000E0
E000000000E0
E000000000E0
E000000000E0
E000000000E0
E000000000E0
E000000000C0
E000000001C0
E000000001C0
E000000001C0
E00000000380
E00000000380
E00000000700
E00000000700
E00000000E00
E00000001E00
E00000001C00
E00000003C00
E00000007800
E0000001F000
E0000003E000
E000000F8000
E000007F0000
FFFFFFFC0000
FFFFFFF00000
FFFFFF000000
ENDCHAR
STARTCHAR 0045
ENCODING 69
SWIDTH 565 0
DWIDTH 44 0
BBX 31 54 7 0
BITMAP
FFFFFFFE
FFFFFFFE
E0000000
E0000000
E0000000
E0000000
E0000000
E0000000
E0000000
E0000000
E0000000
E0000000
E0000000
E0000000
E0000000
E0000000
E0000000
E0000000
E0000000
E0000000
E0000000
E0000000
E0000000
E0000000
E0000000
FFFFFFF8
FFFFFFF8
E0000000
E0000000
E0000000
E0000000
E0000000
E0000000
E0000000
E0000000
E0000000
E0000000
E0000000
E0000000
E0000000
E0000000
E0000000
E0000000
E0000000
E0000000
E0000000
E0000000
E0000000
E0000000
E0000000
E0000000
FFFFFFFE
FFFFFFFE
FFFFFFFE
ENDCHAR
STARTCHAR 0046
ENCODING 70
SWIDTH 514 0
DWIDTH 40 0
BBX 30 54 7 0
BITMAP
FFFFFFFC
FFFFFFFC
E0000000
E0000000
E0000000
E0000000
E0000000
E0000000
E0000000
E0000000
E0000000
E0000000
E0000000
E0000000
E0000000
E0000000
E0000000
E0000000
E0000000
E0000000
E0000000
E0000000
E0000000
E0000000
E0000000
FFFFFFE0
FFFFFFE0
E0000000
E0000000
E0000000
E0000000
E0000000
E0000000
E0000000
E0000000
E0000000
E0000000
E0000000
E0000000
E0000000
E0000000
E0000000
E0000000
E0000000
E0000000
E0000000
E0000000
E0000000
E0000000
E0000000
E0000000
E0000000
E0000000
E0000000
ENDCHAR
STARTCHAR 0047
ENCODING 71
SWIDTH 707 0
DWIDTH 55 0
BBX 45 56 5 0
BITMAP
000003800000
0000FFFE0000
0007FFFFC000
001FE00FF000
003F0000F800
007800003C00
00F000000E00
01E000000700
038000000380
0700000001C0
0F00000000E0
0E00000000E0
1C0000000070
1C0000000070
380000000038
380000000038
300000000038
700000000000
700000000000
700000000000
600000000000
E00000000000
E00000000000
E00000000000
E00000000000
E00000000000
E00000000000
E00000000000
E00000000000
E00000FFFFF8
E00000FFFFF8
E00000000018
E00000000018
E00000000018
E00000000018
E00000000018
600000000018
700000000018
700000000018
700000000038
380000000038
380000000038
180000000078
1C0000000078
1E00000000F8
0E00000000F8
0700000001D8
078000000398
03C000000718
01E000000F18
00F000001E18
007C00007C18
003F0001F018
000FF83FE018
0003FFFF8018
00007FFE0018
ENDCHAR
STARTCHAR 0048
ENCODING 72
SWIDTH 668 0
DWIDTH 52 0
BBX 39 54 7 0
BITMAP
E00000000E
E00000000E
E00000000E
E00000000E
E00000000E
E00000000E
E00000000E
E00000000E
E00000000E
E00000000E
E00000000E
E00000000E
E00000000E
E00000000E
E00000000E
E00000000E
E00000000E
E00000000E
E00000000E
E00000000E
E00000000E
E00000000E
E00000000E
E00000000E
E00000000E
FFFFFFFFFE
FFFFFFFFFE
FFFFFFFFFE
E00000000E
E00000000E
E00000000E
E00000000E
E00000000E
E00000000E
E00000000E
E00000000E
E00000000E
E00000000E
E00000000E
E00000000E
E00000000E
E00000000E
E00000000E
E00000000E
E00000000E
E00000000E
E00000000E
E00000000E
E00000000E
E00000000E
E00000000E
E00000000E
E00000000E
E00000000E
ENDCHAR
STARTCHAR 0049
ENCODING 73
SWIDTH 218 0
DWIDTH 17 0
BBX 3 54 7 0
BITMAP
E0
E0
E0
E0
E0
E0
E0
E0
E0
E0
E0
E0
E0
E0
E0
E0
E0
E0
E0
E0
E0
E0
E0
E0
E0
E0
E0
E0
E0
E0
E0
E0
E0
E0
E0
E0
E0
E0
E0
E0
E0
E0
E0
E0
E0
E0
E0
E0
E0
E0
E0
E0
E0
E0
ENDCHAR
STARTCHAR 004A
ENCODING 74
SWIDTH 321 0
DWIDTH 25 0
BBX 13 54 4 0
BITMAP
0018
0018
0018
0018
0018
0018
0018
0018
0018
0018
0018
0018
0018
0018
0018
0018
0018
0018
0018
0018
0018
0018
0018
0018
0018
0018
0018
0018
0018
0018
0018
0018
0018
0018
0018
0018
0018
0018
0018
0018
0018
0018
0018
0018
0018
0018
0018
0018
0038
0038
0070
01F0
FFE0
FF80
ENDCHAR
STARTCHAR 004B
ENCODING 75
SWIDTH 591 0
DWIDTH 46 0
BBX 34 54 7 0
BITMAP
E000003E00
E000007800
E00000F000
E00000E000
E00001C000
E00003C000
E000078000
E0000F0000
E0001E0000
E0003C0000
E000780000
E000F00000
E001E00000
E003C00000
E007800000
E00F000000
E00E000000
E01C000000
E038000000
E070000000
E0E0000000
E1C0000000
E380000000
E780000000
EF80000000
FFC0000000
FDE0000000
F8F0000000
F078000000
E03C000000
E01C000000
E00E000000
E00F000000
E007800000
E003C00000
E001E00000
E000E00000
E000700000
E000380000
E0003C0000
E0001E0000
E0000F0000
E000070000
E000038000
E00001C000
E00001E000
E00000F000
E000007800
E000003C00
E000001C00
E000000E00
E000000F00
E000000780
E0000003C0
ENDCHAR
STARTCHAR 004C
ENCODING 76
SWIDTH 514 0
DWIDTH 40 0
BBX 30 54 7 0
BITMAP
E0000000
E0000000
E0000000
E0000000
E0000000
E0000000
E0000000
E0000000
E0000000
E0000000
E0000000
E0000000
E0000000
E0000000
E0000000
E0000000
E0000000
E0000000
E0000000
E0000000
E0000000
E0000000
E0000000
E0000000
E0000000
E0000000
E0000000
E0000000
E0000000
E0000000
E0000000
E0000000
E0000000
E0000000
E0000000
E0000000
E0000000
E0000000
E0000000
E0000000
E0000000
E0000000
E0000000
E0000000
E0000000
E0000000
E0000000
E0000000
E0000000
E0000000
E0000000
FFFFFFFC
FFFFFFFC
FFFFFFFC
ENDCHAR
STARTCHAR 004D
ENCODING 77
SWIDTH 797 0
DWIDTH 62 0
BBX 49 54 7 0
BITMAP
F0000000000F80
F8000000000F80
F8000000000F80
FC000000001F80
FC000000001F80
FC000000003B80
EE000000003B80
EE000000003B80
E7000000007380
E7000000007380
E700000000E380
E380000000E380
E380000000C380
E1C0000001C380
E1C0000001C380
E1C00000038380
E0E00000038380
E0E00000070380
E0700000070380
E0700000070380
E07000000E0380
E03800000E0380
E03800001C0380
E01C00001C0380
E01C00001C0380
E01C0000380380
E00E0000380380
E00E0000700380
E0070000700380
E0070000700380
E0038000E00380
E0038000E00380
E0038001C00380
E001C001C00380
E001C001C00380
E000E003800380
E000E003800380
E000E007000380
E0007007000380
E000700F000380
E000380E000380
E000380E000380
E000381C000380
E0001C1C000380
E0001C3C000380
E0000E38000380
E0000E38000380
E0000E70000380
E0000770000380
E00007F0000380
E00003E0000380
E00003E0000380
E00003C0000380
E00001C0000380
ENDCHAR
STARTCHAR 004E
ENCODING 78
SWIDTH 720 0
DWIDTH 56 0
BBX 42 54 7 0
BITMAP
F000000001C0
F000000001C0
F800000001C0
FC00000001C0
FC00000001C0
EE00000001C0
E700000001C0
E780000001C0
E380000001C0
E1C0000001C0
E0E0000001C0
E0F0000001C0
E070000001C0
E038000001C0
E03C000001C0
E01C000001C0
E00E000001C0
E007000001C0
E007800001C0
E003800001C0
E001C00001C0
E000E00001C0
E000F00001C0
E000700001C0
E000380001C0
E0003C0001C0
E0001C0001C0
E0000E0001C0
E000070001C0
E000078001C0
E000038001C0
E00001C001C0
E00000E001C0
E00000F001C0
E000007001C0
E000003801C0
E000003C01C0
E000001C01C0
E000000E01C0
E000000701C0
E000000781C0
E000000381C0
E0000001C1C0
E0000000E1C0
E0000000F1C0
E000000071C0
E000000039C0
E00000003DC0
E00000001DC0
E00000000FC0
E000000007C0
E000000007C0
E000000003C0
E000000001C0
ENDCHAR
STARTCHAR 004F
ENCODING 79
SWIDTH 732 0
DWIDTH 57 0
BBX 48 56 5 0
BITMAP
000003E00000
0000FFFF0000
0003FFFFC000
000FE007F000
003F0000FC00
007C00003E00
00F000000F00
01E000000780
03C0000003C0
0780000001E0
0F00000000F0
0E0000000070
1C0000000078
1C0000000038
38000000001C
38000000001C
30000000001C
70000000000E
70000000000E
70000000000E
600000000006
E00000000007
E00000000007
E00000000007
E00000000007
E00000000007
E00000000007
C00000000007
C00000000007
C00000000007
E00000000007
E00000000007
E00000000007
E00000000007
E00000000007
E00000000007
600000000006
70000000000E
70000000000E
70000000000E
38000000001C
38000000001C
38000000003C
1C0000000038
1E0000000078
0E0000000070
0700000000E0
0780000001E0
03C0000003C0
01E000000780
00F800001F00
007C00003E00
003F8001F800
000FF81FF000
0003FFFFC000
00007FFE0000
ENDCHAR
STARTCHAR 0050
ENCODING 80
SWIDTH 578 0
DWIDTH 45 0
BBX 35 54 7 0
BITMAP
FFFFFF0000
FFFFFFE000
E00007F000
E00000FC00
E000001E00
E000000F00
E000000700
E000000380
E000000180
E0000001C0
E0000000C0
E0000000C0
E0000000E0
E0000000E0
E0000000E0
E000000060
E000000060
E000000060
E000000060
E0000000E0
E0000000E0
E0000000E0
E0000000C0
E0000001C0
E0000001C0
E000000380
E000000700
E000000F00
E000001E00
E000007C00
E00003F800
FFFFFFE000
FFFFFF8000
FFFFE00000
E000000000
E000000000
E000000000
E000000000
E000000000
E000000000
E000000000
E000000000
E000000000
E000000000
E000000000
E000000000
E000000000
E000000000
E000000000
E000000000
E000000000
E000000000
E000000000
E000000000
ENDCHAR
STARTCHAR 0051
ENCODING 81
SWIDTH 732 0
DWIDTH 57 0
BBX 48 61 5 -5
BITMAP
000003E00000
0000FFFF0000
0003FFFFC000
000FE007F000
003F0000FC00
007C00003E00
00F000000F00
01E000000780
03C0000003C0
0780000001E0
0F00000000F0
0E0000000070
1C0000000078
1C0000000038
38000000001C
38000000001C
30000000001C
70000000000E
70000000000E
70000000000E
600000000006
E00000000007
E00000000007
E00000000007
E00000000007
E00000000007
E00000000007
C00000000007
C00000000007
C00000000007
E00000000007
E00000000007
E00000000007
E00000000007
E00000000007
E00000000007
600001C00006
700000E0000E
70000070000E
70000078000E
3800003C001C
3800001E001C
3800000E0038
1C0000070038
1E0000038078
0E000003C070
07000001E0E0
07800000F1E0
03C0000073C0
01E000003F80
00F800001F00
007C00003E00
003F8001FF00
000FF81FF700
0003FFFFC380
00007FFE01C0
0000000001E0
0000000000F0
000000000078
000000000038
00000000001C
ENDCHAR
STARTCHAR 0052
ENCODING 82
SWIDTH 591 0
DWIDTH 46 0
BBX 35 54 7 0
BITMAP
FFFFFF8000
FFFFFFE000
E00007F800
E000007C00
E000001E00
E000000700
E000000380
E000000180
E0000001C0
E0000000C0
E0000000E0
E0000000E0
E0000000E0
E000000060
E000000060
E000000060
E000000060
E0000000E0
E0000000E0
E0000000C0
E0000000C0
E0000001C0
E000000380
E000000380
E000000F00
E000001E00
E00000FC00
E0001FF800
FFFFFFE000
FFFFFF0000
E001C00000
E000E00000
E000700000
E000780000
E000380000
E0001C0000
E0001E0000
E0000E0000
E000070000
E000078000
E00003C000
E00001C000
E00000E000
E00000F000
E000007000
E000003800
E000003C00
E000001C00
E000000E00
E000000700
E000000780
E000000380
E0000001C0
E0000001E0
ENDCHAR
STARTCHAR 0053
ENCODING 83
SWIDTH 591 0
DWIDTH 46 0
BBX 37 57 5 -1
BITMAP
0000700000
001FFF8000
007FFFE000
01FC03F800
03E0007C00
0780001E00
0F00000F00
1E00000780
1C000003C0
38000001C0
38000001E0
38000000E0
70000000E0
70000000F0
7000000070
7000000070
7000000070
7000000000
7000000000
3800000000
3800000000
3C00000000
1E00000000
0F00000000
07C0000000
03F8000000
00FFC00000
003FFE0000
0003FFE000
00001FF800
000000FE00
0000001F80
00000007C0
00000003E0
00000001E0
00000000F0
0000000070
0000000070
E000000030
E000000038
E000000038
E000000038
E000000038
E000000030
7000000070
7000000070
7800000070
38000000E0
1C000001E0
1E000003C0
0F00000780
07C0000F00
03F0003E00
01FE03FC00
007FFFF000
001FFFC000
0000200000
ENDCHAR
STARTCHAR 0054
ENCODING 84
SWIDTH 578 0
DWIDTH 45 0
BBX 37 54 4 0
BITMAP
FFFFFFFFF8
FFFFFFFFF8
0000700000
0000700000
0000700000
0000700000
0000700000
0000700000
0000700000
0000700000
0000700000
0000700000
0000700000
0000700000
0000700000
0000700000
0000700000
0000700000
0000700000
0000700000
0000700000
0000700000
0000700000
0000700000
0000700000
0000700000
0000700000
0000700000
0000700000
0000700000
0000700000
0000700000
0000700000
0000700000
0000700000
0000700000
0000700000
0000700000
0000700000
0000700000
0000700000
0000700000
0000700000
0000700000
0000700000
0000700000
0000700000
0000700000
0000700000
0000700000
0000700000
0000700000
0000700000
0000700000
ENDCHAR
STARTCHAR 0055
ENCODING 85
SWIDTH 681 0
DWIDTH 53 0
BBX 41 55 6 -1
BITMAP
C00000000180
C00000000180
C00000000180
C00000000180
C00000000180
C00000000180
C00000000180
C00000000180
C00000000180
C00000000180
C00000000180
C00000000180
C00000000180
C00000000180
C00000000180
C00000000180
C00000000180
C00000000180
C00000000180
C00000000180
C00000000180
C00000000180
C00000000180
C00000000180
C00000000180
C00000000180
C00000000180
C00000000180
C00000000180
C00000000180
C00000000180
C00000000180
C00000000180
E00000000380
E00000000380
E00000000380
E00000000380
E00000000380
600000000300
700000000700
700000000700
700000000700
380000000E00
380000000E00
1C0000001C00
1C0000001C00
0E0000003800
0F0000003800
078000007000
03C00001E000
01F00007C000
00FE003F8000
003FFFFE0000
000FFFF80000
00003E000000
ENDCHAR
STARTCHAR 0056
ENCODING 86
SWIDTH 604 0
DWIDTH 47 0
BBX 44 54 2 0
BITMAP
E00000000070
E00000000060
E000000000E0
7000000000E0
7000000001C0
3000000001C0
3800000001C0
380000000380
1C0000000380
1C0000000300
1C0000000700
0E0000000700
0E0000000E00
060000000E00
070000000E00
070000001C00
030000001C00
038000001800
038000003800
01C000003800
01C000003000
01C000007000
00E000007000
00E00000E000
00600000E000
00700000E000
00700001C000
00380001C000
003800018000
003800038000
001C00038000
001C00070000
001C00070000
000E00070000
000E000E0000
0006000E0000
0007000E0000
0007001C0000
0003801C0000
000380180000
000380380000
0001C0380000
0001C0700000
0000C0700000
0000E0700000
0000E0E00000
000060E00000
000070C00000
000071C00000
000039C00000
00003B800000
00003B800000
00001F800000
00001F000000
ENDCHAR
STARTCHAR 0057
ENCODING 87
SWIDTH 990 0
DWIDTH 77 0
BBX 73 54 2 0
BITMAP
C00000001C0000000180
E00000001E0000000380
E00000003E0000000380
600000003E0000000300
70000000770000000700
70000000770000000700
70000000630000000700
30000000E38000000600
38000000E38000000E00
38000000C18000000E00
38000001C1C000000C00
18000001C1C000001C00
1C00000180C000001C00
1C00000380E000001C00
0C00000380E000001800
0E000003006000003800
0E000007007000003800
0E000007007000003800
06000006003000003000
0700000E003800007000
0700000E003800007000
0300000C001800006000
0380001C001C0000E000
0380001C001C0000E000
03800018000C0000E000
01800038000E0000C000
01C00038000E0001C000
01C0003000060001C000
00C00070000700018000
00E00070000700038000
00E00060000300038000
00E000E0000380038000
006000E0000380030000
007000C0000180070000
007001C00001C0070000
007001C00001C0070000
003801800000C00E0000
003803800000E00E0000
003803800000E00E0000
001803000000600C0000
001C07000000701C0000
001C07000000701C0000
001C06000000301C0000
000E0E00000038380000
000E0E00000038380000
000E0C00000018380000
00061C0000001C300000
00071C0000001C700000
0007180000000C700000
0007380000000E700000
0003380000000E600000
0003B000000006E00000
0003F000000007E00000
0003F000000007E00000
ENDCHAR
STARTCHAR 0058
ENCODING 88
SWIDTH 630 0
DWIDTH 49 0
BBX 41 54 4 0
BITMAP
700000000380
780000000780
380000000F00
1C0000000E00
1E0000001C00
0E0000003C00
070000003800
038000007000
03C00000F000
01C00000E000
00E00001C000
00F00003C000
007000038000
003800070000
003C000F0000
001C000E0000
000E001C0000
000F003C0000
000700380000
000380700000
0003C0F00000
0001C0E00000
0000E1C00000
0000F3C00000
00007B800000
00003F000000
00003F000000
00003F000000
00007F800000
000073800000
0000F3C00000
0001E1E00000
0001C0E00000
0003C0700000
000780780000
000700380000
000E001C0000
001E001E0000
001C000E0000
003800070000
007800078000
007000038000
00E00001C000
01E00001E000
01C00000E000
038000007000
078000007800
0F0000003800
0E0000001C00
1C0000001E00
3C0000000E00
380000000700
700000000780
F00000000380
ENDCHAR
STARTCHAR 0059
ENCODING 89
SWIDTH 578 0
DWIDTH 45 0
BBX 37 54 4 0
BITMAP
E000000078
F000000070
70000000F0
78000000E0
38000001E0
3C000001C0
1C000003C0
1E00000380
0E00000780
0700000700
0700000F00
0380000E00
0380001E00
01C0001C00
01C0003C00
00E0003800
00E0007000
0070007000
007000E000
003800E000
003C01C000
001C01C000
001E038000
000E038000
000F070000
0007070000
00078E0000
00038E0000
0003DC0000
0001FC0000
0001F80000
0000F80000
0000F00000
0000700000
0000700000
0000700000
0000700000
0000700000
0000700000
0000700000
0000700000
0000700000
0000700000
0000700000
0000700000
0000700000
0000700000
0000700000
0000700000
0000700000
0000700000
0000700000
0000700000
0000700000
ENDCHAR
STARTCHAR 005A
ENCODING 90
SWIDTH 591 0
DWIDTH 46 0
BBX 36 54 5 0
BITMAP
FFFFFFFFF0
FFFFFFFFF0
00000000F0
00000000E0
00000001C0
00000003C0
0000000380
0000000700
0000000F00
0000000E00
0000001C00
0000003C00
0000003800
0000007000
000000F000
000000E000
000001C000
000003C000
0000038000
0000070000
00000F0000
00000E0000
00001C0000
00003C0000
0000380000
0000700000
0000F00000
0000E00000
0001C00000
0003C00000
0003800000
0007000000
000F000000
000E000000
001C000000
003C000000
0078000000
0070000000
00F0000000
01E0000000
01C0000000
03C0000000
0780000000
0700000000
0F00000000
1E00000000
1C00000000
3C00000000
7800000000
7000000000
F000000000
FFFFFFFFF0
FFFFFFFFF0
FFFFFFFFF0
ENDCHAR
STARTCHAR 005B
ENCODING 91
SWIDTH 398 0
DWIDTH 31 0
BBX 20 76 6 -13
BITMAP
FFFFF0
FFFFF0
E00000
E00000
E00000
E00000
E00000
E00000
E00000
E00000
E00000
E00000
E00000
E00000
E00000
E00000
E00000
E00000
E00000
E00000
E00000
E00000
E00000
E00000
E00000
E00000
E00000
E00000
E00000
E00000
E00000
E00000
E00000
E00000
E00000
E00000
E00000
E00000
E00000
E00000
E00000
E00000
E00000
E00000
E00000
E00000
E00000
E00000
E00000
E00000
E00000
E00000
E00000
E00000
E00000
E00000
E00000
E00000
E00000
E00000
E00000
E00000
E00000
E00000
E00000
E00000
E00000
E00000
E00000
E00000
E00000
E00000
E00000
FFFFF0
FFFFF0
FFFFF0
ENDCHAR
STARTCHAR 005C
ENCODING 92
SWIDTH 475 0
DWIDTH 37 0
BBX 29 73 2 -9
BITMAP
E0000000
E0000000
70000000
70000000
30000000
38000000
38000000
1C000000
1C000000
1C000000
0E000000
0E000000
0E000000
07000000
07000000
03000000
03800000
03800000
01C00000
01C00000
01C00000
00E00000
00E00000
00600000
00700000
00700000
00380000
00380000
00380000
001C0000
001C0000
001C0000
000E0000
000E0000
00060000
00070000
00070000
00038000
00038000
00038000
0001C000
0001C000
0000C000
0000E000
0000E000
00007000
00007000
00007000
00003800
00003800
00003800
00001C00
00001C00
00000C00
00000E00
00000E00
00000700
00000700
00000700
00000380
00000380
00000180
000001C0
000001C0
000000E0
000000E0
000000E0
00000070
00000070
00000070
00000038
00000038
00000018
ENDCHAR
STARTCHAR 005D
ENCODING 93
SWIDTH 398 0
DWIDTH 31 0
BBX 20 76 6 -13
BITMAP
FFFFF0
FFFFF0
000070
000070
000070
000070
000070
000070
000070
000070
000070
000070
000070
000070
000070
000070
000070
000070
000070
000070
000070
000070
000070
000070
000070
000070
000070
000070
000070
000070
000070
000070
000070
000070
000070
000070
000070
000070
000070
000070
000070
000070
000070
000070
000070
000070
000070
000070
000070
000070
000070
000070
000070
000070
000070
000070
000070
000070
000070
000070
000070
000070
000070
000070
000070
000070
000070
000070
000070
000070
000070
000070
000070
FFFFF0
FFFFF0
FFFFF0
ENDCHAR
STARTCHAR 005E
ENCODING 94
SWIDTH 411 0
DWIDTH 32 0
BBX 24 13 4 45
BITMAP
003C00
003E00
006600
00E300
01C180
0381C0
0700E0
0E0070
1C0038
1C001C
38000E
70000E
E00007
ENDCHAR
STARTCHAR 005F
ENCODING 95
SWIDTH 707 0
DWIDTH 55 0
BBX 37 3 9 0
BITMAP
FFFFFFFFF8
FFFFFFFFF8
FFFFFFFFF8
ENDCHAR
STARTCHAR 0060
ENCODING 96
SWIDTH 192 0
DWIDTH 15 0
BBX 11 13 2 49
BITMAP
F000
7800
3800
3C00
1C00
0E00
0600
0700
0380
0180
01C0
00C0
0060
ENDCHAR
STARTCHAR 0061
ENCODING 97
SWIDTH 617 0
DWIDTH 48 0
BBX 36 42 5 0
BITMAP
0007FE0000
003FFF8030
00FFFFE030
01F001F030
03C0007830
0780001C30
0E00000E30
1E00000730
1C00000330
38000003B0
38000001F0
70000000F0
70000000F0
60000000F0
E000000070
E000000070
E000000070
E000000070
C000000070
C000000070
C000000070
C000000070
C000000070
C000000070
E000000070
E000000070
E000000070
E000000070
E0000000F0
70000000F0
70000000F0
38000001F0
38000001B0
3C000003B0
1C00000730
0E00000E30
0700001C30
07C0003830
01F000F030
00FF9FE030
007FFFC030
000FFE0030
ENDCHAR
STARTCHAR 0062
ENCODING 98
SWIDTH 617 0
DWIDTH 48 0
BBX 37 58 7 0
BITMAP
E000000000
E000000000
E000000000
E000000000
E000000000
E000000000
E000000000
E000000000
E000000000
E000000000
E000000000
E000000000
E000000000
E000000000
E000000000
E000000000
E003FF0000
E01FFFC000
E07FFFF000
E0F800FC00
E1E0003E00
E380000F00
E700000700
E600000380
EE000001C0
FC000001C0
F8000000E0
F8000000E0
F000000070
F000000070
F000000070
F000000030
E000000038
E000000038
E000000038
E000000038
E000000038
E000000038
E000000038
E000000038
E000000038
E000000038
F000000030
F000000070
F000000070
F000000070
F8000000E0
F8000000E0
FC000001E0
EC000001C0
E600000380
E700000780
E380000F00
E1E0001E00
E0F8007C00
E07F8FF800
E01FFFE000
E007FF8000
ENDCHAR
STARTCHAR 0063
ENCODING 99
SWIDTH 578 0
DWIDTH 45 0
BBX 36 42 5 0
BITMAP
0007FF0000
001FFFE000
007FFFF800
01F8007C00
03E0001E00
0780000F00
0F00000780
0E00000380
1C000001C0
3C000000C0
38000000E0
38000000E0
7000000070
7000000070
7000000070
E000000000
E000000000
E000000000
E000000000
E000000000
E000000000
E000000000
E000000000
E000000000
E000000000
E000000000
E000000000
6000000070
7000000070
7000000070
7800000060
38000000E0
3C000000E0
1C000001C0
1E000003C0
0F00000380
0780000700
03C0001E00
01F0007C00
00FF03F800
003FFFE000
000FFF8000
ENDCHAR
STARTCHAR 0064
ENCODING 100
SWIDTH 617 0
DWIDTH 48 0
BBX 36 58 5 0
BITMAP
0000000030
0000000030
0000000030
0000000030
0000000030
0000000030
0000000030
0000000030
0000000030
0000000030
0000000030
0000000030
0000000030
0000000030
0000000030
0000000030
0007FE0030
003FFF8030
00FFFFE030
01F001F030
03C0007830
0780001C30
0E00000E30
1E00000730
1C00000330
38000003B0
38000001F0
70000000F0
70000000F0
60000000F0
E000000070
E000000070
E000000070
E000000070
C000000070
C000000070
C000000070
C000000070
C000000070
C000000070
E000000070
E000000070
E000000070
E000000070
E0000000F0
70000000F0
70000000F0
38000001F0
38000001B0
3C000003B0
1C00000730
0E00000E30
0700001C30
07C0003830
01F000F030
00FF9FE030
007FFFC030
000FFE0030
ENDCHAR
STARTCHAR 0065
ENCODING 101
SWIDTH 578 0
DWIDTH 45 0
BBX 36 42 5 0
BITMAP
0007FF0000
001FFFC000
007FFFF000
01F800F800
03E0003C00
0780000E00
0F00000700
0E00000380
1C00000380
1C000001C0
38000001C0
38000000E0
70000000E0
70000000E0
70000000E0
E000000070
E000000070
E000000070
E000000070
E000000070
FFFFFFFFF0
FFFFFFFFF0
E000000000
E000000000
E000000000
E000000000
E000000000
6000000000
7000000000
7000000000
30000000E0
38000000E0
3C000001C0
1C000001C0
0E00000380
0F00000780
0780000F00
03C0001E00
01F0007C00
00FF07F800
003FFFE000
000FFF8000
ENDCHAR
STARTCHAR 0066
ENCODING 102
SWIDTH 347 0
DWIDTH 27 0
BBX 19 57 4 0
BITMAP
001FE0
007FE0
00F000
00E000
01C000
01C000
018000
018000
038000
038000
038000
038000
038000
038000
038000
038000
FFFFE0
FFFFE0
FFFFE0
038000
038000
038000
038000
038000
038000
038000
038000
038000
038000
038000
038000
038000
038000
038000
038000
038000
038000
038000
038000
038000
038000
038000
038000
038000
038000
038000
038000
038000
038000
038000
038000
038000
038000
038000
038000
038000
038000
ENDCHAR
STARTCHAR 0067
ENCODING 103
SWIDTH 617 0
DWIDTH 48 0
BBX 37 57 5 -15
BITMAP
000FFE0000
003FFFC038
00FFFFE038
01F000F838
03C0003C38
0780000E38
0F00000638
1E00000338
1C000003B8
3C000001B8
38000000F8
78000000F8
70000000F8
7000000078
F000000078
E000000078
E000000078
E000000038
E000000038
E000000038
E000000038
E000000038
E000000038
E000000078
E000000078
E000000078
7000000078
7000000078
70000000F8
78000000F8
38000001F8
3C000001B8
1E000003B8
0E00000738
0F00000E38
07C0001E38
03E0007838
01FC01F038
007FFFE038
001FFF8038
0003FC0038
0000000038
0000000038
0000000030
0000000030
0000000070
0000000070
0000000060
00000000E0
00000001C0
00000001C0
0000000380
0000000F00
0000003E00
000701FC00
0007FFF000
0007FFC000
ENDCHAR
STARTCHAR 0068
ENCODING 104
SWIDTH 617 0
DWIDTH 48 0
BBX 35 58 7 0
BITMAP
E000000000
E000000000
E000000000
E000000000
E000000000
E000000000
E000000000
E000000000
E000000000
E000000000
E000000000
E000000000
E000000000
E000000000
E000000000
E000000000
E003FE0000
E01FFFC000
E07FFFF000
E0F803F800
E1E0007C00
E380001E00
E700000F00
EE00000700
EC00000380
F800000380
F8000001C0
F0000001C0
F0000000C0
E0000000E0
E0000000E0
E0000000E0
E0000000E0
E0000000E0
E0000000E0
E0000000E0
E0000000E0
E0000000E0
E0000000E0
E0000000E0
E0000000E0
E0000000E0
E0000000E0
E0000000E0
E0000000E0
E0000000E0
E0000000E0
E0000000E0
E0000000E0
E0000000E0
E0000000E0
E0000000E0
E0000000E0
E0000000E0
E0000000E0
E0000000E0
E0000000E0
E0000000E0
ENDCHAR
STARTCHAR 0069
ENCODING 105
SWIDTH 205 0
DWIDTH 16 0
BBX 5 55 6 0
BITMAP
20
F0
F8
F8
F8
70
00
00
00
00
00
00
00
00
70
70
70
70
70
70
70
70
70
70
70
70
70
70
70
70
70
70
70
70
70
70
70
70
70
70
70
70
70
70
70
70
70
70
70
70
70
70
70
70
70
ENDCHAR
STARTCHAR 006A
ENCODING 106
SWIDTH 218 0
DWIDTH 17 0
BBX 15 71 -3 -16
BITMAP
0010
003C
007E
007E
007C
0038
0000
0000
0000
0000
0000
0000
0000
0000
0018
0018
0018
0018
0018
0018
0018
0018
0018
0018
0018
0018
0018
0018
0018
0018
0018
0018
0018
0018
0018
0018
0018
0018
0018
0018
0018
0018
0018
0018
0018
0018
0018
0018
0018
0018
0018
0018
0018
0018
0018
0018
0018
0018
0018
0018
0018
0018
0018
0018
0038
0038
0038
0070
00F0
FFE0
FFC0
ENDCHAR
STARTCHAR 006B
ENCODING 107
SWIDTH 462 0
DWIDTH 36 0
BBX 26 58 7 0
BITMAP
E0000000
E0000000
E0000000
E0000000
E0000000
E0000000
E0000000
E0000000
E0000000
E0000000
E0000000
E0000000
E0000000
E0000000
E0000000
E0000000
E0000000
E0000780
E0000E00
E0001C00
E0003800
E0007000
E001E000
E003C000
E0070000
E00E0000
E01C0000
E0780000
E0F00000
E1C00000
E3800000
E7000000
FE000000
FC000000
F0000000
F0000000
F8000000
FC000000
EE000000
E7000000
E3800000
E1C00000
E0E00000
E0700000
E0380000
E01C0000
E00E0000
E0070000
E0038000
E001C000
E000E000
E0007000
E0007800
E0003C00
E0001E00
E0000F00
E0000780
E00003C0
ENDCHAR
STARTCHAR 006C
ENCODING 108
SWIDTH 282 0
DWIDTH 22 0
BBX 12 58 7 0
BITMAP
E000
E000
E000
E000
E000
E000
E000
E000
E000
E000
E000
E000
E000
E000
E000
E000
E000
E000
E000
E000
E000
E000
E000
E000
E000
E000
E000
E000
E000
E000
E000
E000
E000
E000
E000
E000
E000
E000
E000
E000
E000
E000
E000
E000
E000
E000
E000
E000
E000
E000
E000
E000
E000
6000
7000
7800
3FF0
1FF0
ENDCHAR
STARTCHAR 006D
ENCODING 109
SWIDTH 990 0
DWIDTH 77 0
BBX 64 42 7 0
BITMAP
0007FC00000FF800
E01FFF80007FFF00
E07FFFC000FFFF80
E0F803F003F00FC0
E1C000F8078001F0
E380007C0E0000F0
E600001C1C000078
EC00000E1800003C
EC00000F3000001C
F80000077000000E
F0000007E000000E
F0000003E0000006
F0000003C0000007
E0000003C0000007
E0000001C0000007
E0000001C0000007
E0000001C0000003
E000000180000003
E000000180000003
E000000180000003
E000000180000003
E000000180000003
E000000180000003
E000000180000003
E000000180000003
E000000180000003
E000000180000003
E000000180000003
E000000180000003
E000000180000003
E000000180000003
E000000180000003
E000000180000003
E000000180000003
E000000180000003
E000000180000003
E000000180000003
E000000180000003
E000000180000003
E000000180000003
E000000180000003
E000000180000003
ENDCHAR
STARTCHAR 006E
ENCODING 110
SWIDTH 617 0
DWIDTH 48 0
BBX 35 42 7 0
BITMAP
0003FE0000
E01FFFC000
E07FFFF000
E0F803F800
E1E0007C00
E380001E00
E700000F00
EE00000700
EC00000380
F800000380
F8000001C0
F0000001C0
F0000000C0
E0000000E0
E0000000E0
E0000000E0
E0000000E0
E0000000E0
E0000000E0
E0000000E0
E0000000E0
E0000000E0
E0000000E0
E0000000E0
E0000000E0
E0000000E0
E0000000E0
E0000000E0
E0000000E0
E0000000E0
E0000000E0
E0000000E0
E0000000E0
E0000000E0
E0000000E0
E0000000E0
E0000000E0
E0000000E0
E0000000E0
E0000000E0
E0000000E0
E0000000E0
ENDCHAR
STARTCHAR 006F
ENCODING 111
SWIDTH 591 0
DWIDTH 46 0
BBX 37 42 5 0
BITMAP
0003FE0000
001FFFC000
007FFFF000
00F800F800
03E0003C00
0780001E00
0700000700
0E00000380
1E000003C0
1C000001C0
38000000E0
38000000E0
7000000070
7000000070
7000000070
E000000038
E000000038
E000000038
E000000038
E000000038
E000000038
E000000038
E000000038
E000000038
E000000038
E000000038
E000000038
6000000070
7000000070
7000000070
38000000E0
38000000E0
3C000001E0
1C000001C0
0E00000380
0F00000780
0780000F00
03E0003E00
01F800FC00
007F07F000
003FFFE000
0007FF0000
ENDCHAR
STARTCHAR 0070
ENCODING 112
SWIDTH 617 0
DWIDTH 48 0
BBX 37 57 7 -15
BITMAP
0003FF0000
E01FFFC000
E07FFFF000
E0F800FC00
E1E0003E00
E380000F00
E700000700
E600000380
EE000001C0
FC000001C0
F8000000E0
F8000000E0
F000000070
F000000070
F000000070
F000000030
E000000038
E000000038
E000000038
E000000038
E000000038
E000000038
E000000038
E000000038
E000000038
E000000038
F000000030
F000000070
F000000070
F000000070
F8000000E0
F8000000E0
FC000001E0
EC000001C0
E600000380
E700000780
E380000F00
E1E0001E00
E0F8007C00
E07F8FF800
E01FFFE000
E007FF8000
E000000000
E000000000
E000000000
E000000000
E000000000
E000000000
E000000000
E000000000
E000000000
E000000000
E000000000
E000000000
E000000000
E000000000
E000000000
ENDCHAR
STARTCHAR 0071
ENCODING 113
SWIDTH 617 0
DWIDTH 48 0
BBX 36 57 5 -15
BITMAP
0007FE0000
003FFF8030
00FFFFE030
01F001F030
03C0007830
0780001C30
0E00000E30
1E00000730
1C00000330
38000003B0
38000001F0
70000000F0
70000000F0
60000000F0
E000000070
E000000070
E000000070
E000000070
C000000070
C000000070
C000000070
C000000070
C000000070
C000000070
E000000070
E000000070
E000000070
E000000070
E0000000F0
70000000F0
70000000F0
38000001F0
38000001B0
3C000003B0
1C00000730
0E00000E30
0700001C30
07C0003830
01F000F030
00FF9FE030
007FFFC030
000FFE0030
0000000030
0000000030
0000000030
0000000030
0000000030
0000000030
0000000030
0000000030
0000000030
0000000030
0000000030
0000000030
0000000030
0000000030
0000000030
ENDCHAR
STARTCHAR 0072
ENCODING 114
SWIDTH 308 0
DWIDTH 24 0
BBX 18 41 6 0
BITMAP
E01F00
E0FFC0
E3FFC0
E7E1C0
E70000
EC0000
F80000
F80000
F00000
F00000
E00000
E00000
E00000
E00000
E00000
E00000
E00000
E00000
E00000
E00000
E00000
E00000
E00000
E00000
E00000
E00000
E00000
E00000
E00000
E00000
E00000
E00000
E00000
E00000
E00000
E00000
E00000
E00000
E00000
E00000
E00000
ENDCHAR
STARTCHAR 0073
ENCODING 115
SWIDTH 488 0
DWIDTH 38 0
BBX 31 42 4 0
BITMAP
003FF000
00FFFE00
03FFFF80
07C007C0
0F0001E0
1E0000F0
3C000070
38000078
38000038
38000038
7000001C
7000001C
7000001C
38000000
38000000
3C000000
1C000000
1F000000
0FC00000
03FF8000
00FFFC00
001FFF80
00001FC0
000001F0
000000F8
00000038
0000003C
0000001C
0000001C
E000000E
6000000E
7000000E
7000001C
7800001C
3800001C
3C000038
1E000078
0F0000F0
07C003E0
03FE1FC0
00FFFF00
003FFC00
ENDCHAR
STARTCHAR 0074
ENCODING 116
SWIDTH 360 0
DWIDTH 28 0
BBX 21 54 3 0
BITMAP
00E000
00E000
00E000
00E000
00E000
00E000
00E000
00E000
00E000
00E000
00E000
00E000
00E000
FFFFF8
FFFFF8
FFFFF8
00E000
00E000
00E000
00E000
00E000
00E000
00E000
00E000
00E000
00E000
00E000
00E000
00E000
00E000
00E000
00E000
00E000
00E000
00E000
00E000
00E000
00E000
00E000
00E000
00E000
00E000
00E000
00E000
00E000
00E000
00E000
00E000
00E000
00E000
007000
007800
003FF8
001FF8
ENDCHAR
STARTCHAR 0075
ENCODING 117
SWIDTH 604 0
DWIDTH 47 0
BBX 34 42 7 -1
BITMAP
E0000000C0
E0000000C0
E0000000C0
E0000000C0
E0000000C0
E0000000C0
E0000000C0
E0000000C0
E0000000C0
E0000000C0
E0000000C0
E0000000C0
E0000000C0
E0000000C0
E0000000C0
E0000000C0
E0000000C0
E0000000C0
E0000000C0
E0000000C0
E0000000C0
E0000000C0
E0000000C0
E0000000C0
E0000000C0
E0000001C0
E0000001C0
E0000001C0
60000001C0
70000001C0
70000003C0
30000003C0
38000006C0
3C00000CC0
1E00001CC0
0F000038C0
0F800070C0
07E001E0C0
03FE3FC0C0
00FFFF80C0
003FFE00C0
0003E00000
ENDCHAR
STARTCHAR 0076
ENCODING 118
SWIDTH 540 0
DWIDTH 42 0
BBX 35 41 4 0
BITMAP
E0000000E0
E0000000E0
E0000001C0
70000001C0
70000001C0
3000000380
3800000380
3800000700
1C00000700
1C00000700
0C00000E00
0E00000E00
0E00001C00
0700001C00
0700001C00
0300003800
0380003800
0380007000
01C0007000
01C0007000
01C000E000
00E000E000
00E001C000
007001C000
007001C000
0070038000
0038038000
0038030000
0018070000
001C070000
001C0E0000
000E0E0000
000E0C0000
00061C0000
00071C0000
0007380000
0003B80000
0003B00000
0001F00000
0001F00000
0001E00000
ENDCHAR
STARTCHAR 0077
ENCODING 119
SWIDTH 810 0
DWIDTH 63 0
BBX 56 41 4 0
BITMAP
C0000038000007
E000003800000E
E000003C00000E
6000007C00000E
7000007C00000C
7000007E00001C
700000EE00001C
380000EE00001C
380000C7000038
380001C7000038
180001C7000038
1C000183800030
1C000383800070
0C000383800070
0E000301C00060
0E000701C000E0
0E000701C000E0
07000600E000E0
07000E00E001C0
07000E00E001C0
03000C007001C0
03801C00700180
03801C00700380
03801800380380
01C03800380300
01C03800380700
01C030001C0700
00C070001C0700
00E070001C0600
00E060000E0E00
0060E0000E0E00
0070E0000E0C00
0070C000071C00
0071C000071C00
0039C000071C00
0039C00003B800
003B800003B800
001B800003B800
001F800001F000
001F000001F000
001F000001F000
ENDCHAR
STARTCHAR 0078
ENCODING 120
SWIDTH 527 0
DWIDTH 41 0
BBX 33 41 3 0
BITMAP
F000000380
7000000700
3800000F00
1C00000E00
1E00001C00
0E00003C00
0700003800
0780007000
038000E000
01C000E000
00E001C000
00E0038000
0070078000
0038070000
00380E0000
001C1E0000
000E1C0000
0007380000
0007700000
0003F00000
0001E00000
0003F00000
0007700000
0007380000
000E1C0000
001C1C0000
003C0E0000
0038070000
0070078000
00F0038000
00E001C000
01C001E000
03C000E000
0380007000
0700007800
0F00003800
1E00001C00
1C00001E00
3800000E00
7800000700
7000000780
ENDCHAR
STARTCHAR 0079
ENCODING 121
SWIDTH 527 0
DWIDTH 41 0
BBX 35 55 3 -14
BITMAP
E0000000E0
70000000E0
70000001C0
70000001C0
3800000380
3800000380
1C00000700
1C00000700
1C00000700
0E00000E00
0E00000E00
0700001C00
0700001C00
0700003800
0380003800
0380003800
01C0007000
01C0007000
00C000E000
00E000E000
00E001C000
007001C000
0070018000
0030038000
0038038000
0038070000
001C070000
001C060000
000C0E0000
000E0C0000
000E1C0000
00071C0000
0007380000
0003380000
0003B00000
0001F00000
0001E00000
0001E00000
0001C00000
0001C00000
0003C00000
0003800000
0003800000
0007000000
0007000000
000E000000
000E000000
001C000000
001C000000
003C000000
0038000000
0070000000
01E0000000
7FC0000000
7F80000000
ENDCHAR
STARTCHAR 007A
ENCODING 122
SWIDTH 501 0
DWIDTH 39 0
BBX 31 41 4 0
BITMAP
3FFFFFFE
3FFFFFFE
3FFFFFFE
0000001E
0000001C
00000038
00000070
000000F0
000000E0
000001C0
00000380
00000700
00000F00
00000E00
00001C00
00003800
00007000
00007000
0000E000
0001C000
00038000
00078000
00070000
000E0000
001C0000
00380000
00380000
00700000
00E00000
01C00000
03C00000
03800000
07000000
0E000000
1C000000
1C000000
38000000
70000000
FFFFFFFE
FFFFFFFE
FFFFFFFE
ENDCHAR
STARTCHAR 007B
ENCODING 123
SWIDTH 462 0
DWIDTH 36 0
BBX 23 78 9 -14
BITMAP
0001FE
003FFE
007F00
007000
00E000
00C000
00C000
01C000
01C000
01C000
01C000
01C000
01C000
01C000
01C000
01C000
01C000
01C000
01C000
01C000
01C000
01C000
01C000
01C000
01C000
01C000
01C000
01C000
01C000
01C000
01C000
01C000
01C000
01C000
01C000
01C000
01C000
038000
0F8000
FF0000
0F8000
038000
01C000
01C000
01C000
01C000
01C000
01C000
01C000
01C000
01C000
01C000
01C000
01C000
01C000
01C000
01C000
01C000
01C000
01C000
01C000
01C000
01C000
01C000
01C000
01C000
01C000
01C000
01C000
01C000
01C000
01C000
00C000
00C000
00E000
007000
007FFE
001FFE
ENDCHAR
STARTCHAR 007C
ENCODING 124
SWIDTH 270 0
DWIDTH 21 0
BBX 3 91 9 -17
BITMAP
E0
E0
E0
E0
E0
E0
E0
E0
E0
E0
E0
E0
E0
E0
E0
E0
E0
E0
E0
E0
E0
E0
E0
E0
E0
E0
E0
E0
E0
E0
E0
E0
E0
E0
E0
E0
E0
E0
E0
E0
E0
E0
E0
E0
E0
E0
E0
E0
E0
E0
E0
E0
E0
E0
E0
E0
E0
E0
E0
E0
E0
E0
E0
E0
E0
E0
E0
E0
E0
E0
E0
E0
E0
E0
E0
E0
E0
E0
E0
E0
E0
E0
E0
E0
E0
E0
E0
E0
E0
E0
E0
ENDCHAR
STARTCHAR 007D
ENCODING 125
SWIDTH 488 0
DWIDTH 38 0
BBX 23 78 12 -14
BITMAP
FF8000
FFF800
01FC00
001C00
000E00
000600
000600
000700
000700
000700
000700
000700
000700
000700
000700
000700
000700
000700
000700
000700
000700
000700
000700
000700
000700
000700
000700
000700
000700
000700
000700
000700
000700
000700
000700
000700
000700
000380
0003E0
0001FE
0003E0
000380
000700
000700
000700
000700
000700
000700
000700
000700
000700
000700
000700
000700
000700
000700
000700
000700
000700
000700
000700
000700
000700
000700
000700
000700
000700
000700
000700
000700
000700
000700
000600
000600
000E00
001C00
FFFC00
FFF000
ENDCHAR
STARTCHAR 007E
ENCODING 126
SWIDTH 514 0
DWIDTH 40 0
BBX 27 7 7 27
BITMAP
018000E0
0FF000E0
1FFC01E0
3C3E03C0
700F8F80
F003FF00
E001FE00
ENDCHAR
STARTCHAR 00A0
ENCODING 160
SWIDTH 218 0
DWIDTH 17 0
BBX 0 0 0 0
BITMAP
ENDCHAR
STARTCHAR 00A1
ENCODING 161
SWIDTH 180 0
DWIDTH 14 0
BBX 6 60 5 -19
BITMAP
78
7C
FC
7C
78
00
00
00
00
00
00
10
30
30
30
30
30
30
30
30
30
30
30
30
30
30
30
30
38
38
38
38
38
38
38
38
38
38
38
38
38
38
38
38
78
78
78
78
78
78
78
78
78
78
78
78
78
78
78
78
ENDCHAR
STARTCHAR 00A2
ENCODING 162
SWIDTH 591 0
DWIDTH 46 0
BBX 36 52 5 -5
BITMAP
0000600000
0000600000
0000600000
0000600000
0000600000
0007FF0000
001FFFE000
007FFFF000
01F8607C00
03E0601E00
0780600F00
0F00600780
0E00600380
1C006001C0
3C006000C0
38006000E0
38006000E0
7000600060
7000600070
7000600070
E000600000
E000600000
E000600000
E000600000
E000600000
E000600000
E000600000
E000600000
E000600000
E000600000
E000600000
E000600000
6000600070
7000600070
7000600070
7800600060
38006000E0
3C006000E0
1C006001C0
1E006003C0
0F00600380
0780600700
03C0601E00
01F0607C00
00FF63F800
003FFFE000
000FFF8000
0000600000
0000600000
0000600000
0000600000
0000600000
ENDCHAR
STARTCHAR 00A3
ENCODING 163
SWIDTH 565 0
DWIDTH 44 0
BBX 37 56 3 0
BITMAP
0000780000
0007FFE000
003FFFF800
007E01FC00
00F0003E00
01E0000F00
03C0000700
0780000780
0700000380
0F000003C0
0E000001C0
0E000001C0
0E000001C0
1C000000E0
1C000000E0
1C000000E0
1C000000E0
0E000000E0
0E00000000
0E00000000
0F00000000
0700000000
0780000000
0380000000
03C0000000
01C0000000
00E0000000
00F0000000
0070000000
0078000000
0038000000
001C000000
3FFFFFF000
3FFFFFF000
000E000000
000E000000
000E000000
0007000000
0007000000
0007000000
0007000000
0007000000
000E000000
000E000000
000E000000
000C000000
001C000000
0018000000
0038000000
0070000000
00E0000000
01C0000000
0700000000
FFFFFFFFF8
FFFFFFFFF8
FFFFFFFFF8
ENDCHAR
STARTCHAR 00A4
ENCODING 164
SWIDTH 540 0
DWIDTH 42 0
BBX 30 30 6 13
BITMAP
20000018
701FF038
38FFFC70
1DFCFFE0
0FC00FC0
070003C0
0E0001E0
1C0000E0
38000070
38000030
30000038
70000038
70000018
60000018
60000018
60000018
60000018
70000018
70000038
30000038
38000030
38000070
1C0000E0
0E0001E0
0F0003C0
1F8007E0
39F03F70
70FFFC38
E03FF01C
60000008
ENDCHAR
STARTCHAR 00A5
ENCODING 165
SWIDTH 591 0
DWIDTH 46 0
BBX 37 54 4 0
BITMAP
E000000078
F000000070
70000000F0
78000000E0
38000001E0
3C000001C0
1C000003C0
1E00000380
0E00000780
0F00000700
0700000F00
0380000E00
0380001E00
01C0001C00
01C0003C00
00E0003800
00E0007800
0070007000
007000F000
003800E000
003C01E000
001C01C000
001E038000
000E038000
000F070000
0007070000
00078E0000
00038E0000
0003DC0000
0001FC0000
0001F80000
0FFFFFFF80
0FFFFFFF80
0000700000
0000700000
0000700000
0000700000
0000700000
0000700000
0FFFFFFF80
0FFFFFFF80
0FFFFFFF80
0000700000
0000700000
0000700000
0000700000
0000700000
0000700000
0000700000
0000700000
0000700000
0000700000
0000700000
0000700000
ENDCHAR
STARTCHAR 00A6
ENCODING 166
SWIDTH 270 0
DWIDTH 21 0
BBX 3 91 9 -17
BITMAP
E0
E0
E0
E0
E0
E0
E0
E0
E0
E0
E0
E0
E0
E0
E0
E0
E0
E0
E0
E0
E0
E0
E0
E0
E0
E0
E0
E0
E0
E0
E0
E0
E0
E0
E0
E0
E0
E0
E0
E0
E0
00
00
00
00
00
00
00
00
00
00
00
00
E0
E0
E0
E0
E0
E0
E0
E0
E0
E0
E0
E0
E0
E0
E0
E0
E0
E0
E0
E0
E0
E0
E0
E0
E0
E0
E0
E0
E0
E0
E0
E0
E0
E0
E0
E0
E0
E0
ENDCHAR
STARTCHAR 00A7
ENCODING 167
SWIDTH 540 0
DWIDTH 42 0
BBX 33 57 5 -1
BITMAP
0003C00000
007FFE0000
01FFFF8000
07F00FC000
0F8003E000
0E0000F000
1C00007800
3C00003800
3800003C00
3800001C00
3800001C00
3800001C00
3800000000
3800000000
3C00000000
1E00000000
1F80000000
0FF0000000
03FFF00000
03FFFF0000
0F01FFE000
3C0003F000
7800007C00
7000003E00
E000000F00
E000000700
E000000780
E000000380
E000000380
E000000380
F000000380
7000000380
7C00000700
3E00000700
0FC0000E00
07FF001C00
01FFFEF800
001FFFE000
00001FF000
000001F800
0000007C00
0000003C00
0000001E00
0000000E00
7000000E00
7000000E00
7000000E00
7800000E00
3800001E00
3C00001C00
1E00003C00
0F00007800
07C001F000
03FE1FE000
01FFFF8000
003FFE0000
0002800000
ENDCHAR
STARTCHAR 00A8
ENCODING 168
SWIDTH 257 0
DWIDTH 20 0
BBX 16 6 2 49
BITMAP
3004
781F
F81F
FC1F
F81F
700E
ENDCHAR
STARTCHAR 00A9
ENCODING 169
SWIDTH 810 0
DWIDTH 63 0
BBX 57 56 3 0
BITMAP
000000FFC0000000
00001FFFFE000000
0000FFFFFF800000
0003FE001FE00000
0007E00001F80000
001F8000007C0000
003E0000001F0000
00780000000F8000
00F000000007C000
01E000000003C000
03C000000001E000
038000FFC000F000
070007FFF8007800
0F000FFBFC003800
0E003F001F003C00
1C007C0007801C00
1C00F00003C01C00
3C00E00001C00E00
3801C00000E00E00
3801C00000600600
3003800000700700
7003800000300700
7007000000380700
7007000000000300
7007000000000300
6007000000000380
6006000000000380
E00E000000000380
E00E000000000380
6006000000000380
6006000000000380
6007000000000380
7007000000000300
7007000000380700
7007000000300700
7003800000700700
3803800000700700
3801C00000E00E00
3801E00000E00E00
1C00F00001C00E00
1C00780007801C00
0E003E000F001C00
0E001F807E003800
07000FFFFC007800
078003FFF0007000
03C0003E0000E000
01E000000001E000
00F000000003C000
00F8000000078000
003C0000001F0000
001F0000003E0000
000FC00000F80000
0003F80007F00000
0001FFE1FFC00000
00003FFFFF000000
000007FFF8000000
ENDCHAR
STARTCHAR 00AA
ENCODING 170
SWIDTH 128 0
DWIDTH 10 0
BBX 10 10 0 31
BITMAP
3EC0
73C0
E1C0
C0C0
C0C0
C0C0
C0C0
E1C0
73C0
3EC0
ENDCHAR
STARTCHAR 00AB
ENCODING 171
SWIDTH 565 0
DWIDTH 44 0
BBX 37 32 4 9
BITMAP
0003C00078
00038000F0
00070001E0
000E0003C0
001C000780
0038000F00
0070001E00
00E0003C00
01C0007800
038000F000
070001E000
0E0003C000
1C00078000
38000F0000
70001E0000
E0003C0000
E0003C0000
70001E0000
38000F0000
1C00078000
0E0003C000
070001E000
038000F000
01C0007800
00E0003C00
0070001E00
0038000F00
001C000780
000E0003C0
00070001E0
00038000F0
0001C00078
ENDCHAR
STARTCHAR 00AC
ENCODING 172
SWIDTH 642 0
DWIDTH 50 0
BBX 39 19 6 22
BITMAP
FFFFFFFFFE
FFFFFFFFFE
000000000E
000000000E
000000000E
000000000E
000000000E
000000000E
000000000E
000000000E
000000000E
000000000E
000000000E
000000000E
000000000E
000000000E
000000000E
000000000E
000000000E
ENDCHAR
STARTCHAR 00AD
ENCODING 173
SWIDTH 591 0
DWIDTH 46 0
BBX 29 3 9 23
BITMAP
FFFFFFF8
FFFFFFF8
FFFFFFF8
ENDCHAR
STARTCHAR 00AE
ENCODING 174
SWIDTH 334 0
DWIDTH 26 0
BBX 20 19 3 35
BITMAP
03FE00
0F9F00
1C0180
3800C0
31F860
61FC60
618C30
618430
418C30
C1FC30
41F030
619830
618C60
718C60
3000E0
1801C0
1E0380
07FF00
01FC00
ENDCHAR
STARTCHAR 00AF
ENCODING 175
SWIDTH 334 0
DWIDTH 26 0
BBX 22 2 2 49
BITMAP
FFFFFC
FFFFFC
ENDCHAR
STARTCHAR 00B0
ENCODING 176
SWIDTH 270 0
DWIDTH 21 0
BBX 13 13 4 53
BITMAP
0FC0
3FE0
7070
6038
E018
C018
C018
C018
6018
7030
3DF0
1FC0
0200
ENDCHAR
STARTCHAR 00B1
ENCODING 177
SWIDTH 604 0
DWIDTH 47 0
BBX 29 39 9 0
BITMAP
00070000
00070000
00070000
00070000
00070000
00070000
00070000
00070000
00070000
00070000
00070000
00070000
00070000
FFFFFFF8
FFFFFFF8
FFFFFFF8
00070000
00070000
00070000
00070000
00070000
00070000
00070000
00070000
00070000
00070000
00070000
00070000
00070000
00000000
00000000
00000000
00000000
00000000
00000000
00000000
FFFFFFF8
FFFFFFF8
FFFFFFF8
ENDCHAR
STARTCHAR 00B2
ENCODING 178
SWIDTH 295 0
DWIDTH 23 0
BBX 19 30 2 29
BITMAP
01F800
07FE00
1F1F00
3C0380
3801C0
7001C0
7000C0
6000C0
6000C0
0000C0
0000C0
0001C0
0001C0
000380
000700
000700
000E00
001C00
003800
007000
00E000
01C000
078000
0F0000
1E0000
3C0000
780000
F00000
FFFFE0
FFFFE0
ENDCHAR
STARTCHAR 00B3
ENCODING 179
SWIDTH 295 0
DWIDTH 23 0
BBX 19 30 2 29
BITMAP
01F800
0FFE00
1F0F80
380380
3001C0
7000C0
6000E0
0000E0
0000E0
0000E0
0000E0
0000C0
000380
000F00
01FE00
01FE00
000780
0001C0
0000E0
0000E0
000060
000060
000060
E00060
6000E0
7000C0
3801C0
1E0780
0FFF00
07FC00
ENDCHAR
STARTCHAR 00B4
ENCODING 180
SWIDTH 192 0
DWIDTH 15 0
BBX 10 13 3 49
BITMAP
01C0
03C0
0380
0700
0F00
0E00
1C00
1800
3800
7000
6000
E000
C000
ENDCHAR
STARTCHAR 00B5
ENCODING 181
SWIDTH 630 0
DWIDTH 49 0
BBX 40 57 6 -16
BITMAP
E000000600
E000000600
E000000600
E000000600
E000000600
E000000600
E000000600
E000000600
E000000600
E000000600
E000000600
E000000600
E000000600
E000000600
E000000600
E000000600
E000000600
E000000600
E000000600
E000000600
E000000600
E000000600
E000000600
E000000600
E000000E00
E000000E00
E000000E00
E000000E00
E000000E00
E000001E00
F000001E00
F000003E00
F000003600
F800006600
F80000E600
FC0001C700
FE00038700
EF00070700
E7E03E03C0
E3FFFC01FF
E0FFF000FF
E00F800000
E000000000
E000000000
E000000000
E000000000
E000000000
E000000000
E000000000
E000000000
E000000000
E000000000
E000000000
E000000000
E000000000
E000000000
E000000000
ENDCHAR
STARTCHAR 00B6
ENCODING 182
SWIDTH 501 0
DWIDTH 39 0
BBX 29 54 3 0
BITMAP
00FFFFF8
03FFFFF8
0FFFF818
1FFFF818
3FFFF818
3FFFF818
7FFFF818
7FFFF818
FFFFF818
FFFFF818
FFFFF818
FFFFF818
FFFFF818
FFFFF818
FFFFF818
FFFFF818
FFFFF818
FFFFF818
7FFFF818
7FFFF818
3FFFF818
1FFFF818
0FFFF818
07FFF818
01FFF818
003FF818
00003818
00003818
00003818
00003818
00003818
00003818
00003818
00003818
00003818
00003818
00003818
00003818
00003818
00003818
00003818
00003818
00003818
00003818
00003818
00003818
00003818
00003818
00003818
00003818
00003818
00003818
00003818
00003818
ENDCHAR
STARTCHAR 00B7
ENCODING 183
SWIDTH 244 0
DWIDTH 19 0
BBX 6 6 7 26
BITMAP
30
F8
FC
FC
FC
78
ENDCHAR
STARTCHAR 00B8
ENCODING 184
SWIDTH 231 0
DWIDTH 18 0
BBX 14 19 2 -19
BITMAP
1C00
1800
3800
3000
7000
7000
7FE0
FFF0
0078
001C
001C
001C
001C
001C
0018
0038
00F0
7FE0
7FC0
ENDCHAR
STARTCHAR 00B9
ENCODING 185
SWIDTH 231 0
DWIDTH 18 0
BBX 14 29 2 30
BITMAP
0300
0700
0F00
1F00
3B00
F300
C300
8300
0300
0300
0300
0300
0300
0300
0300
0300
0300
0300
0300
0300
0300
0300
0300
0300
0300
0300
0300
FFFC
FFFC
ENDCHAR
STARTCHAR 00BA
ENCODING 186
SWIDTH 141 0
DWIDTH 11 0
BBX 10 10 1 31
BITMAP
3F00
7380
6180
C0C0
C0C0
C0C0
C0C0
6180
7380
3F00
ENDCHAR
STARTCHAR 00BB
ENCODING 187
SWIDTH 565 0
DWIDTH 44 0
BBX 38 32 3 9
BITMAP
F0001E0000
78000F0000
3C00078000
1E0003C000
0F0001E000
078000F000
03C0007800
01E0003C00
00F0001E00
0078000F00
003C000780
001E0003C0
000F0001E0
00078000F0
0003C00078
0001E0003C
0001E0003C
0003C00078
00078000F0
000F0001E0
001E0003C0
003C000780
0078000F00
00F0001E00
01E0003C00
03C0007800
078000F000
0F0001E000
1E0003C000
3C00078000
78000F0000
F0001E0000
ENDCHAR
STARTCHAR 00BC
ENCODING 188
SWIDTH 771 0
DWIDTH 60 0
BBX 54 54 3 0
BITMAP
07000000007000
0F000000007000
1F00000000E000
3B00000001C000
7300000001C000
E3000000038000
C3000000038000
83000000070000
030000000E0000
030000000E0000
030000001C0000
030000001C0000
03000000380000
03000000700000
03000000700000
03000000E00000
03000000E00000
03000001C00000
03000003800000
03000003800000
03000007000000
03000007000000
0300000E000000
0300001C000000
7FF8001C000000
7FF80038000000
7FF80038000000
000000700001C0
000000E00003C0
000000E00007C0
000001C00006C0
000001C0000CC0
00000380001CC0
000007000018C0
000007000030C0
00000E000070C0
00000E000060C0
00001C0000C0C0
0000380001C0C0
000038000180C0
000070000300C0
000070000700C0
0000E0000E00C0
0001C0000C00C0
0001C0001800C0
000380001FFFFC
000380001FFFFC
000700000000C0
000E00000000C0
000E00000000C0
001C00000000C0
001C00000000C0
003800000000C0
003000000000C0
ENDCHAR
STARTCHAR 00BD
ENCODING 189
SWIDTH 784 0
DWIDTH 61 0
BBX 55 54 3 0
BITMAP
07000000003800
0F000000007800
1F000000007000
3B00000000E000
7300000000E000
E300000001C000
C300000003C000
83000000038000
03000000070000
03000000070000
030000000E0000
030000000E0000
030000001C0000
03000000380000
03000000380000
03000000700000
03000000700000
03000000E00000
03000001C00000
03000001C00000
03000003800000
03000003800000
03000007000000
0300000E000000
7FF8000E000000
7FF8001C000000
7FF8001C000FC0
00000038003FF0
0000007000FFF8
0000007000E03C
000000E001C01C
000000E001800C
000001C003800E
0000038003800E
0000038003800E
0000070000000E
0000070000000C
00000E0000000C
00001C0000001C
00001C00000038
00003800000070
000038000000E0
000070000001C0
0000E0000003C0
0000E000000780
0001C000000F00
0001C000001E00
00038000003C00
00070000007000
0007000000E000
000E000001C000
000E0000038000
001C000003FFFE
0018000003FFFE
ENDCHAR
STARTCHAR 00BE
ENCODING 190
SWIDTH 835 0
DWIDTH 65 0
BBX 58 55 4 0
BITMAP
0180000000000000
0FF80000000E0000
3FFE0000001C0000
780F0000001C0000
7007000000380000
E003800000780000
E003800000700000
0003800000E00000
0003800000E00000
0003800001C00000
0003800003C00000
0007000003800000
000E000007000000
03FC000007000000
03F800000E000000
003E00000E000000
000700001C000000
0003000038000000
0003800038000000
0001800070000000
0001800070000000
00018000E0000000
C0018001C0000000
E0038001C0000000
E007000380000000
780F000380000000
3FFE000700000000
1FFC000E00000000
02C0000E00003C00
0000001C00007C00
0000001C00007C00
000000380000FC00
000000700001DC00
0000007000019C00
000000E000031C00
000000E000071C00
000001C000061C00
00000380000C1C00
00000380001C1C00
0000070000181C00
0000070000301C00
00000E0000701C00
00001C0000601C00
00001C0000C01C00
0000380001C01C00
0000380001801C00
0000700001FFFFC0
0000E00001FFFFC0
0000E00000001C00
0001C00000001C00
0001C00000001C00
0003800000001C00
0007000000001C00
0007000000001C00
000E000000001C00
ENDCHAR
STARTCHAR 00BF
ENCODING 191
SWIDTH 578 0
DWIDTH 45 0
BBX 35 56 5 -19
BITMAP
0000700000
0000F80000
0000F80000
0000F80000
0000F00000
0000200000
0000000000
0000000000
0000000000
0000000000
0000000000
0000000000
0000000000
0000000000
0000700000
0000700000
0000600000
0000E00000
0000E00000
0001C00000
0001C00000
0003800000
0007000000
000E000000
001C000000
0038000000
0070000000
00E0000000
01C0000000
0380000000
0700000000
0E00000000
1C00000000
1C00000000
3800000000
3000000000
7000000000
7000000000
6000000000
6000000000
E0000000E0
E0000000E0
E0000000C0
60000000C0
60000001C0
70000001C0
7000000380
3000000380
3800000700
1C00000F00
1E00001E00
0F00003C00
07C000F800
01FC07F000
00FFFFC000
001FFF0000
ENDCHAR
STARTCHAR 00C0
ENCODING 192
SWIDTH 681 0
DWIDTH 53 0
BBX 45 72 4 0
BITMAP
000700000000
000380000000
0003C0000000
0001C0000000
0000E0000000
0000E0000000
000070000000
000038000000
000038000000
00001C000000
00000C000000
000006000000
000000000000
000000000000
000000000000
000000000000
000000000000
000000000000
000007000000
00000F800000
00000F800000
00000D800000
00001DC00000
00001DC00000
000038E00000
000038E00000
000030600000
000070700000
000070700000
0000E0380000
0000E0380000
0000C0180000
0001C01C0000
0001C01C0000
0003800E0000
0003800E0000
000300060000
000700070000
000700070000
000600038000
000E00038000
000E00018000
001C0001C000
001C0001C000
00180000E000
00380000E000
003800006000
007000007000
007000007000
006000003800
00E000003800
00FFFFFFF800
01FFFFFFFC00
01FFFFFFFC00
018000000E00
038000000E00
038000000600
030000000700
070000000700
070000000380
0E0000000380
0E0000000180
0C00000001C0
1C00000001C0
1C00000000C0
3800000000E0
380000000060
300000000070
700000000070
700000000030
E00000000038
E00000000018
ENDCHAR
STARTCHAR 00C1
ENCODING 193
SWIDTH 681 0
DWIDTH 53 0
BBX 45 72 4 0
BITMAP
000000070000
0000000E0000
0000001E0000
0000001C0000
000000380000
000000380000
000000700000
000000E00000
000000E00000
000001C00000
000001800000
000003800000
000000000000
000000000000
000000000000
000000000000
000000000000
000000000000
000007000000
00000F800000
00000F800000
00000D800000
00001DC00000
00001DC00000
000038E00000
000038E00000
000030600000
000070700000
000070700000
0000E0380000
0000E0380000
0000C0180000
0001C01C0000
0001C01C0000
0003800E0000
0003800E0000
000300060000
000700070000
000700070000
000600038000
000E00038000
000E00018000
001C0001C000
001C0001C000
00180000E000
00380000E000
003800006000
007000007000
007000007000
006000003800
00E000003800
00FFFFFFF800
01FFFFFFFC00
01FFFFFFFC00
018000000E00
038000000E00
038000000600
030000000700
070000000700
070000000380
0E0000000380
0E0000000180
0C00000001C0
1C00000001C0
1C00000000C0
3800000000E0
380000000060
300000000070
700000000070
700000000030
E00000000038
E00000000018
ENDCHAR
STARTCHAR 00C2
ENCODING 194
SWIDTH 681 0
DWIDTH 53 0
BBX 45 70 4 0
BITMAP
00000F800000
00001FC00000
00003DE00000
000078F00000
0000F0780000
0000E03C0000
0001C01C0000
0003800E0000
000700070000
000E00038000
000000000000
000000000000
000000000000
000000000000
000000000000
000000000000
000007000000
00000F800000
00000F800000
00000D800000
00001DC00000
00001DC00000
000038E00000
000038E00000
000030600000
000070700000
000070700000
0000E0380000
0000E0380000
0000C0180000
0001C01C0000
0001C01C0000
0003800E0000
0003800E0000
000300060000
000700070000
000700070000
000600038000
000E00038000
000E00018000
001C0001C000
001C0001C000
00180000E000
00380000E000
003800006000
007000007000
007000007000
006000003800
00E000003800
00FFFFFFF800
01FFFFFFFC00
01FFFFFFFC00
018000000E00
038000000E00
038000000600
030000000700
070000000700
070000000380
0E0000000380
0E0000000180
0C00000001C0
1C00000001C0
1C00000000C0
3800000000E0
380000000060
300000000070
700000000070
700000000030
E00000000038
E00000000018
ENDCHAR
STARTCHAR 00C3
ENCODING 195
SWIDTH 681 0
DWIDTH 53 0
BBX 45 69 4 0
BITMAP
0001F8030000
0003FC030000
00038E070000
000707860000
000703FE0000
000601FC0000
000600700000
000000000000
000000000000
000000000000
000000000000
000000000000
000000000000
000000000000
000000000000
000007000000
00000F800000
00000F800000
00000D800000
00001DC00000
00001DC00000
000038E00000
000038E00000
000030600000
000070700000
000070700000
0000E0380000
0000E0380000
0000C0180000
0001C01C0000
0001C01C0000
0003800E0000
0003800E0000
000300060000
000700070000
000700070000
000600038000
000E00038000
000E00018000
001C0001C000
001C0001C000
00180000E000
00380000E000
003800006000
007000007000
007000007000
006000003800
00E000003800
00FFFFFFF800
01FFFFFFFC00
01FFFFFFFC00
018000000E00
038000000E00
038000000600
030000000700
070000000700
070000000380
0E0000000380
0E0000000180
0C00000001C0
1C00000001C0
1C00000000C0
3800000000E0
380000000060
300000000070
700000000070
700000000030
E00000000038
E00000000018
ENDCHAR
STARTCHAR 00C4
ENCODING 196
SWIDTH 681 0
DWIDTH 53 0
BBX 45 68 4 0
BITMAP
0001E03C0000
0003E07C0000
0003F07E0000
0003F07C0000
0001E03C0000
000000000000
000000000000
000000000000
000000000000
000000000000
000000000000
000000000000
000000000000
000000000000
000007000000
00000F800000
00000F800000
00000D800000
00001DC00000
00001DC00000
000038E00000
000038E00000
000030600000
000070700000
000070700000
0000E0380000
0000E0380000
0000C0180000
0001C01C0000
0001C01C0000
0003800E0000
0003800E0000
000300060000
000700070000
000700070000
000600038000
000E00038000
000E00018000
001C0001C000
001C0001C000
00180000E000
00380000E000
003800006000
007000007000
007000007000
006000003800
00E000003800
00FFFFFFF800
01FFFFFFFC00
01FFFFFFFC00
018000000E00
038000000E00
038000000600
030000000700
070000000700
070000000380
0E0000000380
0E0000000180
0C00000001C0
1C00000001C0
1C00000000C0
3800000000E0
380000000060
300000000070
700000000070
700000000030
E00000000038
E00000000018
ENDCHAR
STARTCHAR 00C5
ENCODING 197
SWIDTH 681 0
DWIDTH 53 0
BBX 45 74 4 0
BITMAP
00000F800000
00001FC00000
000030600000
000060300000
000060300000
000040100000
000040100000
000060300000
000060300000
000030600000
00001FC00000
000007800000
000000000000
000000000000
000000000000
000000000000
000000000000
000000000000
000000000000
000000000000
000007000000
00000F800000
00000F800000
00000D800000
00001DC00000
00001DC00000
000038E00000
000038E00000
000030600000
000070700000
000070700000
0000E0380000
0000E0380000
0000C0180000
0001C01C0000
0001C01C0000
0003800E0000
0003800E0000
000300060000
000700070000
000700070000
000600038000
000E00038000
000E00018000
001C0001C000
001C0001C000
00180000E000
00380000E000
003800006000
007000007000
007000007000
006000003800
00E000003800
00FFFFFFF800
01FFFFFFFC00
01FFFFFFFC00
018000000E00
038000000E00
038000000600
030000000700
070000000700
070000000380
0E0000000380
0E0000000180
0C00000001C0
1C00000001C0
1C00000000C0
3800000000E0
380000000060
300000000070
700000000070
700000000030
E00000000038
E00000000018
ENDCHAR
STARTCHAR 00C6
ENCODING 198
SWIDTH 938 0
DWIDTH 73 0
BBX 64 54 3 0
BITMAP
00000003FFFFFFFF
00000003FFFFFFFF
0000000770000000
0000000770000000
0000000E70000000
0000001E70000000
0000001C70000000
0000003C70000000
0000003870000000
0000007070000000
0000007070000000
000000E070000000
000001E070000000
000001C070000000
0000038070000000
0000038070000000
0000070070000000
0000070070000000
00000E0070000000
00001E0070000000
00001C0070000000
0000380070000000
0000380070000000
0000700070000000
0000700070000000
0000E0007FFFFFFC
0001E0007FFFFFFC
0001C00070000000
0003800070000000
0003800070000000
0007000070000000
0007000070000000
000E000070000000
001FFFFFF0000000
001FFFFFF0000000
003FFFFFF0000000
0038000070000000
0070000070000000
0060000070000000
00E0000070000000
01C0000070000000
01C0000070000000
0380000070000000
0380000070000000
0700000070000000
0600000070000000
0E00000070000000
1C00000070000000
1C00000070000000
3800000070000000
3000000070000000
700000007FFFFFFF
600000007FFFFFFF
E00000007FFFFFFF
ENDCHAR
STARTCHAR 00C7
ENCODING 199
SWIDTH 720 0
DWIDTH 56 0
BBX 47 75 5 -19
BITMAP
000001C00000
00007FFF0000
0003FFFFE000
000FF007F800
003F0000FC00
007C00001F00
00F000000F80
01E0000003C0
03C0000001C0
0780000000E0
070000000070
0E0000000078
0E0000000038
1C000000003C
1C000000001C
38000000001C
38000000000E
38000000000E
700000000006
700000000000
700000000000
700000000000
700000000000
E00000000000
E00000000000
E00000000000
E00000000000
E00000000000
E00000000000
E00000000000
E00000000000
E00000000000
E00000000000
E00000000000
700000000000
700000000000
700000000000
700000000000
700000000000
380000000000
38000000000E
3C000000001C
1C000000001C
1C0000000038
0E0000000038
0F0000000070
0700000000F0
0380000001E0
03C0000003C0
01E000000780
00F800000F00
007C00003E00
001F8000FC00
000FFE1FF000
0003FFFFC000
00007FFE0000
000000600000
000000E00000
000000C00000
000001C00000
000001C00000
000001FF0000
000003FFC000
0000000FC000
00000000E000
000000006000
000000007000
000000007000
000000007000
000000006000
00000000E000
00000001C000
000001FF8000
000001FF0000
000001FC0000
ENDCHAR
STARTCHAR 00C8
ENCODING 200
SWIDTH 565 0
DWIDTH 44 0
BBX 31 72 7 0
BITMAP
03C00000
01C00000
00E00000
00E00000
00700000
00380000
00380000
001C0000
000C0000
000E0000
00060000
00030000
00000000
00000000
00000000
00000000
00000000
00000000
FFFFFFFE
FFFFFFFE
E0000000
E0000000
E0000000
E0000000
E0000000
E0000000
E0000000
E0000000
E0000000
E0000000
E0000000
E0000000
E0000000
E0000000
E0000000
E0000000
E0000000
E0000000
E0000000
E0000000
E0000000
E0000000
E0000000
FFFFFFF8
FFFFFFF8
E0000000
E0000000
E0000000
E0000000
E0000000
E0000000
E0000000
E0000000
E0000000
E0000000
E0000000
E0000000
E0000000
E0000000
E0000000
E0000000
E0000000
E0000000
E0000000
E0000000
E0000000
E0000000
E0000000
E0000000
FFFFFFFE
FFFFFFFE
FFFFFFFE
ENDCHAR
STARTCHAR 00C9
ENCODING 201
SWIDTH 565 0
DWIDTH 44 0
BBX 31 72 7 0
BITMAP
00000380
00000780
00000700
00000E00
00001E00
00001C00
00003800
00003000
00007000
0000E000
0000C000
0001C000
00000000
00000000
00000000
00000000
00000000
00000000
FFFFFFFE
FFFFFFFE
E0000000
E0000000
E0000000
E0000000
E0000000
E0000000
E0000000
E0000000
E0000000
E0000000
E0000000
E0000000
E0000000
E0000000
E0000000
E0000000
E0000000
E0000000
E0000000
E0000000
E0000000
E0000000
E0000000
FFFFFFF8
FFFFFFF8
E0000000
E0000000
E0000000
E0000000
E0000000
E0000000
E0000000
E0000000
E0000000
E0000000
E0000000
E0000000
E0000000
E0000000
E0000000
E0000000
E0000000
E0000000
E0000000
E0000000
E0000000
E0000000
E0000000
E0000000
FFFFFFFE
FFFFFFFE
FFFFFFFE
ENDCHAR
STARTCHAR 00CA
ENCODING 202
SWIDTH 565 0
DWIDTH 44 0
BBX 31 70 7 0
BITMAP
0007C000
000FE000
001EF000
001C7800
00383C00
00701E00
00E00F00
01C00780
03C00380
078001C0
00000000
00000000
00000000
00000000
00000000
00000000
FFFFFFFE
FFFFFFFE
E0000000
E0000000
E0000000
E0000000
E0000000
E0000000
E0000000
E0000000
E0000000
E0000000
E0000000
E0000000
E0000000
E0000000
E0000000
E0000000
E0000000
E0000000
E0000000
E0000000
E0000000
E0000000
E0000000
FFFFFFF8
FFFFFFF8
E0000000
E0000000
E0000000
E0000000
E0000000
E0000000
E0000000
E0000000
E0000000
E0000000
E0000000
E0000000
E0000000
E0000000
E0000000
E0000000
E0000000
E0000000
E0000000
E0000000
E0000000
E0000000
E0000000
E0000000
FFFFFFFE
FFFFFFFE
FFFFFFFE
ENDCHAR
STARTCHAR 00CB
ENCODING 203
SWIDTH 565 0
DWIDTH 44 0
BBX 31 68 7 0
BITMAP
00F01E00
00F83E00
01F83F00
00F83F00
00F01E00
00000000
00000000
00000000
00000000
00000000
00000000
00000000
00000000
00000000
FFFFFFFE
FFFFFFFE
E0000000
E0000000
E0000000
E0000000
E0000000
E0000000
E0000000
E0000000
E0000000
E0000000
E0000000
E0000000
E0000000
E0000000
E0000000
E0000000
E0000000
E0000000
E0000000
E0000000
E0000000
E0000000
E0000000
FFFFFFF8
FFFFFFF8
E0000000
E0000000
E0000000
E0000000
E0000000
E0000000
E0000000
E0000000
E0000000
E0000000
E0000000
E0000000
E0000000
E0000000
E0000000
E0000000
E0000000
E0000000
E0000000
E0000000
E0000000
E0000000
E0000000
E0000000
FFFFFFFE
FFFFFFFE
FFFFFFFE
ENDCHAR
STARTCHAR 00CC
ENCODING 204
SWIDTH 218 0
DWIDTH 17 0
BBX 11 72 -1 0
BITMAP
E000
7000
7800
3800
1C00
1C00
0E00
0700
0700
0380
0180
00C0
0000
0000
0000
0000
0000
0000
00E0
00E0
00E0
00E0
00E0
00E0
00E0
00E0
00E0
00E0
00E0
00E0
00E0
00E0
00E0
00E0
00E0
00E0
00E0
00E0
00E0
00E0
00E0
00E0
00E0
00E0
00E0
00E0
00E0
00E0
00E0
00E0
00E0
00E0
00E0
00E0
00E0
00E0
00E0
00E0
00E0
00E0
00E0
00E0
00E0
00E0
00E0
00E0
00E0
00E0
00E0
00E0
00E0
00E0
ENDCHAR
STARTCHAR 00CD
ENCODING 205
SWIDTH 218 0
DWIDTH 17 0
BBX 11 72 7 0
BITMAP
00E0
01C0
03C0
0380
0700
0700
0E00
0C00
1C00
3800
3000
7000
0000
0000
0000
0000
0000
0000
E000
E000
E000
E000
E000
E000
E000
E000
E000
E000
E000
E000
E000
E000
E000
E000
E000
E000
E000
E000
E000
E000
E000
E000
E000
E000
E000
E000
E000
E000
E000
E000
E000
E000
E000
E000
E000
E000
E000
E000
E000
E000
E000
E000
E000
E000
E000
E000
E000
E000
E000
E000
E000
E000
ENDCHAR
STARTCHAR 00CE
ENCODING 206
SWIDTH 218 0
DWIDTH 17 0
BBX 21 70 -2 0
BITMAP
00F800
01FC00
03DE00
078F00
0F0780
0E03C0
1C01C0
3800E0
700070
F00038
000000
000000
000000
000000
000000
000000
007000
007000
007000
007000
007000
007000
007000
007000
007000
007000
007000
007000
007000
007000
007000
007000
007000
007000
007000
007000
007000
007000
007000
007000
007000
007000
007000
007000
007000
007000
007000
007000
007000
007000
007000
007000
007000
007000
007000
007000
007000
007000
007000
007000
007000
007000
007000
007000
007000
007000
007000
007000
007000
007000
ENDCHAR
STARTCHAR 00CF
ENCODING 207
SWIDTH 218 0
DWIDTH 17 0
BBX 17 68 0 0
BITMAP
780F00
FC1F00
FC1F80
FC1F00
780F00
000000
000000
000000
000000
000000
000000
000000
000000
000000
01C000
01C000
01C000
01C000
01C000
01C000
01C000
01C000
01C000
01C000
01C000
01C000
01C000
01C000
01C000
01C000
01C000
01C000
01C000
01C000
01C000
01C000
01C000
01C000
01C000
01C000
01C000
01C000
01C000
01C000
01C000
01C000
01C000
01C000
01C000
01C000
01C000
01C000
01C000
01C000
01C000
01C000
01C000
01C000
01C000
01C000
01C000
01C000
01C000
01C000
01C000
01C000
01C000
01C000
ENDCHAR
STARTCHAR 00D0
ENCODING 208
SWIDTH 720 0
DWIDTH 56 0
BBX 48 54 4 0
BITMAP
07FFFFF80000
07FFFFFF0000
0700007FE000
07000001F800
070000003C00
070000001F00
070000000780
0700000003C0
0700000001C0
0700000000E0
070000000070
070000000038
070000000038
07000000001C
07000000001C
07000000000C
07000000000E
07000000000E
070000000006
070000000006
070000000007
070000000007
070000000007
070000000007
070000000007
FFFFF8000003
FFFFF8000003
070000000003
070000000007
070000000007
070000000007
070000000007
070000000007
070000000007
070000000006
070000000006
07000000000E
07000000000E
07000000000C
07000000001C
070000000018
070000000038
070000000030
070000000070
0700000000E0
0700000001C0
070000000380
070000000F00
070000001E00
070000007C00
07000003F000
07000FFFC000
07FFFFFF0000
07FFFFF00000
ENDCHAR
STARTCHAR 00D1
ENCODING 209
SWIDTH 720 0
DWIDTH 56 0
BBX 42 69 7 0
BITMAP
0003F00E0000
0007F80E0000
000E3C0C0000
000C0E1C0000
000C07FC0000
001C03F80000
001C00E00000
000000000000
000000000000
000000000000
000000000000
000000000000
000000000000
000000000000
000000000000
F000000001C0
F000000001C0
F800000001C0
FC00000001C0
FC00000001C0
EE00000001C0
E700000001C0
E780000001C0
E380000001C0
E1C0000001C0
E0E0000001C0
E0F0000001C0
E070000001C0
E038000001C0
E03C000001C0
E01C000001C0
E00E000001C0
E007000001C0
E007800001C0
E003800001C0
E001C00001C0
E000E00001C0
E000F00001C0
E000700001C0
E000380001C0
E0003C0001C0
E0001C0001C0
E0000E0001C0
E000070001C0
E000078001C0
E000038001C0
E00001C001C0
E00000E001C0
E00000F001C0
E000007001C0
E000003801C0
E000003C01C0
E000001C01C0
E000000E01C0
E000000701C0
E000000781C0
E000000381C0
E0000001C1C0
E0000000E1C0
E0000000F1C0
E000000071C0
E000000039C0
E00000003DC0
E00000001DC0
E00000000FC0
E000000007C0
E000000007C0
E000000003C0
E000000001C0
ENDCHAR
STARTCHAR 00D2
ENCODING 210
SWIDTH 732 0
DWIDTH 57 0
BBX 48 72 5 0
BITMAP
0003C0000000
0001E0000000
0000E0000000
000070000000
000070000000
000038000000
000018000000
00001C000000
00000E000000
000006000000
000007000000
000003000000
000000000000
000000000000
000000000000
000000000000
000003E00000
0000FFFF0000
0003FFFFC000
000FE007F000
003F0000FC00
007C00003E00
00F000000F00
01E000000780
03C0000003C0
0780000001E0
0F00000000F0
0E0000000070
1C0000000078
1C0000000038
38000000001C
38000000001C
30000000001C
70000000000E
70000000000E
70000000000E
600000000006
E00000000007
E00000000007
E00000000007
E00000000007
E00000000007
E00000000007
C00000000007
C00000000007
C00000000007
E00000000007
E00000000007
E00000000007
E00000000007
E00000000007
E00000000007
600000000006
70000000000E
70000000000E
70000000000E
38000000001C
38000000001C
38000000003C
1C0000000038
1E0000000078
0E0000000070
0700000000E0
0780000001E0
03C0000003C0
01E000000780
00F800001F00
007C00003E00
003F8001F800
000FF81FF000
0003FFFFC000
00007FFE0000
ENDCHAR
STARTCHAR 00D3
ENCODING 211
SWIDTH 732 0
DWIDTH 57 0
BBX 48 72 5 0
BITMAP
00000003C000
000000078000
000000070000
0000000F0000
0000000E0000
0000001C0000
000000180000
000000380000
000000700000
000000600000
000000E00000
000000C00000
000000000000
000000000000
000000000000
000000000000
000003E00000
0000FFFF0000
0003FFFFC000
000FE007F000
003F0000FC00
007C00003E00
00F000000F00
01E000000780
03C0000003C0
0780000001E0
0F00000000F0
0E0000000070
1C0000000078
1C0000000038
38000000001C
38000000001C
30000000001C
70000000000E
70000000000E
70000000000E
600000000006
E00000000007
E00000000007
E00000000007
E00000000007
E00000000007
E00000000007
C00000000007
C00000000007
C00000000007
E00000000007
E00000000007
E00000000007
E00000000007
E00000000007
E00000000007
600000000006
70000000000E
70000000000E
70000000000E
38000000001C
38000000001C
38000000003C
1C0000000038
1E0000000078
0E0000000070
0700000000E0
0780000001E0
03C0000003C0
01E000000780
00F800001F00
007C00003E00
003F8001F800
000FF81FF000
0003FFFFC000
00007FFE0000
ENDCHAR
STARTCHAR 00D4
ENCODING 212
SWIDTH 732 0
DWIDTH 57 0
BBX 48 70 5 0
BITMAP
000003C00000
000007E00000
00000E700000
00001C380000
00003C1C0000
0000781E0000
0000F00F0000
0001E0078000
0003C003C000
00078001E000
000000000000
000000000000
000000000000
000000000000
000003E00000
0000FFFF0000
0003FFFFC000
000FE007F000
003F0000FC00
007C00003E00
00F000000F00
01E000000780
03C0000003C0
0780000001E0
0F00000000F0
0E0000000070
1C0000000078
1C0000000038
38000000001C
38000000001C
30000000001C
70000000000E
70000000000E
70000000000E
600000000006
E00000000007
E00000000007
E00000000007
E00000000007
E00000000007
E00000000007
C00000000007
C00000000007
C00000000007
E00000000007
E00000000007
E00000000007
E00000000007
E00000000007
E00000000007
600000000006
70000000000E
70000000000E
70000000000E
38000000001C
38000000001C
38000000003C
1C0000000038
1E0000000078
0E0000000070
0700000000E0
0780000001E0
03C0000003C0
01E000000780
00F800001F00
007C00003E00
003F8001F800
000FF81FF000
0003FFFFC000
00007FFE0000
ENDCHAR
STARTCHAR 00D5
ENCODING 213
SWIDTH 732 0
DWIDTH 57 0
BBX 48 69 5 0
BITMAP
00007E01C000
0000FF01C000
0001C7818000
000181C38000
000380FF0000
0003807F0000
0003801C0000
000000000000
000000000000
000000000000
000000000000
000000000000
000000000000
000003E00000
0000FFFF0000
0003FFFFC000
000FE007F000
003F0000FC00
007C00003E00
00F000000F00
01E000000780
03C0000003C0
0780000001E0
0F00000000F0
0E0000000070
1C0000000078
1C0000000038
38000000001C
38000000001C
30000000001C
70000000000E
70000000000E
70000000000E
600000000006
E00000000007
E00000000007
E00000000007
E00000000007
E00000000007
E00000000007
C00000000007
C00000000007
C00000000007
E00000000007
E00000000007
E00000000007
E00000000007
E00000000007
E00000000007
600000000006
70000000000E
70000000000E
70000000000E
38000000001C
38000000001C
38000000003C
1C0000000038
1E0000000078
0E0000000070
0700000000E0
0780000001E0
03C0000003C0
01E000000780
00F800001F00
007C00003E00
003F8001F800
000FF81FF000
0003FFFFC000
00007FFE0000
ENDCHAR
STARTCHAR 00D6
ENCODING 214
SWIDTH 732 0
DWIDTH 57 0
BBX 48 68 5 0
BITMAP
0000701E0000
0000F81F0000
0000F83F0000
0000F81F0000
0000F01E0000
000000000000
000000000000
000000000000
000000000000
000000000000
000000000000
000000000000
000003E00000
0000FFFF0000
0003FFFFC000
000FE007F000
003F0000FC00
007C00003E00
00F000000F00
01E000000780
03C0000003C0
0780000001E0
0F00000000F0
0E0000000070
1C0000000078
1C0000000038
38000000001C
38000000001C
30000000001C
70000000000E
70000000000E
70000000000E
600000000006
E00000000007
E00000000007
E00000000007
E00000000007
E00000000007
E00000000007
C00000000007
C00000000007
C00000000007
E00000000007
E00000000007
E00000000007
E00000000007
E00000000007
E00000000007
600000000006
70000000000E
70000000000E
70000000000E
38000000001C
38000000001C
38000000003C
1C0000000038
1E0000000078
0E0000000070
0700000000E0
0780000001E0
03C0000003C0
01E000000780
00F800001F00
007C00003E00
003F8001F800
000FF81FF000
0003FFFFC000
00007FFE0000
ENDCHAR
STARTCHAR 00D7
ENCODING 215
SWIDTH 514 0
DWIDTH 40 0
BBX 22 22 9 13
BITMAP
600008
F0001C
780038
3C0070
1E00E0
0F01C0
078380
03C700
01EE00
00FC00
007800
007C00
00FE00
01CF00
038780
0703C0
0E01E0
1C00F0
380078
70003C
60001C
000008
ENDCHAR
STARTCHAR 00D8
ENCODING 216
SWIDTH 732 0
DWIDTH 57 0
BBX 48 61 5 -3
BITMAP
000000000038
000000000070
000007C00070
0000FFFF00E0
0003FFFFC1C0
000FE007F1C0
003F0000FF80
007C00003F00
00F000000F00
01E000000F80
03C000000FC0
078000001DE0
0F00000038E0
0E0000003070
1C0000007078
1C000000E038
38000000E01C
38000001C01C
70000003801C
70000003800E
70000007000E
6000000E000E
E000000E0006
E000001C0007
E00000180007
E00000380007
E00000700007
C00000700007
C00000E00007
C00001C00007
C00001C00007
C00003800007
C00007000007
E00007000007
E0000E000007
E0001C000007
E0001C000007
E00038000006
E0003000000E
70007000000E
7000E000000E
7000E000000E
3801C000001C
38038000001C
380380000038
1C0700000038
1E0E00000070
0E0E00000070
0F1C000000E0
07B8000001E0
03F8000003C0
01F000000780
00F000001F00
00FC00003E00
01FF8001F800
01CFF81FF000
0383FFFFC000
07007FFE0000
070000000000
0E0000000000
1C0000000000
ENDCHAR
STARTCHAR 00D9
ENCODING 217
SWIDTH 681 0
DWIDTH 53 0
BBX 41 73 6 -1
BITMAP
001E00000000
000E00000000
000F00000000
000700000000
000380000000
0001C0000000
0001C0000000
0000E0000000
000060000000
000070000000
000030000000
000018000000
000000000000
000000000000
000000000000
000000000000
000000000000
000000000000
C00000000180
C00000000180
C00000000180
C00000000180
C00000000180
C00000000180
C00000000180
C00000000180
C00000000180
C00000000180
C00000000180
C00000000180
C00000000180
C00000000180
C00000000180
C00000000180
C00000000180
C00000000180
C00000000180
C00000000180
C00000000180
C00000000180
C00000000180
C00000000180
C00000000180
C00000000180
C00000000180
C00000000180
C00000000180
C00000000180
C00000000180
C00000000180
C00000000180
E00000000380
E00000000380
E00000000380
E00000000380
E00000000380
600000000300
700000000700
700000000700
700000000700
380000000E00
380000000E00
1C0000001C00
1C0000001C00
0E0000003800
0F0000003800
078000007000
03C00001E000
01F00007C000
00FE003F8000
003FFFFE0000
000FFFF80000
00003E000000
ENDCHAR
STARTCHAR 00DA
ENCODING 218
SWIDTH 681 0
DWIDTH 53 0
BBX 41 73 6 -1
BITMAP
0000001C0000
0000003C0000
000000380000
000000700000
000000E00000
000000E00000
000001C00000
000001800000
000003800000
000007000000
000006000000
00000E000000
000000000000
000000000000
000000000000
000000000000
000000000000
000000000000
C00000000180
C00000000180
C00000000180
C00000000180
C00000000180
C00000000180
C00000000180
C00000000180
C00000000180
C00000000180
C00000000180
C00000000180
C00000000180
C00000000180
C00000000180
C00000000180
C00000000180
C00000000180
C00000000180
C00000000180
C00000000180
C00000000180
C00000000180
C00000000180
C00000000180
C00000000180
C00000000180
C00000000180
C00000000180
C00000000180
C00000000180
C00000000180
C00000000180
E00000000380
E00000000380
E00000000380
E00000000380
E00000000380
600000000300
700000000700
700000000700
700000000700
380000000E00
380000000E00
1C0000001C00
1C0000001C00
0E0000003800
0F0000003800
078000007000
03C00001E000
01F00007C000
00FE003F8000
003FFFFE0000
000FFFF80000
00003E000000
ENDCHAR
STARTCHAR 00DB
ENCODING 219
SWIDTH 681 0
DWIDTH 53 0
BBX 41 71 6 -1
BITMAP
00003E000000
00007F000000
0000F7800000
0001E3C00000
0001C1E00000
000380F00000
000700780000
000E00380000
001E001C0000
003C000E0000
000000000000
000000000000
000000000000
000000000000
000000000000
000000000000
C00000000180
C00000000180
C00000000180
C00000000180
C00000000180
C00000000180
C00000000180
C00000000180
C00000000180
C00000000180
C00000000180
C00000000180
C00000000180
C00000000180
C00000000180
C00000000180
C00000000180
C00000000180
C00000000180
C00000000180
C00000000180
C00000000180
C00000000180
C00000000180
C00000000180
C00000000180
C00000000180
C00000000180
C00000000180
C00000000180
C00000000180
C00000000180
C00000000180
E00000000380
E00000000380
E00000000380
E00000000380
E00000000380
600000000300
700000000700
700000000700
700000000700
380000000E00
380000000E00
1C0000001C00
1C0000001C00
0E0000003800
0F0000003800
078000007000
03C00001E000
01F00007C000
00FE003F8000
003FFFFE0000
000FFFF80000
00003E000000
ENDCHAR
STARTCHAR 00DC
ENCODING 220
SWIDTH 681 0
DWIDTH 53 0
BBX 41 69 6 -1
BITMAP
000780F00000
0007C1F00000
000FC1F80000
000FC1F80000
000780F00000
000000000000
000000000000
000000000000
000000000000
000000000000
000000000000
000000000000
000000000000
000000000000
C00000000180
C00000000180
C00000000180
C00000000180
C00000000180
C00000000180
C00000000180
C00000000180
C00000000180
C00000000180
C00000000180
C00000000180
C00000000180
C00000000180
C00000000180
C00000000180
C00000000180
C00000000180
C00000000180
C00000000180
C00000000180
C00000000180
C00000000180
C00000000180
C00000000180
C00000000180
C00000000180
C00000000180
C00000000180
C00000000180
C00000000180
C00000000180
C00000000180
E00000000380
E00000000380
E00000000380
E00000000380
E00000000380
600000000300
700000000700
700000000700
700000000700
380000000E00
380000000E00
1C0000001C00
1C0000001C00
0E0000003800
0F0000003800
078000007000
03C00001E000
01F00007C000
00FE003F8000
003FFFFE0000
000FFFF80000
00003E000000
ENDCHAR
STARTCHAR 00DD
ENCODING 221
SWIDTH 578 0
DWIDTH 45 0
BBX 37 72 4 0
BITMAP
000000F000
000000E000
000001E000
000001C000
0000038000
0000038000
0000070000
00000E0000
00000C0000
00001C0000
0000180000
0000300000
0000000000
0000000000
0000000000
0000000000
0000000000
0000000000
E000000078
F000000070
70000000F0
78000000E0
38000001E0
3C000001C0
1C000003C0
1E00000380
0E00000780
0700000700
0700000F00
0380000E00
0380001E00
01C0001C00
01C0003C00
00E0003800
00E0007000
0070007000
007000E000
003800E000
003C01C000
001C01C000
001E038000
000E038000
000F070000
0007070000
00078E0000
00038E0000
0003DC0000
0001FC0000
0001F80000
0000F80000
0000F00000
0000700000
0000700000
0000700000
0000700000
0000700000
0000700000
0000700000
0000700000
0000700000
0000700000
0000700000
0000700000
0000700000
0000700000
0000700000
0000700000
0000700000
0000700000
0000700000
0000700000
0000700000
ENDCHAR
STARTCHAR 00DE
ENCODING 222
SWIDTH 578 0
DWIDTH 45 0
BBX 35 54 7 0
BITMAP
E000000000
E000000000
E000000000
E000000000
E000000000
E000000000
E000000000
E000000000
E000000000
E000000000
FFFFFF0000
FFFFFFC000
E0001FF000
E00000F800
E000003E00
E000000E00
E000000700
E000000380
E000000180
E0000001C0
E0000000C0
E0000000C0
E0000000E0
E0000000E0
E0000000E0
E000000060
E000000060
E000000060
E000000060
E0000000E0
E0000000E0
E0000000E0
E0000000C0
E0000001C0
E0000001C0
E000000380
E000000380
E000000700
E000001E00
E000007C00
E00003F800
FFFFFFE000
FFFFFF8000
FFFFFC0000
E000000000
E000000000
E000000000
E000000000
E000000000
E000000000
E000000000
E000000000
E000000000
E000000000
ENDCHAR
STARTCHAR 00DF
ENCODING 223
SWIDTH 540 0
DWIDTH 42 0
BBX 31 57 7 -1
BITMAP
000F0000
00FFF800
03FFFE00
07E03F80
0F0007C0
1E0001C0
3C0000E0
38000070
70000070
70000030
70000038
60000038
E0000038
E0000038
E0000018
E0000038
E0000038
E0000038
E0000038
E0000030
E0000070
E0000060
E00000E0
E00003C0
E0000780
E0003F00
E0FFFC00
E0FFF000
E0FFFE00
E0001F80
E00003C0
E00001E0
E0000070
E0000038
E0000038
E000001C
E000001C
E000000C
E000000C
E000000C
E000000E
E000000E
E000000E
E000000C
E000000C
E000001C
E000001C
E0000018
E0000038
E0000070
E00000F0
E00001E0
E00007C0
E0003F80
E03FFE00
E03FF800
00070000
ENDCHAR
STARTCHAR 00E0
ENCODING 224
SWIDTH 617 0
DWIDTH 48 0
BBX 36 59 5 0
BITMAP
0070000000
0078000000
0038000000
001C000000
001E000000
000E000000
0007000000
0003000000
0003800000
0001C00000
0000C00000
0000E00000
0000600000
0000000000
0000000000
0000000000
0000000000
0007FE0000
003FFF8030
00FFFFE030
01F001F030
03C0007830
0780001C30
0E00000E30
1E00000730
1C00000330
38000003B0
38000001F0
70000000F0
70000000F0
60000000F0
E000000070
E000000070
E000000070
E000000070
C000000070
C000000070
C000000070
C000000070
C000000070
C000000070
E000000070
E000000070
E000000070
E000000070
E0000000F0
70000000F0
70000000F0
38000001F0
38000001B0
3C000003B0
1C00000730
0E00000E30
0700001C30
07C0003830
01F000F030
00FF9FE030
007FFFC030
000FFE0030
ENDCHAR
STARTCHAR 00E1
ENCODING 225
SWIDTH 617 0
DWIDTH 48 0
BBX 36 59 5 0
BITMAP
0000007800
0000007000
000000E000
000001E000
000001C000
0000038000
0000038000
0000070000
00000E0000
00000E0000
00001C0000
0000180000
0000300000
0000000000
0000000000
0000000000
0000000000
0007FE0000
003FFF8030
00FFFFE030
01F001F030
03C0007830
0780001C30
0E00000E30
1E00000730
1C00000330
38000003B0
38000001F0
70000000F0
70000000F0
60000000F0
E000000070
E000000070
E000000070
E000000070
C000000070
C000000070
C000000070
C000000070
C000000070
C000000070
E000000070
E000000070
E000000070
E000000070
E0000000F0
70000000F0
70000000F0
38000001F0
38000001B0
3C000003B0
1C00000730
0E00000E30
0700001C30
07C0003830
01F000F030
00FF9FE030
007FFFC030
000FFE0030
ENDCHAR
STARTCHAR 00E2
ENCODING 226
SWIDTH 617 0
DWIDTH 48 0
BBX 36 57 5 0
BITMAP
0000780000
0000FC0000
0001FC0000
0003CE0000
0007870000
000F038000
001E03C000
003C01E000
003800F000
0070007800
00E0003C00
0000000000
0000000000
0000000000
0000000000
0007FE0000
003FFF8030
00FFFFE030
01F001F030
03C0007830
0780001C30
0E00000E30
1E00000730
1C00000330
38000003B0
38000001F0
70000000F0
70000000F0
60000000F0
E000000070
E000000070
E000000070
E000000070
C000000070
C000000070
C000000070
C000000070
C000000070
C000000070
E000000070
E000000070
E000000070
E000000070
E0000000F0
70000000F0
70000000F0
38000001F0
38000001B0
3C000003B0
1C00000730
0E00000E30
0700001C30
07C0003830
01F000F030
00FF9FE030
007FFFC030
000FFE0030
ENDCHAR
STARTCHAR 00E3
ENCODING 227
SWIDTH 617 0
DWIDTH 48 0
BBX 36 56 5 0
BITMAP
0007003800
001FC03000
003FE03000
0038707000
0070387000
00701FE000
00700FC000
0000000000
0000000000
0000000000
0000000000
0000000000
0000000000
0000000000
0007FE0000
003FFF8030
00FFFFE030
01F001F030
03C0007830
0780001C30
0E00000E30
1E00000730
1C00000330
38000003B0
38000001F0
70000000F0
70000000F0
60000000F0
E000000070
E000000070
E000000070
E000000070
C000000070
C000000070
C000000070
C000000070
C000000070
C000000070
E000000070
E000000070
E000000070
E000000070
E0000000F0
70000000F0
70000000F0
38000001F0
38000001B0
3C000003B0
1C00000730
0E00000E30
0700001C30
07C0003830
01F000F030
00FF9FE030
007FFFC030
000FFE0030
ENDCHAR
STARTCHAR 00E4
ENCODING 228
SWIDTH 617 0
DWIDTH 48 0
BBX 36 55 5 0
BITMAP
0004018000
001E03C000
003F07E000
003F07E000
001F03C000
000E03C000
0000000000
0000000000
0000000000
0000000000
0000000000
0000000000
0000000000
0007FE0000
003FFF8030
00FFFFE030
01F001F030
03C0007830
0780001C30
0E00000E30
1E00000730
1C00000330
38000003B0
38000001F0
70000000F0
70000000F0
60000000F0
E000000070
E000000070
E000000070
E000000070
C000000070
C000000070
C000000070
C000000070
C000000070
C000000070
E000000070
E000000070
E000000070
E000000070
E0000000F0
70000000F0
70000000F0
38000001F0
38000001B0
3C000003B0
1C00000730
0E00000E30
0700001C30
07C0003830
01F000F030
00FF9FE030
007FFFC030
000FFE0030
ENDCHAR
STARTCHAR 00E5
ENCODING 229
SWIDTH 617 0
DWIDTH 48 0
BBX 36 60 5 0
BITMAP
0000FC0000
0003FE0000
0003070000
0006030000
0006010000
0006018000
0006010000
0006030000
0003030000
0003CE0000
0001FC0000
0000000000
0000000000
0000000000
0000000000
0000000000
0000000000
0000000000
0007FE0000
003FFF8030
00FFFFE030
01F001F030
03C0007830
0780001C30
0E00000E30
1E00000730
1C00000330
38000003B0
38000001F0
70000000F0
70000000F0
60000000F0
E000000070
E000000070
E000000070
E000000070
C000000070
C000000070
C000000070
C000000070
C000000070
C000000070
E000000070
E000000070
E000000070
E000000070
E0000000F0
70000000F0
70000000F0
38000001F0
38000001B0
3C000003B0
1C00000730
0E00000E30
0700001C30
07C0003830
01F000F030
00FF9FE030
007FFFC030
000FFE0030
ENDCHAR
STARTCHAR 00E6
ENCODING 230
SWIDTH 964 0
DWIDTH 75 0
BBX 66 42 5 0
BITMAP
0007F000001FFC0000
007FFE0000FFFF0000
01FFFF8001FFFFC000
03E007C007E003E000
0F0001F00F0000F000
1E0000701E00007800
1C0000383C00003C00
3800001C3800001C00
7800001C7000000E00
7000000EE000000700
7000000EE000000700
E0000006C000000700
00000007C000000380
000000078000000380
000000078000000380
000000078000000380
000000078000000180
000000078000000180
0000000700000001C0
0000000700000001C0
00FFFFFFFFFFFFFFC0
07FFFFFFFFFFFFFFC0
0FC000070000000000
3E0000070000000000
780000070000000000
700000070000000000
E00000078000000000
E00000078000000000
E00000078000000000
E0000007C000000000
E000000FC000000380
E000000EC000000300
E000001CE000000700
E000001C7000000E00
E00000387800000E00
700000703800001C00
780000F01E00003800
3C0003E00F0000F800
1F000F8007C003E000
0FFFFF0003F81FC000
07FFFC0000FFFF8000
00FFF000003FFC0000
ENDCHAR
STARTCHAR 00E7
ENCODING 231
SWIDTH 578 0
DWIDTH 45 0
BBX 36 61 5 -19
BITMAP
0007FF0000
001FFFE000
007FFFF800
01F8007C00
03E0001E00
0780000F00
0F00000780
0E00000380
1C000001C0
3C000000C0
38000000E0
38000000E0
7000000070
7000000070
7000000070
E000000000
E000000000
E000000000
E000000000
E000000000
E000000000
E000000000
E000000000
E000000000
E000000000
E000000000
E000000000
6000000070
7000000070
7000000070
7800000060
38000000E0
3C000000E0
1C000001C0
1E000003C0
0F00000380
0780000700
03C0001E00
01F0007C00
00FF03F800
003FFFE000
000FFF8000
0000300000
0000700000
0000700000
0000600000
0000E00000
0000E00000
0000FFC000
0001FFE000
000000F000
0000003000
0000003800
0000003800
0000003800
0000003000
0000007000
0000007000
000001E000
0000FFC000
0000FF0000
ENDCHAR
STARTCHAR 00E8
ENCODING 232
SWIDTH 578 0
DWIDTH 45 0
BBX 36 59 5 0
BITMAP
00F0000000
0078000000
0038000000
001C000000
001C000000
000E000000
0007000000
0007000000
0003800000
0001800000
0001C00000
0000E00000
0000600000
0000000000
0000000000
0000000000
0000000000
0007FF0000
001FFFC000
007FFFF000
01F800F800
03E0003C00
0780000E00
0F00000700
0E00000380
1C00000380
1C000001C0
38000001C0
38000000E0
70000000E0
70000000E0
70000000E0
E000000070
E000000070
E000000070
E000000070
E000000070
FFFFFFFFF0
FFFFFFFFF0
E000000000
E000000000
E000000000
E000000000
E000000000
6000000000
7000000000
7000000000
30000000E0
38000000E0
3C000001C0
1C000001C0
0E00000380
0F00000780
0780000F00
03C0001E00
01F0007C00
00FF07F800
003FFFE000
000FFF8000
ENDCHAR
STARTCHAR 00E9
ENCODING 233
SWIDTH 578 0
DWIDTH 45 0
BBX 36 59 5 0
BITMAP
0000007000
000000F000
000000E000
000001C000
000001C000
0000038000
0000070000
0000070000
00000E0000
00000C0000
00001C0000
0000380000
0000300000
0000000000
0000000000
0000000000
0000000000
0007FF0000
001FFFC000
007FFFF000
01F800F800
03E0003C00
0780000E00
0F00000700
0E00000380
1C00000380
1C000001C0
38000001C0
38000000E0
70000000E0
70000000E0
70000000E0
E000000070
E000000070
E000000070
E000000070
E000000070
FFFFFFFFF0
FFFFFFFFF0
E000000000
E000000000
E000000000
E000000000
E000000000
6000000000
7000000000
7000000000
30000000E0
38000000E0
3C000001C0
1C000001C0
0E00000380
0F00000780
0780000F00
03C0001E00
01F0007C00
00FF07F800
003FFFE000
000FFF8000
ENDCHAR
STARTCHAR 00EA
ENCODING 234
SWIDTH 578 0
DWIDTH 45 0
BBX 36 57 5 0
BITMAP
0000700000
0000F80000
0001FC0000
00038E0000
00078F0000
000F078000
001E03C000
003C01E000
007800F000
00F0007800
00E0003800
0000000000
0000000000
0000000000
0000000000
0007FF0000
001FFFC000
007FFFF000
01F800F800
03E0003C00
0780000E00
0F00000700
0E00000380
1C00000380
1C000001C0
38000001C0
38000000E0
70000000E0
70000000E0
70000000E0
E000000070
E000000070
E000000070
E000000070
E000000070
FFFFFFFFF0
FFFFFFFFF0
E000000000
E000000000
E000000000
E000000000
E000000000
6000000000
7000000000
7000000000
30000000E0
38000000E0
3C000001C0
1C000001C0
0E00000380
0F00000780
0780000F00
03C0001E00
01F0007C00
00FF07F800
003FFFE000
000FFF8000
ENDCHAR
STARTCHAR 00EB
ENCODING 235
SWIDTH 578 0
DWIDTH 45 0
BBX 36 55 5 0
BITMAP
0008010000
001E03C000
003F07C000
003F07C000
003E07C000
001C038000
0000000000
0000000000
0000000000
0000000000
0000000000
0000000000
0000000000
0007FF0000
001FFFC000
007FFFF000
01F800F800
03E0003C00
0780000E00
0F00000700
0E00000380
1C00000380
1C000001C0
38000001C0
38000000E0
70000000E0
70000000E0
70000000E0
E000000070
E000000070
E000000070
E000000070
E000000070
FFFFFFFFF0
FFFFFFFFF0
E000000000
E000000000
E000000000
E000000000
E000000000
6000000000
7000000000
7000000000
30000000E0
38000000E0
3C000001C0
1C000001C0
0E00000380
0F00000780
0780000F00
03C0001E00
01F0007C00
00FF07F800
003FFFE000
000FFF8000
ENDCHAR
STARTCHAR 00EC
ENCODING 236
SWIDTH 205 0
DWIDTH 16 0
BBX 12 59 -2 0
BITMAP
F000
7800
3800
3C00
1C00
0E00
0600
0700
0380
0180
01C0
00C0
0060
0000
0000
0000
0000
0000
0070
0070
0070
0070
0070
0070
0070
0070
0070
0070
0070
0070
0070
0070
0070
0070
0070
0070
0070
0070
0070
0070
0070
0070
0070
0070
0070
0070
0070
0070
0070
0070
0070
0070
0070
0070
0070
0070
0070
0070
0070
ENDCHAR
STARTCHAR 00ED
ENCODING 237
SWIDTH 205 0
DWIDTH 16 0
BBX 11 59 7 0
BITMAP
00E0
01E0
01C0
0380
0780
0700
0E00
0E00
1C00
1800
3000
7000
6000
0000
0000
0000
0000
0000
E000
E000
E000
E000
E000
E000
E000
E000
E000
E000
E000
E000
E000
E000
E000
E000
E000
E000
E000
E000
E000
E000
E000
E000
E000
E000
E000
E000
E000
E000
E000
E000
E000
E000
E000
E000
E000
E000
E000
E000
E000
ENDCHAR
STARTCHAR 00EE
ENCODING 238
SWIDTH 205 0
DWIDTH 16 0
BBX 22 57 -3 0
BITMAP
003800
007C00
00FE00
01CF00
038780
0783C0
0F01E0
1E00F0
3C0078
780038
F0001C
000000
000000
000000
000000
000000
003800
003800
003800
003800
003800
003800
003800
003800
003800
003800
003800
003800
003800
003800
003800
003800
003800
003800
003800
003800
003800
003800
003800
003800
003800
003800
003800
003800
003800
003800
003800
003800
003800
003800
003800
003800
003800
003800
003800
003800
003800
ENDCHAR
STARTCHAR 00EF
ENCODING 239
SWIDTH 205 0
DWIDTH 16 0
BBX 16 55 0 0
BITMAP
2004
781F
FC1F
FC1F
F81F
700E
0000
0000
0000
0000
0000
0000
0000
0000
01C0
01C0
01C0
01C0
01C0
01C0
01C0
01C0
01C0
01C0
01C0
01C0
01C0
01C0
01C0
01C0
01C0
01C0
01C0
01C0
01C0
01C0
01C0
01C0
01C0
01C0
01C0
01C0
01C0
01C0
01C0
01C0
01C0
01C0
01C0
01C0
01C0
01C0
01C0
01C0
01C0
ENDCHAR
STARTCHAR 00F0
ENCODING 240
SWIDTH 617 0
DWIDTH 48 0
BBX 36 59 5 1
BITMAP
0001F000C0
0001FE01E0
00001F8780
000003DF00
000001FC00
000000F800
000003FC00
00000F9E00
00003E0E00
0000380700
0000300380
0000000380
00000001C0
00000001C0
00000000C0
00000000E0
00000000E0
0007FE0060
003FFFC070
00FFFFE070
01F001F870
03C0003C30
0780001E30
0F00000E30
1E00000730
1C000003B0
38000001B0
38000001F0
70000000F0
70000000F0
70000000F0
E000000070
E000000070
E000000070
E000000070
E000000070
C000000070
C000000070
C000000070
C000000070
C000000070
E000000070
E000000070
E000000070
E000000070
60000000E0
70000000E0
70000000E0
38000001C0
38000001C0
1C00000380
1C00000780
0E00000F00
0700001E00
03C0003C00
01F000F800
00FF9FF000
003FFFC000
000FFF0000
ENDCHAR
STARTCHAR 00F1
ENCODING 241
SWIDTH 617 0
DWIDTH 48 0
BBX 35 56 7 0
BITMAP
001C00E000
003F00E000
007F80E000
00E1C0C000
00C0F1C000
00C07F8000
01C01F0000
0000000000
0000000000
0000000000
0000000000
0000000000
0000000000
0000000000
0003FE0000
E01FFFC000
E07FFFF000
E0F803F800
E1E0007C00
E380001E00
E700000F00
EE00000700
EC00000380
F800000380
F8000001C0
F0000001C0
F0000000C0
E0000000E0
E0000000E0
E0000000E0
E0000000E0
E0000000E0
E0000000E0
E0000000E0
E0000000E0
E0000000E0
E0000000E0
E0000000E0
E0000000E0
E0000000E0
E0000000E0
E0000000E0
E0000000E0
E0000000E0
E0000000E0
E0000000E0
E0000000E0
E0000000E0
E0000000E0
E0000000E0
E0000000E0
E0000000E0
E0000000E0
E0000000E0
E0000000E0
E0000000E0
ENDCHAR
STARTCHAR 00F2
ENCODING 242
SWIDTH 591 0
DWIDTH 46 0
BBX 37 59 5 0
BITMAP
00F0000000
0078000000
0038000000
001C000000
001C000000
000E000000
0007000000
0007000000
0003800000
0001800000
0001C00000
0000E00000
0000600000
0000000000
0000000000
0000000000
0000000000
0003FE0000
001FFFC000
007FFFF000
00F800F800
03E0003C00
0780001E00
0700000700
0E00000380
1E000003C0
1C000001C0
38000000E0
38000000E0
7000000070
7000000070
7000000070
E000000038
E000000038
E000000038
E000000038
E000000038
E000000038
E000000038
E000000038
E000000038
E000000038
E000000038
E000000038
6000000070
7000000070
7000000070
38000000E0
38000000E0
3C000001E0
1C000001C0
0E00000380
0F00000780
0780000F00
03E0003E00
01F800FC00
007F07F000
003FFFE000
0007FF0000
ENDCHAR
STARTCHAR 00F3
ENCODING 243
SWIDTH 591 0
DWIDTH 46 0
BBX 37 59 5 0
BITMAP
0000007000
000000F000
000000E000
000001C000
000001C000
0000038000
0000070000
0000070000
00000E0000
00000C0000
00001C0000
0000380000
0000300000
0000000000
0000000000
0000000000
0000000000
0003FE0000
001FFFC000
007FFFF000
00F800F800
03E0003C00
0780001E00
0700000700
0E00000380
1E000003C0
1C000001C0
38000000E0
38000000E0
7000000070
7000000070
7000000070
E000000038
E000000038
E000000038
E000000038
E000000038
E000000038
E000000038
E000000038
E000000038
E000000038
E000000038
E000000038
6000000070
7000000070
7000000070
38000000E0
38000000E0
3C000001E0
1C000001C0
0E00000380
0F00000780
0780000F00
03E0003E00
01F800FC00
007F07F000
003FFFE000
0007FF0000
ENDCHAR
STARTCHAR 00F4
ENCODING 244
SWIDTH 591 0
DWIDTH 46 0
BBX 37 57 5 0
BITMAP
0000700000
0000F80000
0001FC0000
00038E0000
00078F0000
000F078000
001E03C000
003C01E000
007800F000
00F0007800
00E0003800
0000000000
0000000000
0000000000
0000000000
0003FE0000
001FFFC000
007FFFF000
00F800F800
03E0003C00
0780001E00
0700000700
0E00000380
1E000003C0
1C000001C0
38000000E0
38000000E0
7000000070
7000000070
7000000070
E000000038
E000000038
E000000038
E000000038
E000000038
E000000038
E000000038
E000000038
E000000038
E000000038
E000000038
E000000038
6000000070
7000000070
7000000070
38000000E0
38000000E0
3C000001E0
1C000001C0
0E00000380
0F00000780
0780000F00
03E0003E00
01F800FC00
007F07F000
003FFFE000
0007FF0000
ENDCHAR
STARTCHAR 00F5
ENCODING 245
SWIDTH 591 0
DWIDTH 46 0
BBX 37 56 5 0
BITMAP
0007003000
001FC03000
003FE07000
0070F07000
007038E000
00601FE000
00600FC000
0000000000
0000000000
0000000000
0000000000
0000000000
0000000000
0000000000
0003FE0000
001FFFC000
007FFFF000
00F800F800
03E0003C00
0780001E00
0700000700
0E00000380
1E000003C0
1C000001C0
38000000E0
38000000E0
7000000070
7000000070
7000000070
E000000038
E000000038
E000000038
E000000038
E000000038
E000000038
E000000038
E000000038
E000000038
E000000038
E000000038
E000000038
6000000070
7000000070
7000000070
38000000E0
38000000E0
3C000001E0
1C000001C0
0E00000380
0F00000780
0780000F00
03E0003E00
01F800FC00
007F07F000
003FFFE000
0007FF0000
ENDCHAR
STARTCHAR 00F6
ENCODING 246
SWIDTH 591 0
DWIDTH 46 0
BBX 37 55 5 0
BITMAP
0008010000
001E03C000
003F07C000
003F07C000
003E07C000
001C038000
0000000000
0000000000
0000000000
0000000000
0000000000
0000000000
0000000000
0003FE0000
001FFFC000
007FFFF000
00F800F800
03E0003C00
0780001E00
0700000700
0E00000380
1E000003C0
1C000001C0
38000000E0
38000000E0
7000000070
7000000070
7000000070
E000000038
E000000038
E000000038
E000000038
E000000038
E000000038
E000000038
E000000038
E000000038
E000000038
E000000038
E000000038
6000000070
7000000070
7000000070
38000000E0
38000000E0
3C000001E0
1C000001C0
0E00000380
0F00000780
0780000F00
03E0003E00
01F800FC00
007F07F000
003FFFE000
0007FF0000
ENDCHAR
STARTCHAR 00F7
ENCODING 247
SWIDTH 591 0
DWIDTH 46 0
BBX 28 30 6 10
BITMAP
00070000
000F8000
001F8000
001F8000
000F8000
00070000
00000000
00000000
00000000
00000000
00000000
00000000
00000000
00000000
FFFFFFF0
FFFFFFF0
FFFFFFF0
00000000
00000000
00000000
00000000
00000000
00000000
00000000
00000000
000F0000
001F8000
001F8000
000F8000
000F0000
ENDCHAR
STARTCHAR 00F8
ENCODING 248
SWIDTH 591 0
DWIDTH 46 0
BBX 37 50 5 -4
BITMAP
0000000380
0000000380
0000000700
0000000700
0007FF0E00
001FFFCC00
007FFFFC00
00F800F800
03E0003E00
0780007F00
0F00007700
0E0000E380
1C0000E1C0
1C0001C1C0
380001C0E0
38000380E0
7000030070
7000070070
60000E0070
E0000E0038
E0001C0038
E0001C0038
E000380038
E000380038
E000700038
E000700038
E000E00038
E000E00038
E001C00038
E001800038
E003800038
6007000070
7007000070
700E000070
380E0000E0
381C0000E0
3C1C0001C0
1C380001C0
0E38000380
0F70000780
07E0000F00
03E0003E00
01F800FC00
01FF8FF000
03BFFFE000
0387FF0000
0700000000
0700000000
0E00000000
0E00000000
ENDCHAR
STARTCHAR 00F9
ENCODING 249
SWIDTH 604 0
DWIDTH 47 0
BBX 34 60 7 -1
BITMAP
0380000000
03C0000000
01C0000000
00E0000000
00E0000000
0070000000
0038000000
0038000000
001C000000
000C000000
000E000000
0007000000
0003000000
0000000000
0000000000
0000000000
0000000000
0000000000
E0000000C0
E0000000C0
E0000000C0
E0000000C0
E0000000C0
E0000000C0
E0000000C0
E0000000C0
E0000000C0
E0000000C0
E0000000C0
E0000000C0
E0000000C0
E0000000C0
E0000000C0
E0000000C0
E0000000C0
E0000000C0
E0000000C0
E0000000C0
E0000000C0
E0000000C0
E0000000C0
E0000000C0
E0000000C0
E0000001C0
E0000001C0
E0000001C0
60000001C0
70000001C0
70000003C0
30000003C0
38000006C0
3C00000CC0
1E00001CC0
0F000038C0
0F800070C0
07E001E0C0
03FE3FC0C0
00FFFF80C0
003FFE00C0
0003E00000
ENDCHAR
STARTCHAR 00FA
ENCODING 250
SWIDTH 604 0
DWIDTH 47 0
BBX 34 60 7 -1
BITMAP
000003C000
0000078000
0000070000
00000E0000
00000E0000
00001C0000
0000380000
0000380000
0000700000
0000600000
0000E00000
0000C00000
0001800000
0000000000
0000000000
0000000000
0000000000
0000000000
E0000000C0
E0000000C0
E0000000C0
E0000000C0
E0000000C0
E0000000C0
E0000000C0
E0000000C0
E0000000C0
E0000000C0
E0000000C0
E0000000C0
E0000000C0
E0000000C0
E0000000C0
E0000000C0
E0000000C0
E0000000C0
E0000000C0
E0000000C0
E0000000C0
E0000000C0
E0000000C0
E0000000C0
E0000000C0
E0000001C0
E0000001C0
E0000001C0
60000001C0
70000001C0
70000003C0
30000003C0
38000006C0
3C00000CC0
1E00001CC0
0F000038C0
0F800070C0
07E001E0C0
03FE3FC0C0
00FFFF80C0
003FFE00C0
0003E00000
ENDCHAR
STARTCHAR 00FB
ENCODING 251
SWIDTH 604 0
DWIDTH 47 0
BBX 34 58 7 -1
BITMAP
0003800000
0007C00000
000FE00000
001E700000
003C780000
00783C0000
00F01E0000
01E00F0000
03C0078000
038003C000
070001E000
0000000000
0000000000
0000000000
0000000000
0000000000
E0000000C0
E0000000C0
E0000000C0
E0000000C0
E0000000C0
E0000000C0
E0000000C0
E0000000C0
E0000000C0
E0000000C0
E0000000C0
E0000000C0
E0000000C0
E0000000C0
E0000000C0
E0000000C0
E0000000C0
E0000000C0
E0000000C0
E0000000C0
E0000000C0
E0000000C0
E0000000C0
E0000000C0
E0000000C0
E0000001C0
E0000001C0
E0000001C0
60000001C0
70000001C0
70000003C0
30000003C0
38000006C0
3C00000CC0
1E00001CC0
0F000038C0
0F800070C0
07E001E0C0
03FE3FC0C0
00FFFF80C0
003FFE00C0
0003E00000
ENDCHAR
STARTCHAR 00FC
ENCODING 252
SWIDTH 604 0
DWIDTH 47 0
BBX 34 56 7 -1
BITMAP
0060080000
00F01E0000
01F83E0000
01F83F0000
00F03E0000
00F01C0000
0000000000
0000000000
0000000000
0000000000
0000000000
0000000000
0000000000
0000000000
E0000000C0
E0000000C0
E0000000C0
E0000000C0
E0000000C0
E0000000C0
E0000000C0
E0000000C0
E0000000C0
E0000000C0
E0000000C0
E0000000C0
E0000000C0
E0000000C0
E0000000C0
E0000000C0
E0000000C0
E0000000C0
E0000000C0
E0000000C0
E0000000C0
E0000000C0
E0000000C0
E0000000C0
E0000000C0
E0000001C0
E0000001C0
E0000001C0
60000001C0
70000001C0
70000003C0
30000003C0
38000006C0
3C00000CC0
1E00001CC0
0F000038C0
0F800070C0
07E001E0C0
03FE3FC0C0
00FFFF80C0
003FFE00C0
0003E00000
ENDCHAR
STARTCHAR 00FD
ENCODING 253
SWIDTH 527 0
DWIDTH 41 0
BBX 35 73 3 -14
BITMAP
000000E000
000001C000
000003C000
0000038000
0000070000
0000070000
00000E0000
00001C0000
00001C0000
0000380000
0000300000
0000700000
0000600000
0000000000
0000000000
0000000000
0000000000
0000000000
E0000000E0
70000000E0
70000001C0
70000001C0
3800000380
3800000380
1C00000700
1C00000700
1C00000700
0E00000E00
0E00000E00
0700001C00
0700001C00
0700003800
0380003800
0380003800
01C0007000
01C0007000
00C000E000
00E000E000
00E001C000
007001C000
0070018000
0030038000
0038038000
0038070000
001C070000
001C060000
000C0E0000
000E0C0000
000E1C0000
00071C0000
0007380000
0003380000
0003B00000
0001F00000
0001E00000
0001E00000
0001C00000
0001C00000
0003C00000
0003800000
0003800000
0007000000
0007000000
000E000000
000E000000
001C000000
001C000000
003C000000
0038000000
0070000000
01E0000000
7FC0000000
7F80000000
ENDCHAR
STARTCHAR 00FE
ENCODING 254
SWIDTH 617 0
DWIDTH 48 0
BBX 37 76 7 -18
BITMAP
E000000000
E000000000
E000000000
E000000000
E000000000
E000000000
E000000000
E000000000
E000000000
E000000000
E000000000
E000000000
E000000000
E000000000
E000000000
E000000000
E003FF0000
E01FFFC000
E07FFFF000
E0F800FC00
E1E0003E00
E380000F00
E700000700
EE00000380
EE000001C0
FC000001C0
F8000000E0
F8000000E0
F000000070
F000000070
F000000070
F000000030
E000000038
E000000038
E000000038
E000000038
E000000038
E000000038
E000000038
E000000038
E000000038
E000000038
F000000030
F000000070
F000000070
F000000070
F8000000E0
F8000000E0
FC000001E0
EC000001C0
EE00000380
E700000780
E380000F00
E1E0001E00
E0F8007C00
E07F8FF800
E01FFFE000
E007FF8000
E000000000
E000000000
E000000000
E000000000
E000000000
E000000000
E000000000
E000000000
E000000000
E000000000
E000000000
E000000000
E000000000
E000000000
E000000000
E000000000
E000000000
E000000000
ENDCHAR
STARTCHAR 00FF
ENCODING 255
SWIDTH 527 0
DWIDTH 41 0
BBX 35 69 3 -14
BITMAP
0010020000
007C0F8000
007C0F8000
007C0F8000
007C0F8000
0038070000
0000000000
0000000000
0000000000
0000000000
0000000000
0000000000
0000000000
0000000000
E0000000E0
70000000E0
70000001C0
70000001C0
3800000380
3800000380
1C00000700
1C00000700
1C00000700
0E00000E00
0E00000E00
0700001C00
0700001C00
0700003800
0380003800
0380003800
01C0007000
01C0007000
00C000E000
00E000E000
00E001C000
007001C000
0070018000
0030038000
0038038000
0038070000
001C070000
001C060000
000C0E0000
000E0C0000
000E1C0000
00071C0000
0007380000
0003380000
0003B00000
0001F00000
0001E00000
0001E00000
0001C00000
0001C00000
0003C00000
0003800000
0003800000
0007000000
0007000000
000E000000
000E000000
001C000000
001C000000
003C000000
0038000000
0070000000
01E0000000
7FC0000000
7F80000000
ENDCHAR
STARTCHAR 0100
ENCODING 256
SWIDTH 681 0
DWIDTH 53 0
BBX 45 65 4 0
BITMAP
000FFFFF8000
000FFFFF8000
000000000000
000000000000
000000000000
000000000000
000000000000
000000000000
000000000000
000000000000
000000000000
000007000000
00000F800000
00000F800000
00000D800000
00001DC00000
00001DC00000
000038E00000
000038E00000
000030600000
000070700000
000070700000
0000E0380000
0000E0380000
0000C0180000
0001C01C0000
0001C01C0000
0003800E0000
0003800E0000
000300060000
000700070000
000700070000
000600038000
000E00038000
000E00018000
001C0001C000
001C0001C000
00180000E000
00380000E000
003800006000
007000007000
007000007000
006000003800
00E000003800
00FFFFFFF800
01FFFFFFFC00
01FFFFFFFC00
018000000E00
038000000E00
038000000600
030000000700
070000000700
070000000380
0E0000000380
0E0000000180
0C00000001C0
1C00000001C0
1C00000000C0
3800000000E0
380000000060
300000000070
700000000070
700000000030
E00000000038
E00000000018
ENDCHAR
STARTCHAR 0101
ENCODING 257
SWIDTH 617 0
DWIDTH 48 0
BBX 36 51 5 0
BITMAP
00FFFFFC00
00FFFFFC00
0000000000
0000000000
0000000000
0000000000
0000000000
0000000000
0000000000
0007FE0000
003FFF8030
00FFFFE030
01F001F030
03C0007830
0780001C30
0E00000E30
1E00000730
1C00000330
38000003B0
38000001F0
70000000F0
70000000F0
60000000F0
E000000070
E000000070
E000000070
E000000070
C000000070
C000000070
C000000070
C000000070
C000000070
C000000070
E000000070
E000000070
E000000070
E000000070
E0000000F0
70000000F0
70000000F0
38000001F0
38000001B0
3C000003B0
1C00000730
0E00000E30
0700001C30
07C0003830
01F000F030
00FF9FE030
007FFFC030
000FFE0030
ENDCHAR
STARTCHAR 0102
ENCODING 258
SWIDTH 681 0
DWIDTH 53 0
BBX 45 68 4 0
BITMAP
001C0001C000
000E00038000
000F00070000
0007C01F0000
0001FFFC0000
0000FFF80000
000007000000
000000000000
000000000000
000000000000
000000000000
000000000000
000000000000
000000000000
000007000000
00000F800000
00000F800000
00000D800000
00001DC00000
00001DC00000
000038E00000
000038E00000
000030600000
000070700000
000070700000
0000E0380000
0000E0380000
0000C0180000
0001C01C0000
0001C01C0000
0003800E0000
0003800E0000
000300060000
000700070000
000700070000
000600038000
000E00038000
000E00018000
001C0001C000
001C0001C000
00180000E000
00380000E000
003800006000
007000007000
007000007000
006000003800
00E000003800
00FFFFFFF800
01FFFFFFFC00
01FFFFFFFC00
018000000E00
038000000E00
038000000600
030000000700
070000000700
070000000380
0E0000000380
0E0000000180
0C00000001C0
1C00000001C0
1C00000000C0
3800000000E0
380000000060
300000000070
700000000070
700000000030
E00000000038
E00000000018
ENDCHAR
STARTCHAR 0103
ENCODING 259
SWIDTH 617 0
DWIDTH 48 0
BBX 36 54 5 0
BITMAP
01C0001C00
00E0003800
0078007000
003E03E000
001FFFC000
0007FF0000
0000000000
0000000000
0000000000
0000000000
0000000000
0000000000
0007FE0000
003FFF8030
00FFFFE030
01F001F030
03C0007830
0780001C30
0E00000E30
1E00000730
1C00000330
38000003B0
38000001F0
70000000F0
70000000F0
60000000F0
E000000070
E000000070
E000000070
E000000070
C000000070
C000000070
C000000070
C000000070
C000000070
C000000070
E000000070
E000000070
E000000070
E000000070
E0000000F0
70000000F0
70000000F0
38000001F0
38000001B0
3C000003B0
1C00000730
0E00000E30
0700001C30
07C0003830
01F000F030
00FF9FE030
007FFFC030
000FFE0030
ENDCHAR
STARTCHAR 0104
ENCODING 260
SWIDTH 681 0
DWIDTH 53 0
BBX 49 66 4 -12
BITMAP
00000700000000
00000F80000000
00000F80000000
00000D80000000
00001DC0000000
00001DC0000000
000038E0000000
000038E0000000
00003060000000
00007070000000
00007070000000
0000E038000000
0000E038000000
0000C018000000
0001C01C000000
0001C01C000000
0003800E000000
0003800E000000
00030006000000
00070007000000
00070007000000
00060003800000
000E0003800000
000E0001800000
001C0001C00000
001C0001C00000
00180000E00000
00380000E00000
00380000600000
00700000700000
00700000700000
00600000380000
00E00000380000
00FFFFFFF80000
01FFFFFFFC0000
01FFFFFFFC0000
018000000C0000
038000000E0000
03800000060000
03000000070000
07000000070000
07000000030000
0E000000038000
0E000000018000
0C00000001C000
1C00000001C000
1C00000000C000
3800000000E000
38000000006000
30000000007000
70000000007000
70000000003000
E0000000003800
E0000000003800
00000000007800
0000000000F000
0000000001C000
0000000001C000
00000000018000
00000000018000
00000000018000
00000000018000
0000000001C000
0000000000FF80
00000000007F80
00000000000C00
ENDCHAR
STARTCHAR 0105
ENCODING 261
SWIDTH 617 0
DWIDTH 48 0
BBX 39 54 5 -12
BITMAP
0007FE0000
003FFF8030
00FFFFE030
01F001F030
03C0007830
0780001C30
0E00000E30
1E00000730
1C00000330
38000003B0
38000001F0
70000000F0
70000000F0
60000000F0
E000000070
E000000070
E000000070
E000000070
C000000070
C000000070
C000000070
C000000070
C000000070
C000000070
E000000070
E000000070
E000000070
E000000070
E0000000F0
70000000F0
70000000F0
38000001F0
38000001B0
3C000003B0
1C00000730
0E00000E30
0700001C30
07C0003830
01F000F030
00FF9FE030
007FFFC030
000FFE0070
00000000F0
00000001C0
0000000380
0000000380
0000000300
0000000700
0000000700
0000000300
0000000380
00000001FE
00000000FE
0000000038
ENDCHAR
STARTCHAR 0106
ENCODING 262
SWIDTH 720 0
DWIDTH 56 0
BBX 47 72 5 0
BITMAP
000000078000
000000070000
0000000E0000
0000001E0000
0000001C0000
000000380000
000000380000
000000700000
000000600000
000000E00000
000001C00000
000001800000
000000000000
000000000000
000000000000
000000000000
000001C00000
00007FFF0000
0003FFFFE000
000FF007F800
003F0000FC00
007C00001F00
00F000000F80
01E0000003C0
03C0000001C0
0780000000E0
070000000070
0E0000000078
0E0000000038
1C000000003C
1C000000001C
38000000001C
38000000000E
38000000000E
700000000006
700000000000
700000000000
700000000000
700000000000
E00000000000
E00000000000
E00000000000
E00000000000
E00000000000
E00000000000
E00000000000
E00000000000
E00000000000
E00000000000
E00000000000
700000000000
700000000000
700000000000
700000000000
700000000000
380000000000
38000000000E
3C000000001C
1C000000001C
1C0000000038
0E0000000038
0F0000000070
0700000000F0
0380000001E0
03C0000003C0
01E000000780
00F800000F00
007C00003E00
001F8000FC00
000FFE1FF000
0003FFFFC000
00007FFE0000
ENDCHAR
STARTCHAR 0107
ENCODING 263
SWIDTH 578 0
DWIDTH 45 0
BBX 36 59 5 0
BITMAP
0000007800
0000007000
000000E000
000001E000
000001C000
0000038000
0000038000
0000070000
0000060000
00000E0000
00001C0000
0000180000
0000380000
0000000000
0000000000
0000000000
0000000000
0007FF0000
001FFFE000
007FFFF800
01F8007C00
03E0001E00
0780000F00
0F00000780
0E00000380
1C000001C0
3C000000C0
38000000E0
38000000E0
7000000070
7000000070
7000000070
E000000000
E000000000
E000000000
E000000000
E000000000
E000000000
E000000000
E000000000
E000000000
E000000000
E000000000
E000000000
6000000070
7000000070
7000000070
7800000060
38000000E0
3C000000E0
1C000001C0
1E000003C0
0F00000380
0780000700
03C0001E00
01F0007C00
00FF03F800
003FFFE000
000FFF8000
ENDCHAR
STARTCHAR 010A
ENCODING 266
SWIDTH 720 0
DWIDTH 56 0
BBX 47 68 5 0
BITMAP
000007800000
000007C00000
00000FC00000
00000FC00000
000007800000
000000000000
000000000000
000000000000
000000000000
000000000000
000000000000
000000000000
000001C00000
00007FFF0000
0003FFFFE000
000FF007F800
003F0000FC00
007C00001F00
00F000000F80
01E0000003C0
03C0000001C0
0780000000E0
070000000070
0E0000000078
0E0000000038
1C000000003C
1C000000001C
38000000001C
38000000000E
38000000000E
700000000006
700000000000
700000000000
700000000000
700000000000
E00000000000
E00000000000
E00000000000
E00000000000
E00000000000
E00000000000
E00000000000
E00000000000
E00000000000
E00000000000
E00000000000
700000000000
700000000000
700000000000
700000000000
700000000000
380000000000
38000000000E
3C000000001C
1C000000001C
1C0000000038
0E0000000038
0F0000000070
0700000000F0
0380000001E0
03C0000003C0
01E000000780
00F800000F00
007C00003E00
001F8000FC00
000FFE1FF000
0003FFFFC000
00007FFE0000
ENDCHAR
STARTCHAR 010B
ENCODING 267
SWIDTH 578 0
DWIDTH 45 0
BBX 36 55 5 0
BITMAP
0000300000
0000780000
0000F80000
0000FC0000
0000F80000
0000700000
0000000000
0000000000
0000000000
0000000000
0000000000
0000000000
0000000000
0007FF0000
001FFFE000
007FFFF800
01F8007C00
03E0001E00
0780000F00
0F00000780
0E00000380
1C000001C0
3C000000C0
38000000E0
38000000E0
7000000070
7000000070
7000000070
E000000000
E000000000
E000000000
E000000000
E000000000
E000000000
E000000000
E000000000
E000000000
E000000000
E000000000
E000000000
6000000070
7000000070
7000000070
7800000060
38000000E0
3C000000E0
1C000001C0
1E000003C0
0F00000380
0780000700
03C0001E00
01F0007C00
00FF03F800
003FFFE000
000FFF8000
ENDCHAR
STARTCHAR 010C
ENCODING 268
SWIDTH 720 0
DWIDTH 56 0
BBX 47 70 5 0
BITMAP
00070003C000
000380078000
0003C00F0000
0001E01E0000
0000F03C0000
000078380000
00003C700000
00001EE00000
00000FC00000
000007C00000
000000000000
000000000000
000000000000
000000000000
000001C00000
00007FFF0000
0003FFFFE000
000FF007F800
003F0000FC00
007C00001F00
00F000000F80
01E0000003C0
03C0000001C0
0780000000E0
070000000070
0E0000000078
0E0000000038
1C000000003C
1C000000001C
38000000001C
38000000000E
38000000000E
700000000006
700000000000
700000000000
700000000000
700000000000
E00000000000
E00000000000
E00000000000
E00000000000
E00000000000
E00000000000
E00000000000
E00000000000
E00000000000
E00000000000
E00000000000
700000000000
700000000000
700000000000
700000000000
700000000000
380000000000
38000000000E
3C000000001C
1C000000001C
1C0000000038
0E0000000038
0F0000000070
0700000000F0
0380000001E0
03C0000003C0
01E000000780
00F800000F00
007C00003E00
001F8000FC00
000FFE1FF000
0003FFFFC000
00007FFE0000
ENDCHAR
STARTCHAR 010D
ENCODING 269
SWIDTH 578 0
DWIDTH 45 0
BBX 36 57 5 0
BITMAP
00E0003C00
0070007800
003800F000
003C00E000
001E01C000
000F038000
0007870000
0003CF0000
0001FE0000
0000FC0000
0000780000
0000000000
0000000000
0000000000
0000000000
0007FF0000
001FFFE000
007FFFF800
01F8007C00
03E0001E00
0780000F00
0F00000780
0E00000380
1C000001C0
3C000000C0
38000000E0
38000000E0
7000000070
7000000070
7000000070
E000000000
E000000000
E000000000
E000000000
E000000000
E000000000
E000000000
E000000000
E000000000
E000000000
E000000000
E000000000
6000000070
7000000070
7000000070
7800000060
38000000E0
3C000000E0
1C000001C0
1E000003C0
0F00000380
0780000700
03C0001E00
01F0007C00
00FF03F800
003FFFE000
000FFF8000
ENDCHAR
STARTCHAR 010E
ENCODING 270
SWIDTH 681 0
DWIDTH 53 0
BBX 43 70 7 0
BITMAP
00F0003C0000
007800780000
003C00F00000
001E01E00000
000F03C00000
000787800000
0003CF000000
0001CE000000
0000FC000000
000078000000
000000000000
000000000000
000000000000
000000000000
000000000000
000000000000
FFFFFFC00000
FFFFFFF80000
E00001FE0000
E000001F8000
E0000007C000
E0000001E000
E0000000F000
E00000007800
E00000003C00
E00000001E00
E00000000E00
E00000000F00
E00000000700
E00000000380
E00000000380
E00000000380
E000000001C0
E000000001C0
E000000001C0
E000000000C0
E000000000E0
E000000000E0
E000000000E0
E000000000E0
E000000000E0
E000000000E0
E000000000E0
E000000000E0
E000000000E0
E000000000E0
E000000000E0
E000000000E0
E000000000E0
E000000000E0
E000000000C0
E000000001C0
E000000001C0
E000000001C0
E00000000380
E00000000380
E00000000700
E00000000700
E00000000E00
E00000001E00
E00000001C00
E00000003C00
E00000007800
E0000001F000
E0000003E000
E000000F8000
E000007F0000
FFFFFFFC0000
FFFFFFF00000
FFFFFF000000
ENDCHAR
STARTCHAR 010F
ENCODING 271
SWIDTH 681 0
DWIDTH 53 0
BBX 47 58 5 0
BITMAP
00000000307C
0000000030FE
0000000030FE
0000000030FE
00000000307E
00000000300E
000000003006
000000003006
000000003006
000000003006
00000000300C
00000000300C
000000003018
000000003070
000000003060
000000003000
0007FE003000
003FFF803000
00FFFFE03000
01F001F03000
03C000783000
0780001C3000
0E00000E3000
1E0000073000
1C0000033000
38000003B000
38000001F000
70000000F000
70000000F000
60000000F000
E00000007000
E00000007000
E00000007000
E00000007000
C00000007000
C00000007000
C00000007000
C00000007000
C00000007000
C00000007000
E00000007000
E00000007000
E00000007000
E00000007000
E0000000F000
70000000F000
70000000F000
38000001F000
38000001B000
3C000003B000
1C0000073000
0E00000E3000
0700001C3000
07C000383000
01F000F03000
00FF9FE03000
007FFFC03000
000FFE003000
ENDCHAR
STARTCHAR 0110
ENCODING 272
SWIDTH 720 0
DWIDTH 56 0
BBX 48 54 4 0
BITMAP
07FFFFF80000
07FFFFFF0000
0700007FE000
07000001F800
070000003C00
070000001F00
070000000780
0700000003C0
0700000001C0
0700000000E0
070000000070
070000000038
070000000038
07000000001C
07000000001C
07000000000C
07000000000E
07000000000E
070000000006
070000000006
070000000007
070000000007
070000000007
070000000007
070000000007
FFFFF8000003
FFFFF8000003
070000000003
070000000007
070000000007
070000000007
070000000007
070000000007
070000000007
070000000006
070000000006
07000000000E
07000000000E
07000000000C
07000000001C
070000000018
070000000038
070000000030
070000000070
0700000000E0
0700000001C0
070000000380
070000000F00
070000001E00
070000007C00
07000003F000
07000FFFC000
07FFFFFF0000
07FFFFF00000
ENDCHAR
STARTCHAR 0111
ENCODING 273
SWIDTH 604 0
DWIDTH 47 0
BBX 43 58 5 0
BITMAP
000000003000
000000003000
000000003000
000000003000
000000003000
000000003000
000000003000
00001FFFFFE0
00001FFFFFE0
000000003000
000000003000
000000003000
000000003000
000000003000
000000003000
000000003000
0007FE003000
003FFF803000
00FFFFE03000
01F001F03000
03C000783000
0780001C3000
0E00000E3000
1E0000073000
1C0000033000
38000003B000
38000001F000
70000000F000
70000000F000
60000000F000
E00000007000
E00000007000
E00000007000
E00000007000
C00000007000
C00000007000
C00000007000
C00000007000
C00000007000
C00000007000
E00000007000
E00000007000
E00000007000
E00000007000
E0000000F000
70000000F000
70000000F000
38000001F000
38000001B000
3C000003B000
1C0000073000
0E00000E3000
0700001C3000
07C000383000
01F000F03000
00FF9FE03000
007FFFC03000
000FFE003000
ENDCHAR
STARTCHAR 0112
ENCODING 274
SWIDTH 565 0
DWIDTH 44 0
BBX 31 65 7 0
BITMAP
07FFFFE0
07FFFFE0
00000000
00000000
00000000
00000000
00000000
00000000
00000000
00000000
00000000
FFFFFFFE
FFFFFFFE
E0000000
E0000000
E0000000
E0000000
E0000000
E0000000
E0000000
E0000000
E0000000
E0000000
E0000000
E0000000
E0000000
E0000000
E0000000
E0000000
E0000000
E0000000
E0000000
E0000000
E0000000
E0000000
E0000000
FFFFFFF8
FFFFFFF8
E0000000
E0000000
E0000000
E0000000
E0000000
E0000000
E0000000
E0000000
E0000000
E0000000
E0000000
E0000000
E0000000
E0000000
E0000000
E0000000
E0000000
E0000000
E0000000
E0000000
E0000000
E0000000
E0000000
E0000000
FFFFFFFE
FFFFFFFE
FFFFFFFE
ENDCHAR
STARTCHAR 0113
ENCODING 275
SWIDTH 578 0
DWIDTH 45 0
BBX 36 51 5 0
BITMAP
00FFFFF800
00FFFFF800
0000000000
0000000000
0000000000
0000000000
0000000000
0000000000
0000000000
0007FF0000
001FFFC000
007FFFF000
01F800F800
03E0003C00
0780000E00
0F00000700
0E00000380
1C00000380
1C000001C0
38000001C0
38000000E0
70000000E0
70000000E0
70000000E0
E000000070
E000000070
E000000070
E000000070
E000000070
FFFFFFFFF0
FFFFFFFFF0
E000000000
E000000000
E000000000
E000000000
E000000000
6000000000
7000000000
7000000000
30000000E0
38000000E0
3C000001C0
1C000001C0
0E00000380
0F00000780
0780000F00
03C0001E00
01F0007C00
00FF07F800
003FFFE000
000FFF8000
ENDCHAR
STARTCHAR 0116
ENCODING 278
SWIDTH 565 0
DWIDTH 44 0
BBX 31 68 7 0
BITMAP
00038000
0007C000
0007C000
0007C000
0003C000
00000000
00000000
00000000
00000000
00000000
00000000
00000000
00000000
00000000
FFFFFFFE
FFFFFFFE
E0000000
E0000000
E0000000
E0000000
E0000000
E0000000
E0000000
E0000000
E0000000
E0000000
E0000000
E0000000
E0000000
E0000000
E0000000
E0000000
E0000000
E0000000
E0000000
E0000000
E0000000
E0000000
E0000000
FFFFFFF8
FFFFFFF8
E0000000
E0000000
E0000000
E0000000
E0000000
E0000000
E0000000
E0000000
E0000000
E0000000
E0000000
E0000000
E0000000
E0000000
E0000000
E0000000
E0000000
E0000000
E0000000
E0000000
E0000000
E0000000
E0000000
E0000000
FFFFFFFE
FFFFFFFE
FFFFFFFE
ENDCHAR
STARTCHAR 0117
ENCODING 279
SWIDTH 578 0
DWIDTH 45 0
BBX 36 55 5 0
BITMAP
0000200000
0000F80000
0000F80000
0000F80000
0000F80000
0000700000
0000000000
0000000000
0000000000
0000000000
0000000000
0000000000
0000000000
0007FF0000
001FFFC000
007FFFF000
01F800F800
03E0003C00
0780000E00
0F00000700
0E00000380
1C00000380
1C000001C0
38000001C0
38000000E0
70000000E0
70000000E0
70000000E0
E000000070
E000000070
E000000070
E000000070
E000000070
FFFFFFFFF0
FFFFFFFFF0
E000000000
E000000000
E000000000
E000000000
E000000000
6000000000
7000000000
7000000000
30000000E0
38000000E0
3C000001C0
1C000001C0
0E00000380
0F00000780
0780000F00
03C0001E00
01F0007C00
00FF07F800
003FFFE000
000FFF8000
ENDCHAR
STARTCHAR 0118
ENCODING 280
SWIDTH 565 0
DWIDTH 44 0
BBX 34 66 7 -12
BITMAP
FFFFFFFE00
FFFFFFFE00
E000000000
E000000000
E000000000
E000000000
E000000000
E000000000
E000000000
E000000000
E000000000
E000000000
E000000000
E000000000
E000000000
E000000000
E000000000
E000000000
E000000000
E000000000
E000000000
E000000000
E000000000
E000000000
E000000000
FFFFFFF800
FFFFFFF800
E000000000
E000000000
E000000000
E000000000
E000000000
E000000000
E000000000
E000000000
E000000000
E000000000
E000000000
E000000000
E000000000
E000000000
E000000000
E000000000
E000000000
E000000000
E000000000
E000000000
E000000000
E000000000
E000000000
E000000000
FFFFFFFE00
FFFFFFFE00
FFFFFFFE00
0000001E00
0000003800
0000007000
0000006000
000000E000
000000E000
000000E000
000000E000
0000007000
0000007FC0
0000001FC0
0000000380
ENDCHAR
STARTCHAR 0119
ENCODING 281
SWIDTH 578 0
DWIDTH 45 0
BBX 36 54 5 -12
BITMAP
0007FF0000
001FFFC000
007FFFF000
01F800F800
03E0003C00
0780000E00
0F00000700
0E00000380
1C00000380
1C000001C0
38000001C0
38000000E0
70000000E0
70000000E0
70000000E0
E000000070
E000000070
E000000070
E000000070
E000000070
FFFFFFFFF0
FFFFFFFFF0
E000000000
E000000000
E000000000
E000000000
E000000000
6000000000
7000000000
7000000000
30000000E0
38000000E0
3C000001C0
1C000001C0
0E00000380
0F00000780
0780000F00
03C0001E00
01F0007C00
00FF07F800
003FFFE000
000FFF0000
0000780000
0000E00000
0001C00000
0001800000
0003800000
0003800000
0003800000
0003800000
0001C00000
0001FB0000
0000FF0000
00003F0000
ENDCHAR
STARTCHAR 011A
ENCODING 282
SWIDTH 565 0
DWIDTH 44 0
BBX 31 70 7 0
BITMAP
078001C0
03C00380
01E00700
00F00E00
00701E00
00383C00
001C7800
000EF000
000FE000
0007C000
00000000
00000000
00000000
00000000
00000000
00000000
FFFFFFFE
FFFFFFFE
E0000000
E0000000
E0000000
E0000000
E0000000
E0000000
E0000000
E0000000
E0000000
E0000000
E0000000
E0000000
E0000000
E0000000
E0000000
E0000000
E0000000
E0000000
E0000000
E0000000
E0000000
E0000000
E0000000
FFFFFFF8
FFFFFFF8
E0000000
E0000000
E0000000
E0000000
E0000000
E0000000
E0000000
E0000000
E0000000
E0000000
E0000000
E0000000
E0000000
E0000000
E0000000
E0000000
E0000000
E0000000
E0000000
E0000000
E0000000
E0000000
E0000000
E0000000
FFFFFFFE
FFFFFFFE
FFFFFFFE
ENDCHAR
STARTCHAR 011B
ENCODING 283
SWIDTH 578 0
DWIDTH 45 0
BBX 36 57 5 0
BITMAP
01E0003C00
00F0007800
007800F000
003C01E000
001E03C000
000F078000
00070F0000
00038E0000
0001DC0000
0000F80000
0000F00000
0000000000
0000000000
0000000000
0000000000
0007FF0000
001FFFC000
007FFFF000
01F800F800
03E0003C00
0780000E00
0F00000700
0E00000380
1C00000380
1C000001C0
38000001C0
38000000E0
70000000E0
70000000E0
70000000E0
E000000070
E000000070
E000000070
E000000070
E000000070
FFFFFFFFF0
FFFFFFFFF0
E000000000
E000000000
E000000000
E000000000
E000000000
6000000000
7000000000
7000000000
30000000E0
38000000E0
3C000001C0
1C000001C0
0E00000380
0F00000780
0780000F00
03C0001E00
01F0007C00
00FF07F800
003FFFE000
000FFF8000
ENDCHAR
STARTCHAR 011E
ENCODING 286
SWIDTH 707 0
DWIDTH 55 0
BBX 45 68 5 0
BITMAP
000E0000E000
00070001C000
00038003C000
0003E00F8000
0000FFFE0000
00007FFC0000
000003800000
000000000000
000000000000
000000000000
000000000000
000000000000
000003800000
0000FFFE0000
0007FFFFC000
001FE00FF000
003F0000F800
007800003C00
00F000000E00
01E000000700
038000000380
0700000001C0
0F00000000E0
0E00000000E0
1C0000000070
1C0000000070
380000000038
380000000038
300000000038
700000000000
700000000000
700000000000
600000000000
E00000000000
E00000000000
E00000000000
E00000000000
E00000000000
E00000000000
E00000000000
E00000000000
E00000FFFFF8
E00000FFFFF8
E00000000018
E00000000018
E00000000018
E00000000018
E00000000018
600000000018
700000000018
700000000018
700000000038
380000000038
380000000038
180000000078
1C0000000078
1E00000000F8
0E00000000F8
0700000001D8
078000000398
03C000000718
01E000000F18
00F000001E18
007C00007C18
003F0001F018
000FF83FE018
0003FFFF8018
00007FFE0018
ENDCHAR
STARTCHAR 011F
ENCODING 287
SWIDTH 617 0
DWIDTH 48 0
BBX 37 69 5 -15
BITMAP
01C0001C00
00E0003800
0078007000
003E03E000
001FFFC000
0007FF0000
0000000000
0000000000
0000000000
0000000000
0000000000
0000000000
000FFE0000
003FFFC038
00FFFFE038
01F000F838
03C0003C38
0780000E38
0F00000638
1E00000338
1C000003B8
3C000001B8
38000000F8
78000000F8
70000000F8
7000000078
F000000078
E000000078
E000000078
E000000038
E000000038
E000000038
E000000038
E000000038
E000000038
E000000078
E000000078
E000000078
7000000078
7000000078
70000000F8
78000000F8
38000001F8
3C000001B8
1E000003B8
0E00000738
0F00000E38
07C0001E38
03E0007838
01FC01F038
007FFFE038
001FFF8038
0003FC0038
0000000038
0000000038
0000000030
0000000030
0000000070
0000000070
0000000060
00000000E0
00000001C0
00000001C0
0000000380
0000000F00
0000003E00
000701FC00
0007FFF000
0007FFC000
ENDCHAR
STARTCHAR 0120
ENCODING 288
SWIDTH 707 0
DWIDTH 55 0
BBX 45 68 5 0
BITMAP
000003800000
000007C00000
000007C00000
000007C00000
000007C00000
000000000000
000000000000
000000000000
000000000000
000000000000
000000000000
000000000000
000003800000
0000FFFE0000
0007FFFFC000
001FE00FF000
003F0000F800
007800003C00
00F000000E00
01E000000700
038000000380
0700000001C0
0F00000000E0
0E00000000E0
1C0000000070
1C0000000070
380000000038
380000000038
300000000038
700000000000
700000000000
700000000000
600000000000
E00000000000
E00000000000
E00000000000
E00000000000
E00000000000
E00000000000
E00000000000
E00000000000
E00000FFFFF8
E00000FFFFF8
E00000000018
E00000000018
E00000000018
E00000000018
E00000000018
600000000018
700000000018
700000000018
700000000038
380000000038
380000000038
180000000078
1C0000000078
1E00000000F8
0E00000000F8
0700000001D8
078000000398
03C000000718
01E000000F18
00F000001E18
007C00007C18
003F0001F018
000FF83FE018
0003FFFF8018
00007FFE0018
ENDCHAR
STARTCHAR 0121
ENCODING 289
SWIDTH 617 0
DWIDTH 48 0
BBX 37 70 5 -15
BITMAP
0000200000
0000F80000
0000F80000
0000F80000
0000F80000
0000700000
0000000000
0000000000
0000000000
0000000000
0000000000
0000000000
0000000000
000FFE0000
003FFFC038
00FFFFE038
01F000F838
03C0003C38
0780000E38
0F00000638
1E00000338
1C000003B8
3C000001B8
38000000F8
78000000F8
70000000F8
7000000078
F000000078
E000000078
E000000078
E000000038
E000000038
E000000038
E000000038
E000000038
E000000038
E000000078
E000000078
E000000078
7000000078
7000000078
70000000F8
78000000F8
38000001F8
3C000001B8
1E000003B8
0E00000738
0F00000E38
07C0001E38
03E0007838
01FC01F038
007FFFE038
001FFF8038
0003FC0038
0000000038
0000000038
0000000030
0000000030
0000000070
0000000070
0000000060
00000000E0
00000001C0
00000001C0
0000000380
0000000F00
0000003E00
000701FC00
0007FFF000
0007FFC000
ENDCHAR
STARTCHAR 0126
ENCODING 294
SWIDTH 681 0
DWIDTH 53 0
BBX 48 54 3 0
BITMAP
0600000000E0
0600000000E0
0600000000E0
0600000000E0
0600000000E0
0600000000E0
0600000000E0
0600000000E0
0600000000E0
0600000000E0
0600000000E0
FFFFFFFFFFFF
FFFFFFFFFFFF
0600000000E0
0600000000E0
0600000000E0
0600000000E0
0600000000E0
0600000000E0
0600000000E0
0600000000E0
0600000000E0
0600000000E0
0600000000E0
0600000000E0
07FFFFFFFFE0
07FFFFFFFFE0
07FFFFFFFFE0
0600000000E0
0600000000E0
0600000000E0
0600000000E0
0600000000E0
0600000000E0
0600000000E0
0600000000E0
0600000000E0
0600000000E0
0600000000E0
0600000000E0
0600000000E0
0600000000E0
0600000000E0
0600000000E0
0600000000E0
0600000000E0
0600000000E0
0600000000E0
0600000000E0
0600000000E0
0600000000E0
0600000000E0
0600000000E0
0600000000E0
ENDCHAR
STARTCHAR 0127
ENCODING 295
SWIDTH 591 0
DWIDTH 46 0
BBX 41 58 1 0
BITMAP
038000000000
038000000000
038000000000
038000000000
038000000000
038000000000
038000000000
FFFFFF000000
FFFFFF000000
038000000000
038000000000
038000000000
038000000000
038000000000
038000000000
038000000000
038007FF0000
03803FFFC000
0380FFFFF000
0381F001F800
0387C0007C00
038F00003C00
038E00001E00
039C00000E00
03B800000E00
03B000000700
03E000000700
03E000000300
03C000000380
03C000000380
03C000000380
038000000380
038000000380
038000000380
038000000380
038000000380
038000000380
038000000380
038000000380
038000000380
038000000380
038000000380
038000000380
038000000380
038000000380
038000000380
038000000380
038000000380
038000000380
038000000380
038000000380
038000000380
038000000380
038000000380
038000000380
038000000380
038000000380
038000000380
ENDCHAR
STARTCHAR 0128
ENCODING 296
SWIDTH 218 0
DWIDTH 17 0
BBX 19 69 -1 0
BITMAP
3F0060
7F8060
71C0E0
E0F0E0
E07FC0
C03F80
C00E00
000000
000000
000000
000000
000000
000000
000000
000000
00E000
00E000
00E000
00E000
00E000
00E000
00E000
00E000
00E000
00E000
00E000
00E000
00E000
00E000
00E000
00E000
00E000
00E000
00E000
00E000
00E000
00E000
00E000
00E000
00E000
00E000
00E000
00E000
00E000
00E000
00E000
00E000
00E000
00E000
00E000
00E000
00E000
00E000
00E000
00E000
00E000
00E000
00E000
00E000
00E000
00E000
00E000
00E000
00E000
00E000
00E000
00E000
00E000
00E000
ENDCHAR
STARTCHAR 0129
ENCODING 297
SWIDTH 205 0
DWIDTH 16 0
BBX 19 56 -1 0
BITMAP
0E0060
3F0060
7FC0E0
E1E0E0
E0F1C0
C03FC0
C01F00
000000
000000
000000
000000
000000
000000
000000
000000
00E000
00E000
00E000
00E000
00E000
00E000
00E000
00E000
00E000
00E000
00E000
00E000
00E000
00E000
00E000
00E000
00E000
00E000
00E000
00E000
00E000
00E000
00E000
00E000
00E000
00E000
00E000
00E000
00E000
00E000
00E000
00E000
00E000
00E000
00E000
00E000
00E000
00E000
00E000
00E000
00E000
ENDCHAR
STARTCHAR 012A
ENCODING 298
SWIDTH 218 0
DWIDTH 17 0
BBX 21 65 -2 0
BITMAP
FFFFF8
FFFFF8
000000
000000
000000
000000
000000
000000
000000
000000
000000
007000
007000
007000
007000
007000
007000
007000
007000
007000
007000
007000
007000
007000
007000
007000
007000
007000
007000
007000
007000
007000
007000
007000
007000
007000
007000
007000
007000
007000
007000
007000
007000
007000
007000
007000
007000
007000
007000
007000
007000
007000
007000
007000
007000
007000
007000
007000
007000
007000
007000
007000
007000
007000
007000
ENDCHAR
STARTCHAR 012B
ENCODING 299
SWIDTH 205 0
DWIDTH 16 0
BBX 21 51 -2 0
BITMAP
FFFFF8
FFFFF8
000000
000000
000000
000000
000000
000000
000000
000000
007000
007000
007000
007000
007000
007000
007000
007000
007000
007000
007000
007000
007000
007000
007000
007000
007000
007000
007000
007000
007000
007000
007000
007000
007000
007000
007000
007000
007000
007000
007000
007000
007000
007000
007000
007000
007000
007000
007000
007000
007000
ENDCHAR
STARTCHAR 012E
ENCODING 302
SWIDTH 218 0
DWIDTH 17 0
BBX 10 66 3 -12
BITMAP
0E00
0E00
0E00
0E00
0E00
0E00
0E00
0E00
0E00
0E00
0E00
0E00
0E00
0E00
0E00
0E00
0E00
0E00
0E00
0E00
0E00
0E00
0E00
0E00
0E00
0E00
0E00
0E00
0E00
0E00
0E00
0E00
0E00
0E00
0E00
0E00
0E00
0E00
0E00
0E00
0E00
0E00
0E00
0E00
0E00
0E00
0E00
0E00
0E00
0E00
0E00
0E00
0E00
0E00
3C00
7800
7000
E000
E000
C000
C000
E000
F000
7FC0
3FC0
0200
ENDCHAR
STARTCHAR 012F
ENCODING 303
SWIDTH 205 0
DWIDTH 16 0
BBX 10 67 3 -12
BITMAP
0400
1E00
1F00
1F00
1F00
0E00
0000
0000
0000
0000
0000
0000
0000
0000
0E00
0E00
0E00
0E00
0E00
0E00
0E00
0E00
0E00
0E00
0E00
0E00
0E00
0E00
0E00
0E00
0E00
0E00
0E00
0E00
0E00
0E00
0E00
0E00
0E00
0E00
0E00
0E00
0E00
0E00
0E00
0E00
0E00
0E00
0E00
0E00
0E00
0E00
0E00
0E00
0E00
3C00
7800
7000
E000
C000
C000
C000
E000
E000
7FC0
3FC0
0200
ENDCHAR
STARTCHAR 0130
ENCODING 304
SWIDTH 218 0
DWIDTH 17 0
BBX 5 68 6 0
BITMAP
70
F8
F8
F8
F8
00
00
00
00
00
00
00
00
00
70
70
70
70
70
70
70
70
70
70
70
70
70
70
70
70
70
70
70
70
70
70
70
70
70
70
70
70
70
70
70
70
70
70
70
70
70
70
70
70
70
70
70
70
70
70
70
70
70
70
70
70
70
70
ENDCHAR
STARTCHAR 0131
ENCODING 305
SWIDTH 205 0
DWIDTH 16 0
BBX 3 41 7 0
BITMAP
E0
E0
E0
E0
E0
E0
E0
E0
E0
E0
E0
E0
E0
E0
E0
E0
E0
E0
E0
E0
E0
E0
E0
E0
E0
E0
E0
E0
E0
E0
E0
E0
E0
E0
E0
E0
E0
E0
E0
E0
E0
ENDCHAR
STARTCHAR 0139
ENCODING 313
SWIDTH 514 0
DWIDTH 40 0
BBX 30 72 7 0
BITMAP
00E00000
01C00000
03C00000
03800000
07000000
07000000
0E000000
0C000000
1C000000
38000000
30000000
70000000
00000000
00000000
00000000
00000000
00000000
00000000
E0000000
E0000000
E0000000
E0000000
E0000000
E0000000
E0000000
E0000000
E0000000
E0000000
E0000000
E0000000
E0000000
E0000000
E0000000
E0000000
E0000000
E0000000
E0000000
E0000000
E0000000
E0000000
E0000000
E0000000
E0000000
E0000000
E0000000
E0000000
E0000000
E0000000
E0000000
E0000000
E0000000
E0000000
E0000000
E0000000
E0000000
E0000000
E0000000
E0000000
E0000000
E0000000
E0000000
E0000000
E0000000
E0000000
E0000000
E0000000
E0000000
E0000000
E0000000
FFFFFFFC
FFFFFFFC
FFFFFFFC
ENDCHAR
STARTCHAR 013A
ENCODING 314
SWIDTH 282 0
DWIDTH 22 0
BBX 12 76 7 0
BITMAP
00E0
01C0
03C0
0380
0700
0700
0E00
0C00
1C00
3800
3000
7000
0000
0000
0000
0000
0000
0000
E000
E000
E000
E000
E000
E000
E000
E000
E000
E000
E000
E000
E000
E000
E000
E000
E000
E000
E000
E000
E000
E000
E000
E000
E000
E000
E000
E000
E000
E000
E000
E000
E000
E000
E000
E000
E000
E000
E000
E000
E000
E000
E000
E000
E000
E000
E000
E000
E000
E000
E000
E000
E000
6000
7000
7800
3FF0
1FF0
ENDCHAR
STARTCHAR 013D
ENCODING 317
SWIDTH 514 0
DWIDTH 40 0
BBX 39 70 -2 0
BITMAP
F000380000
7800700000
3800E00000
1C01C00000
0E03800000
0707800000
038F000000
03DE000000
01FC000000
00F8000000
0000000000
0000000000
0000000000
0000000000
0000000000
0000000000
0070000000
0070000000
0070000000
0070000000
0070000000
0070000000
0070000000
0070000000
0070000000
0070000000
0070000000
0070000000
0070000000
0070000000
0070000000
0070000000
0070000000
0070000000
0070000000
0070000000
0070000000
0070000000
0070000000
0070000000
0070000000
0070000000
0070000000
0070000000
0070000000
0070000000
0070000000
0070000000
0070000000
0070000000
0070000000
0070000000
0070000000
0070000000
0070000000
0070000000
0070000000
0070000000
0070000000
0070000000
0070000000
0070000000
0070000000
0070000000
0070000000
0070000000
0070000000
007FFFFFFE
007FFFFFFE
007FFFFFFE
ENDCHAR
STARTCHAR 013E
ENCODING 318
SWIDTH 282 0
DWIDTH 22 0
BBX 14 58 7 0
BITMAP
E1F8
E1FC
E1FC
E1FC
E0FC
E01C
E01C
E01C
E01C
E018
E018
E038
E070
E1E0
E1C0
E100
E000
E000
E000
E000
E000
E000
E000
E000
E000
E000
E000
E000
E000
E000
E000
E000
E000
E000
E000
E000
E000
E000
E000
E000
E000
E000
E000
E000
E000
E000
E000
E000
E000
E000
E000
E000
E000
6000
7000
7800
3FF0
1FF0
ENDCHAR
STARTCHAR 0143
ENCODING 323
SWIDTH 720 0
DWIDTH 56 0
BBX 42 72 7 0
BITMAP
0000001E0000
0000001C0000
000000380000
000000780000
000000700000
000000E00000
000000E00000
000001C00000
000003800000
000003000000
000007000000
000006000000
000000000000
000000000000
000000000000
000000000000
000000000000
000000000000
F000000001C0
F000000001C0
F800000001C0
FC00000001C0
FC00000001C0
EE00000001C0
E700000001C0
E780000001C0
E380000001C0
E1C0000001C0
E0E0000001C0
E0F0000001C0
E070000001C0
E038000001C0
E03C000001C0
E01C000001C0
E00E000001C0
E007000001C0
E007800001C0
E003800001C0
E001C00001C0
E000E00001C0
E000F00001C0
E000700001C0
E000380001C0
E0003C0001C0
E0001C0001C0
E0000E0001C0
E000070001C0
E000078001C0
E000038001C0
E00001C001C0
E00000E001C0
E00000F001C0
E000007001C0
E000003801C0
E000003C01C0
E000001C01C0
E000000E01C0
E000000701C0
E000000781C0
E000000381C0
E0000001C1C0
E0000000E1C0
E0000000F1C0
E000000071C0
E000000039C0
E00000003DC0
E00000001DC0
E00000000FC0
E000000007C0
E000000007C0
E000000003C0
E000000001C0
ENDCHAR
STARTCHAR 0144
ENCODING 324
SWIDTH 617 0
DWIDTH 48 0
BBX 35 59 7 0
BITMAP
000000E000
000001C000
000003C000
0000038000
0000070000
0000070000
00000E0000
00000C0000
00001C0000
0000380000
0000300000
0000700000
0000600000
0000000000
0000000000
0000000000
0000000000
0003FE0000
E01FFFC000
E07FFFF000
E0F803F800
E1E0007C00
E380001E00
E700000F00
EE00000700
EC00000380
F800000380
F8000001C0
F0000001C0
F0000000C0
E0000000E0
E0000000E0
E0000000E0
E0000000E0
E0000000E0
E0000000E0
E0000000E0
E0000000E0
E0000000E0
E0000000E0
E0000000E0
E0000000E0
E0000000E0
E0000000E0
E0000000E0
E0000000E0
E0000000E0
E0000000E0
E0000000E0
E0000000E0
E0000000E0
E0000000E0
E0000000E0
E0000000E0
E0000000E0
E0000000E0
E0000000E0
E0000000E0
E0000000E0
ENDCHAR
STARTCHAR 0147
ENCODING 327
SWIDTH 720 0
DWIDTH 56 0
BBX 42 70 7 0
BITMAP
003C000F0000
001E001E0000
000F003C0000
000780780000
0003C0F00000
0001E1E00000
0000F1C00000
00007B800000
00003F000000
00001E000000
000000000000
000000000000
000000000000
000000000000
000000000000
000000000000
F000000001C0
F000000001C0
F800000001C0
FC00000001C0
FC00000001C0
EE00000001C0
E700000001C0
E780000001C0
E380000001C0
E1C0000001C0
E0E0000001C0
E0F0000001C0
E070000001C0
E038000001C0
E03C000001C0
E01C000001C0
E00E000001C0
E007000001C0
E007800001C0
E003800001C0
E001C00001C0
E000E00001C0
E000F00001C0
E000700001C0
E000380001C0
E0003C0001C0
E0001C0001C0
E0000E0001C0
E000070001C0
E000078001C0
E000038001C0
E00001C001C0
E00000E001C0
E00000F001C0
E000007001C0
E000003801C0
E000003C01C0
E000001C01C0
E000000E01C0
E000000701C0
E000000781C0
E000000381C0
E0000001C1C0
E0000000E1C0
E0000000F1C0
E000000071C0
E000000039C0
E00000003DC0
E00000001DC0
E00000000FC0
E000000007C0
E000000007C0
E000000003C0
E000000001C0
ENDCHAR
STARTCHAR 0148
ENCODING 328
SWIDTH 617 0
DWIDTH 48 0
BBX 35 57 7 0
BITMAP
03C0007000
01E000E000
00F001C000
007003C000
0038078000
001C0F0000
000E1E0000
000F3C0000
0007F80000
0003F00000
0001E00000
0000000000
0000000000
0000000000
0000000000
0003FE0000
E01FFFC000
E07FFFF000
E0F803F800
E1E0007C00
E380001E00
E700000F00
EE00000700
EC00000380
F800000380
F8000001C0
F0000001C0
F0000000C0
E0000000E0
E0000000E0
E0000000E0
E0000000E0
E0000000E0
E0000000E0
E0000000E0
E0000000E0
E0000000E0
E0000000E0
E0000000E0
E0000000E0
E0000000E0
E0000000E0
E0000000E0
E0000000E0
E0000000E0
E0000000E0
E0000000E0
E0000000E0
E0000000E0
E0000000E0
E0000000E0
E0000000E0
E0000000E0
E0000000E0
E0000000E0
E0000000E0
E0000000E0
ENDCHAR
STARTCHAR 014C
ENCODING 332
SWIDTH 732 0
DWIDTH 57 0
BBX 48 65 5 0
BITMAP
0007FFFFE000
0007FFFFE000
000000000000
000000000000
000000000000
000000000000
000000000000
000000000000
000000000000
000003E00000
0000FFFF0000
0003FFFFC000
000FE007F000
003F0000FC00
007C00003E00
00F000000F00
01E000000780
03C0000003C0
0780000001E0
0F00000000F0
0E0000000070
1C0000000078
1C0000000038
38000000001C
38000000001C
30000000001C
70000000000E
70000000000E
70000000000E
600000000006
E00000000007
E00000000007
E00000000007
E00000000007
E00000000007
E00000000007
C00000000007
C00000000007
C00000000007
E00000000007
E00000000007
E00000000007
E00000000007
E00000000007
E00000000007
600000000006
70000000000E
70000000000E
70000000000E
38000000001C
38000000001C
38000000003C
1C0000000038
1E0000000078
0E0000000070
0700000000E0
0780000001E0
03C0000003C0
01E000000780
00F800001F00
007C00003E00
003F8001F800
000FF81FF000
0003FFFFC000
00007FFE0000
ENDCHAR
STARTCHAR 014D
ENCODING 333
SWIDTH 591 0
DWIDTH 46 0
BBX 37 51 5 0
BITMAP
00FFFFF800
00FFFFF800
0000000000
0000000000
0000000000
0000000000
0000000000
0000000000
0000000000
0003FE0000
001FFFC000
007FFFF000
00F800F800
03E0003C00
0780001E00
0700000700
0E00000380
1E000003C0
1C000001C0
38000000E0
38000000E0
7000000070
7000000070
7000000070
E000000038
E000000038
E000000038
E000000038
E000000038
E000000038
E000000038
E000000038
E000000038
E000000038
E000000038
E000000038
6000000070
7000000070
7000000070
38000000E0
38000000E0
3C000001E0
1C000001C0
0E00000380
0F00000780
0780000F00
03E0003E00
01F800FC00
007F07F000
003FFFE000
0007FF0000
ENDCHAR
STARTCHAR 0152
ENCODING 338
SWIDTH 951 0
DWIDTH 74 0
BBX 64 54 4 0
BITMAP
00007FFFFFFFFFFF
0003FFFFFFFFFFFF
000FF00070000000
003F000070000000
007C000070000000
00F0000070000000
01E0000070000000
03C0000070000000
0780000070000000
0F00000070000000
0E00000070000000
1C00000070000000
1C00000070000000
3800000070000000
3800000070000000
3000000070000000
7000000070000000
7000000070000000
6000000070000000
6000000070000000
E000000070000000
E000000070000000
E000000070000000
E000000070000000
E000000070000000
E00000007FFFFFF8
E00000007FFFFFF8
E000000070000000
E000000070000000
E000000070000000
E000000070000000
E000000070000000
E000000070000000
E000000070000000
6000000070000000
7000000070000000
7000000070000000
7000000070000000
3800000070000000
3800000070000000
3C00000070000000
1C00000070000000
1E00000070000000
0E00000070000000
0700000070000000
0780000070000000
03C0000070000000
01E0000070000000
00F8000070000000
007E000070000000
001F800070000000
0007FFFFFFFFFFFF
0001FFFFFFFFFFFF
00003FFFFFFFFFFF
ENDCHAR
STARTCHAR 0153
ENCODING 339
SWIDTH 1028 0
DWIDTH 80 0
BBX 71 42 5 0
BITMAP
0003FE000000FFC000
001FFFC00007FFF800
007FFFF0000FFFFC00
00F801F8003F003F00
03E0007C007C000780
0780001E00F00003C0
0700000F01E00001E0
0E00000781C00000E0
1E0000038380000070
1C000001C700000070
38000001E700000038
38000000EE00000038
70000000EE00000018
700000007E0000001C
700000007C0000001C
E00000007C0000001C
E00000003C0000001C
E00000003C0000001C
E0000000380000000C
E0000000380000000C
E00000003FFFFFFFFE
E00000003FFFFFFFFE
E00000003800000000
E00000003800000000
E00000003C00000000
E00000003C00000000
E00000003C00000000
600000007C00000000
700000007C00000000
700000007E00000000
30000000EE0000001C
38000000E700000038
3C000001C700000038
1C000003C380000070
0E00000383C00000F0
0F00000701E00000E0
0780000E00F00003C0
03C0003E0078000780
01F000F8003E001F00
00FF07F0001FC0FE00
003FFFE00007FFF800
000FFF000001FFE000
ENDCHAR
STARTCHAR 0154
ENCODING 340
SWIDTH 591 0
DWIDTH 46 0
BBX 35 72 7 0
BITMAP
0000070000
00000E0000
00001E0000
00001C0000
0000380000
0000380000
0000700000
0000600000
0000E00000
0001C00000
0001800000
0003800000
0000000000
0000000000
0000000000
0000000000
0000000000
0000000000
FFFFFF8000
FFFFFFE000
E00007F800
E000007C00
E000001E00
E000000700
E000000380
E000000180
E0000001C0
E0000000C0
E0000000E0
E0000000E0
E0000000E0
E000000060
E000000060
E000000060
E000000060
E0000000E0
E0000000E0
E0000000C0
E0000000C0
E0000001C0
E000000380
E000000380
E000000F00
E000001E00
E00000FC00
E0001FF800
FFFFFFE000
FFFFFF0000
E001C00000
E000E00000
E000700000
E000780000
E000380000
E0001C0000
E0001E0000
E0000E0000
E000070000
E000078000
E00003C000
E00001C000
E00000E000
E00000F000
E000007000
E000003800
E000003C00
E000001C00
E000000E00
E000000700
E000000780
E000000380
E0000001C0
E0000001E0
ENDCHAR
STARTCHAR 0155
ENCODING 341
SWIDTH 308 0
DWIDTH 24 0
BBX 18 59 6 0
BITMAP
000F00
001E00
001C00
003C00
003800
007000
007000
00E000
01C000
018000
038000
030000
060000
000000
000000
000000
000000
000000
E01F00
E0FFC0
E3FFC0
E7E1C0
E70000
EC0000
F80000
F80000
F00000
F00000
E00000
E00000
E00000
E00000
E00000
E00000
E00000
E00000
E00000
E00000
E00000
E00000
E00000
E00000
E00000
E00000
E00000
E00000
E00000
E00000
E00000
E00000
E00000
E00000
E00000
E00000
E00000
E00000
E00000
E00000
E00000
ENDCHAR
STARTCHAR 0158
ENCODING 344
SWIDTH 591 0
DWIDTH 46 0
BBX 35 70 7 0
BITMAP
0F00078000
0780070000
03800E0000
01C01C0000
00E0380000
0070780000
0078F00000
003DE00000
001FC00000
000F800000
0000000000
0000000000
0000000000
0000000000
0000000000
0000000000
FFFFFF8000
FFFFFFE000
E00007F800
E000007C00
E000001E00
E000000700
E000000380
E000000180
E0000001C0
E0000000C0
E0000000E0
E0000000E0
E0000000E0
E000000060
E000000060
E000000060
E000000060
E0000000E0
E0000000E0
E0000000C0
E0000000C0
E0000001C0
E000000380
E000000380
E000000F00
E000001E00
E00000FC00
E0001FF800
FFFFFFE000
FFFFFF0000
E001C00000
E000E00000
E000700000
E000780000
E000380000
E0001C0000
E0001E0000
E0000E0000
E000070000
E000078000
E00003C000
E00001C000
E00000E000
E00000F000
E000007000
E000003800
E000003C00
E000001C00
E000000E00
E000000700
E000000780
E000000380
E0000001C0
E0000001E0
ENDCHAR
STARTCHAR 0159
ENCODING 345
SWIDTH 308 0
DWIDTH 24 0
BBX 23 57 1 0
BITMAP
E0003C
700078
7800F0
3C01E0
1E01C0
0F0380
078700
03CE00
01DC00
00FC00
007800
000000
000000
000000
000000
000000
0700F8
0707FE
071FFE
073F0E
073800
076000
07C000
07C000
078000
078000
070000
070000
070000
070000
070000
070000
070000
070000
070000
070000
070000
070000
070000
070000
070000
070000
070000
070000
070000
070000
070000
070000
070000
070000
070000
070000
070000
070000
070000
070000
070000
ENDCHAR
STARTCHAR 015A
ENCODING 346
SWIDTH 591 0
DWIDTH 46 0
BBX 37 73 5 -1
BITMAP
000000F000
000000E000
000001C000
000003C000
0000038000
0000070000
0000070000
00000E0000
00000C0000
00001C0000
0000380000
0000300000
0000000000
0000000000
0000000000
0000000000
0000700000
001FFF8000
007FFFE000
01FC03F800
03E0007C00
0780001E00
0F00000F00
1E00000780
1C000003C0
38000001C0
38000001E0
38000000E0
70000000E0
70000000F0
7000000070
7000000070
7000000070
7000000000
7000000000
3800000000
3800000000
3C00000000
1E00000000
0F00000000
07C0000000
03F8000000
00FFC00000
003FFE0000
0003FFE000
00001FF800
000000FE00
0000001F80
00000007C0
00000003E0
00000001E0
00000000F0
0000000070
0000000070
E000000030
E000000038
E000000038
E000000038
E000000038
E000000030
7000000070
7000000070
7800000070
38000000E0
1C000001E0
1E000003C0
0F00000780
07C0000F00
03F0003E00
01FE03FC00
007FFFF000
001FFFC000
0000200000
ENDCHAR
STARTCHAR 015B
ENCODING 347
SWIDTH 488 0
DWIDTH 38 0
BBX 31 59 4 0
BITMAP
00000380
00000780
00000700
00000E00
00000E00
00001C00
00003800
00003800
00007000
00006000
0000E000
0001C000
00018000
00000000
00000000
00000000
00000000
003FF000
00FFFE00
03FFFF80
07C007C0
0F0001E0
1E0000F0
3C000070
38000078
38000038
38000038
7000001C
7000001C
7000001C
38000000
38000000
3C000000
1C000000
1F000000
0FC00000
03FF8000
00FFFC00
001FFF80
00001FC0
000001F0
000000F8
00000038
0000003C
0000001C
0000001C
E000000E
6000000E
7000000E
7000001C
7800001C
3800001C
3C000038
1E000078
0F0000F0
07C003E0
03FE1FC0
00FFFF00
003FFC00
ENDCHAR
STARTCHAR 015E
ENCODING 350
SWIDTH 591 0
DWIDTH 46 0
BBX 37 75 5 -19
BITMAP
0000700000
001FFF8000
007FFFE000
01FC03F800
03E0007C00
0780001E00
0F00000F00
1E00000780
1C000003C0
38000001C0
38000001E0
38000000E0
70000000E0
70000000F0
7000000070
7000000070
7000000070
7000000000
7000000000
3800000000
3800000000
3C00000000
1E00000000
0F00000000
07C0000000
03F8000000
00FFC00000
003FFE0000
0003FFE000
00001FF800
000000FE00
0000001F80
00000007C0
00000003E0
00000001E0
00000000F0
0000000070
0000000070
E000000030
E000000038
E000000038
E000000038
E000000038
E000000030
7000000070
7000000070
7800000070
38000000E0
1C000001E0
1E000003C0
0F00000780
07C0000F00
03F0003E00
00FE03FC00
007FFFF000
000FFFC000
0000780000
0000E00000
0000E00000
0000C00000
0001C00000
0001C00000
0001FF8000
0003FFC000
000001E000
0000006000
0000007000
0000007000
0000007000
0000007000
0000006000
000000E000
000003C000
0001FF8000
0001FF0000
ENDCHAR
STARTCHAR 015F
ENCODING 351
SWIDTH 488 0
DWIDTH 38 0
BBX 31 61 4 -19
BITMAP
003FF000
00FFFE00
03FFFF80
07C007C0
0F0001E0
1E0000F0
3C000070
38000078
38000038
38000038
7000001C
7000001C
7000001C
38000000
38000000
3C000000
1C000000
1F000000
0FC00000
03FF8000
00FFFC00
001FFF80
00001FC0
000001F0
000000F8
00000038
0000003C
0000001C
0000001C
E000000E
6000000E
7000000E
7000001C
7800001C
3800001C
3C000038
1E000078
0F0000F0
07C003E0
03FE1FC0
00FFFF00
003FFC00
0001C000
00018000
00038000
00038000
00030000
00070000
0007FE00
000FFF00
00000780
000001C0
000001C0
000001C0
000001C0
000001C0
00000180
00000380
00000F00
0003FE00
0007FC00
ENDCHAR
STARTCHAR 0160
ENCODING 352
SWIDTH 591 0
DWIDTH 46 0
BBX 37 71 5 -1
BITMAP
00E0007800
007000F000
003801E000
003C03C000
001E078000
000F070000
00078E0000
0003DC0000
0001F80000
0000F80000
0000000000
0000000000
0000000000
0000000000
0000700000
001FFF8000
007FFFE000
01FC03F800
03E0007C00
0780001E00
0F00000F00
1E00000780
1C000003C0
38000001C0
38000001E0
38000000E0
70000000E0
70000000F0
7000000070
7000000070
7000000070
7000000000
7000000000
3800000000
3800000000
3C00000000
1E00000000
0F00000000
07C0000000
03F8000000
00FFC00000
003FFE0000
0003FFE000
00001FF800
000000FE00
0000001F80
00000007C0
00000003E0
00000001E0
00000000F0
0000000070
0000000070
E000000030
E000000038
E000000038
E000000038
E000000038
E000000030
7000000070
7000000070
7800000070
38000000E0
1C000001E0
1E000003C0
0F00000780
07C0000F00
03F0003E00
01FE03FC00
007FFFF000
001FFFC000
0000200000
ENDCHAR
STARTCHAR 0161
ENCODING 353
SWIDTH 488 0
DWIDTH 38 0
BBX 31 57 4 0
BITMAP
0F0001E0
078003C0
03C00780
01E00F00
00F01E00
00783C00
00383800
001C7000
000EE000
0007C000
0003C000
00000000
00000000
00000000
00000000
003FF000
00FFFE00
03FFFF80
07C007C0
0F0001E0
1E0000F0
3C000070
38000078
38000038
38000038
7000001C
7000001C
7000001C
38000000
38000000
3C000000
1C000000
1F000000
0FC00000
03FF8000
00FFFC00
001FFF80
00001FC0
000001F0
000000F8
00000038
0000003C
0000001C
0000001C
E000000E
6000000E
7000000E
7000001C
7800001C
3800001C
3C000038
1E000078
0F0000F0
07C003E0
03FE1FC0
00FFFF00
003FFC00
ENDCHAR
STARTCHAR 0162
ENCODING 354
SWIDTH 578 0
DWIDTH 45 0
BBX 37 73 4 -19
BITMAP
FFFFFFFFF8
FFFFFFFFF8
0000700000
0000700000
0000700000
0000700000
0000700000
0000700000
0000700000
0000700000
0000700000
0000700000
0000700000
0000700000
0000700000
0000700000
0000700000
0000700000
0000700000
0000700000
0000700000
0000700000
0000700000
0000700000
0000700000
0000700000
0000700000
0000700000
0000700000
0000700000
0000700000
0000700000
0000700000
0000700000
0000700000
0000700000
0000700000
0000700000
0000700000
0000700000
0000700000
0000700000
0000700000
0000700000
0000700000
0000700000
0000700000
0000700000
0000700000
0000700000
0000700000
0000700000
0000700000
0000700000
0000700000
0000700000
0000E00000
0000E00000
0000C00000
0001C00000
0001FF8000
0001FFE000
000001E000
0000007000
0000007000
0000003000
0000003000
0000007000
0000007000
000000E000
000003C000
0000FF8000
0000FF0000
ENDCHAR
STARTCHAR 0163
ENCODING 355
SWIDTH 360 0
DWIDTH 28 0
BBX 24 73 3 -19
BITMAP
00E000
00E000
00E000
00E000
00E000
00E000
00E000
00E000
00E000
00E000
00E000
00E000
00E000
FFFFF8
FFFFF8
FFFFF8
00E000
00E000
00E000
00E000
00E000
00E000
00E000
00E000
00E000
00E000
00E000
00E000
00E000
00E000
00E000
00E000
00E000
00E000
00E000
00E000
00E000
00E000
00E000
00E000
00E000
00E000
00E000
00E000
00E000
00E000
00E000
00E000
00E000
00E000
007000
007800
003FF8
001FF8
000600
000E00
000E00
000C00
001C00
001C00
001FF8
003FFC
00001E
000006
000007
000007
000007
000007
000006
00000E
00003C
001FF8
001FF0
ENDCHAR
STARTCHAR 0164
ENCODING 356
SWIDTH 578 0
DWIDTH 45 0
BBX 37 70 4 0
BITMAP
00F0003800
0078007000
003C00E000
001E01E000
000F03C000
0007078000
00038F0000
0001DE0000
0000FC0000
0000F80000
0000000000
0000000000
0000000000
0000000000
0000000000
0000000000
FFFFFFFFF8
FFFFFFFFF8
0000700000
0000700000
0000700000
0000700000
0000700000
0000700000
0000700000
0000700000
0000700000
0000700000
0000700000
0000700000
0000700000
0000700000
0000700000
0000700000
0000700000
0000700000
0000700000
0000700000
0000700000
0000700000
0000700000
0000700000
0000700000
0000700000
0000700000
0000700000
0000700000
0000700000
0000700000
0000700000
0000700000
0000700000
0000700000
0000700000
0000700000
0000700000
0000700000
0000700000
0000700000
0000700000
0000700000
0000700000
0000700000
0000700000
0000700000
0000700000
0000700000
0000700000
0000700000
0000700000
ENDCHAR
STARTCHAR 0165
ENCODING 357
SWIDTH 437 0
DWIDTH 34 0
BBX 30 58 3 0
BITMAP
000001F8
000001F8
000001FC
000001FC
00E001FC
00E0001C
00E0001C
00E0001C
00E00018
00E00018
00E00018
00E00030
00E00070
00E001E0
00E00180
00E00100
00E00000
FFFFF800
FFFFF800
FFFFF800
00E00000
00E00000
00E00000
00E00000
00E00000
00E00000
00E00000
00E00000
00E00000
00E00000
00E00000
00E00000
00E00000
00E00000
00E00000
00E00000
00E00000
00E00000
00E00000
00E00000
00E00000
00E00000
00E00000
00E00000
00E00000
00E00000
00E00000
00E00000
00E00000
00E00000
00E00000
00E00000
00E00000
00E00000
00700000
00780000
003FF800
001FF800
ENDCHAR
STARTCHAR 0166
ENCODING 358
SWIDTH 578 0
DWIDTH 45 0
BBX 37 54 4 0
BITMAP
FFFFFFFFF8
FFFFFFFFF8
0000700000
0000700000
0000700000
0000700000
0000700000
0000700000
0000700000
0000700000
0000700000
0000700000
0000700000
0000700000
0000700000
0000700000
0000700000
0000700000
0000700000
0000700000
0000700000
1FFFFFFFC0
1FFFFFFFC0
1FFFFFFFC0
0000700000
0000700000
0000700000
0000700000
0000700000
0000700000
0000700000
0000700000
0000700000
0000700000
0000700000
0000700000
0000700000
0000700000
0000700000
0000700000
0000700000
0000700000
0000700000
0000700000
0000700000
0000700000
0000700000
0000700000
0000700000
0000700000
0000700000
0000700000
0000700000
0000700000
ENDCHAR
STARTCHAR 0167
ENCODING 359
SWIDTH 360 0
DWIDTH 28 0
BBX 21 54 3 0
BITMAP
00E000
00E000
00E000
00E000
00E000
00E000
00E000
00E000
00E000
00E000
00E000
00E000
00E000
FFFFF8
FFFFF8
FFFFF8
00E000
00E000
00E000
00E000
00E000
00E000
00E000
00E000
00E000
00E000
00E000
00E000
00E000
FFFFF8
FFFFF8
00E000
00E000
00E000
00E000
00E000
00E000
00E000
00E000
00E000
00E000
00E000
00E000
00E000
00E000
00E000
00E000
00E000
00E000
006000
007000
007800
003FF8
001FF8
ENDCHAR
STARTCHAR 0168
ENCODING 360
SWIDTH 681 0
DWIDTH 53 0
BBX 41 70 6 -1
BITMAP
0003E00C0000
000FF00C0000
000E3C1C0000
001C1E1C0000
001C0FF80000
001C03F00000
001801C00000
000000000000
000000000000
000000000000
000000000000
000000000000
000000000000
000000000000
000000000000
C00000000180
C00000000180
C00000000180
C00000000180
C00000000180
C00000000180
C00000000180
C00000000180
C00000000180
C00000000180
C00000000180
C00000000180
C00000000180
C00000000180
C00000000180
C00000000180
C00000000180
C00000000180
C00000000180
C00000000180
C00000000180
C00000000180
C00000000180
C00000000180
C00000000180
C00000000180
C00000000180
C00000000180
C00000000180
C00000000180
C00000000180
C00000000180
C00000000180
E00000000380
E00000000380
E00000000380
E00000000380
E00000000380
600000000300
700000000700
700000000700
700000000700
380000000E00
380000000E00
1C0000001C00
1C0000001C00
0E0000003800
0F0000003800
078000007000
03C00001E000
01F00007C000
00FE003F8000
003FFFFE0000
000FFFF80000
00003E000000
ENDCHAR
STARTCHAR 0169
ENCODING 361
SWIDTH 604 0
DWIDTH 47 0
BBX 34 57 7 -1
BITMAP
0038018000
00FE018000
01FF018000
0187838000
0381C70000
0300FF0000
03007E0000
0000000000
0000000000
0000000000
0000000000
0000000000
0000000000
0000000000
0000000000
E0000000C0
E0000000C0
E0000000C0
E0000000C0
E0000000C0
E0000000C0
E0000000C0
E0000000C0
E0000000C0
E0000000C0
E0000000C0
E0000000C0
E0000000C0
E0000000C0
E0000000C0
E0000000C0
E0000000C0
E0000000C0
E0000000C0
E0000000C0
E0000000C0
E0000000C0
E0000000C0
E0000000C0
E0000000C0
E0000001C0
E0000001C0
E0000001C0
60000001C0
70000001C0
70000003C0
30000003C0
38000006C0
3C00000CC0
1E00001CC0
0F000038C0
0F800070C0
07E001E0C0
03FE3FC0C0
00FFFF80C0
003FFE00C0
0003E00000
ENDCHAR
STARTCHAR 016A
ENCODING 362
SWIDTH 681 0
DWIDTH 53 0
BBX 41 66 6 -1
BITMAP
003FFFFF0000
003FFFFF0000
000000000000
000000000000
000000000000
000000000000
000000000000
000000000000
000000000000
000000000000
000000000000
C00000000180
C00000000180
C00000000180
C00000000180
C00000000180
C00000000180
C00000000180
C00000000180
C00000000180
C00000000180
C00000000180
C00000000180
C00000000180
C00000000180
C00000000180
C00000000180
C00000000180
C00000000180
C00000000180
C00000000180
C00000000180
C00000000180
C00000000180
C00000000180
C00000000180
C00000000180
C00000000180
C00000000180
C00000000180
C00000000180
C00000000180
C00000000180
C00000000180
E00000000380
E00000000380
E00000000380
E00000000380
E00000000380
600000000300
700000000700
700000000700
700000000700
380000000E00
380000000E00
1C0000001C00
1C0000001C00
0E0000003800
0F0000003800
078000007000
03C00001E000
01F00007C000
00FE003F8000
003FFFFE0000
000FFFF80000
00003E000000
ENDCHAR
STARTCHAR 016B
ENCODING 363
SWIDTH 604 0
DWIDTH 47 0
BBX 34 52 7 -1
BITMAP
07FFFFC000
07FFFFC000
0000000000
0000000000
0000000000
0000000000
0000000000
0000000000
0000000000
0000000000
E0000000C0
E0000000C0
E0000000C0
E0000000C0
E0000000C0
E0000000C0
E0000000C0
E0000000C0
E0000000C0
E0000000C0
E0000000C0
E0000000C0
E0000000C0
E0000000C0
E0000000C0
E0000000C0
E0000000C0
E0000000C0
E0000000C0
E0000000C0
E0000000C0
E0000000C0
E0000000C0
E0000000C0
E0000000C0
E0000001C0
E0000001C0
E0000001C0
60000001C0
70000001C0
70000003C0
30000003C0
38000006C0
3C00000CC0
1E00001CC0
0F000038C0
0F800070C0
07E001E0C0
03FE3FC0C0
00FFFF80C0
003FFE00C0
0003E00000
ENDCHAR
STARTCHAR 016E
ENCODING 366
SWIDTH 681 0
DWIDTH 53 0
BBX 41 75 6 -1
BITMAP
00003E000000
00007F000000
0000C1800000
000180C00000
000180C00000
000180400000
000180600000
000180C00000
000180C00000
0000E1800000
00007F000000
00001C000000
000000000000
000000000000
000000000000
000000000000
000000000000
000000000000
000000000000
000000000000
C00000000180
C00000000180
C00000000180
C00000000180
C00000000180
C00000000180
C00000000180
C00000000180
C00000000180
C00000000180
C00000000180
C00000000180
C00000000180
C00000000180
C00000000180
C00000000180
C00000000180
C00000000180
C00000000180
C00000000180
C00000000180
C00000000180
C00000000180
C00000000180
C00000000180
C00000000180
C00000000180
C00000000180
C00000000180
C00000000180
C00000000180
C00000000180
C00000000180
E00000000380
E00000000380
E00000000380
E00000000380
E00000000380
600000000300
700000000700
700000000700
700000000700
380000000E00
380000000E00
1C0000001C00
1C0000001C00
0E0000003800
0F0000003800
078000007000
03C00001E000
01F00007C000
00FE003F8000
003FFFFE0000
000FFFF80000
00003E000000
ENDCHAR
STARTCHAR 016F
ENCODING 367
SWIDTH 604 0
DWIDTH 47 0
BBX 34 61 7 -1
BITMAP
0007C00000
001FF00000
0038380000
0030180000
0030180000
0020080000
0030180000
0030180000
0038380000
001EF00000
000FE00000
0000000000
0000000000
0000000000
0000000000
0000000000
0000000000
0000000000
0000000000
E0000000C0
E0000000C0
E0000000C0
E0000000C0
E0000000C0
E0000000C0
E0000000C0
E0000000C0
E0000000C0
E0000000C0
E0000000C0
E0000000C0
E0000000C0
E0000000C0
E0000000C0
E0000000C0
E0000000C0
E0000000C0
E0000000C0
E0000000C0
E0000000C0
E0000000C0
E0000000C0
E0000000C0
E0000000C0
E0000001C0
E0000001C0
E0000001C0
60000001C0
70000001C0
70000003C0
30000003C0
38000006C0
3C00000CC0
1E00001CC0
0F000038C0
0F800070C0
07E001E0C0
03FE3FC0C0
00FFFF80C0
003FFE00C0
0003E00000
ENDCHAR
STARTCHAR 0172
ENCODING 370
SWIDTH 681 0
DWIDTH 53 0
BBX 41 66 6 -12
BITMAP
C00000000180
C00000000180
C00000000180
C00000000180
C00000000180
C00000000180
C00000000180
C00000000180
C00000000180
C00000000180
C00000000180
C00000000180
C00000000180
C00000000180
C00000000180
C00000000180
C00000000180
C00000000180
C00000000180
C00000000180
C00000000180
C00000000180
C00000000180
C00000000180
C00000000180
C00000000180
C00000000180
C00000000180
C00000000180
C00000000180
C00000000180
C00000000180
C00000000180
E00000000380
E00000000380
E00000000380
E00000000380
E00000000380
600000000300
700000000700
700000000700
700000000700
380000000E00
380000000E00
1C0000001C00
1C0000001C00
0E0000003800
0F0000003800
078000007000
03C00001E000
01F00007C000
007E003F8000
003FFFFE0000
0007FFF00000
00003F000000
000038000000
000070000000
0000E0000000
0000C0000000
0000C0000000
0000C0000000
0000C0000000
0000E0000000
0000F0000000
00007FC00000
00003FC00000
ENDCHAR
STARTCHAR 0173
ENCODING 371
SWIDTH 604 0
DWIDTH 47 0
BBX 35 53 7 -12
BITMAP
E0000000C0
E0000000C0
E0000000C0
E0000000C0
E0000000C0
E0000000C0
E0000000C0
E0000000C0
E0000000C0
E0000000C0
E0000000C0
E0000000C0
E0000000C0
E0000000C0
E0000000C0
E0000000C0
E0000000C0
E0000000C0
E0000000C0
E0000000C0
E0000000C0
E0000000C0
E0000000C0
E0000000C0
E0000000C0
E0000001C0
E0000001C0
E0000001C0
60000001C0
70000001C0
70000003C0
30000003C0
38000006C0
3C00000CC0
1E00001CC0
0F000038C0
0F800070C0
07E001E0C0
03FE3FC0C0
00FFFF80C0
003FFE07C0
0003E00F00
0000001C00
0000003800
0000003000
0000007000
0000007000
0000007000
0000007000
0000003800
0000003FE0
0000000FE0
00000001C0
ENDCHAR
STARTCHAR 0174
ENCODING 372
SWIDTH 990 0
DWIDTH 77 0
BBX 73 70 2 0
BITMAP
000000003E0000000000
000000007F0000000000
00000000F78000000000
00000001E3C000000000
00000003C1E000000000
0000000380E000000000
00000007007000000000
0000000E003800000000
0000001C001C00000000
00000038000E00000000
00000000000000000000
00000000000000000000
00000000000000000000
00000000000000000000
00000000000000000000
00000000000000000000
C00000001C0000000180
E00000001E0000000380
E00000003E0000000380
600000003E0000000300
70000000770000000700
70000000770000000700
70000000630000000700
30000000E38000000600
38000000E38000000E00
38000000C18000000E00
38000001C1C000000C00
18000001C1C000001C00
1C00000180C000001C00
1C00000380E000001C00
0C00000380E000001800
0E000003006000003800
0E000007007000003800
0E000007007000003800
06000006003000003000
0700000E003800007000
0700000E003800007000
0300000C001800006000
0380001C001C0000E000
0380001C001C0000E000
03800018000C0000E000
01800038000E0000C000
01C00038000E0001C000
01C0003000060001C000
00C00070000700018000
00E00070000700038000
00E00060000300038000
00E000E0000380038000
006000E0000380030000
007000C0000180070000
007001C00001C0070000
007001C00001C0070000
003801800000C00E0000
003803800000E00E0000
003803800000E00E0000
001803000000600C0000
001C07000000701C0000
001C07000000701C0000
001C06000000301C0000
000E0E00000038380000
000E0E00000038380000
000E0C00000018380000
00061C0000001C300000
00071C0000001C700000
0007180000000C700000
0007380000000E700000
0003380000000E600000
0003B000000006E00000
0003F000000007E00000
0003F000000007E00000
ENDCHAR
STARTCHAR 0175
ENCODING 373
SWIDTH 810 0
DWIDTH 63 0
BBX 56 57 4 0
BITMAP
00000038000000
0000007C000000
000000FE000000
000001E7000000
000003C3800000
00000783C00000
00000F01E00000
00001E00F00000
00003C00780000
000038003C0000
000070001E0000
00000000000000
00000000000000
00000000000000
00000000000000
00000000000000
C0000038000007
E000003800000E
E000003C00000E
6000007C00000E
7000007C00000C
7000007E00001C
700000EE00001C
380000EE00001C
380000C7000038
380001C7000038
180001C7000038
1C000183800030
1C000383800070
0C000383800070
0E000301C00060
0E000701C000E0
0E000701C000E0
07000600E000E0
07000E00E001C0
07000E00E001C0
03000C007001C0
03801C00700180
03801C00700380
03801800380380
01C03800380300
01C03800380700
01C030001C0700
00C070001C0700
00E070001C0600
00E060000E0E00
0060E0000E0E00
0070E0000E0C00
0070C000071C00
0071C000071C00
0039C000071C00
0039C00003B800
003B800003B800
001B800003B800
001F800001F000
001F000001F000
001F000001F000
ENDCHAR
STARTCHAR 0176
ENCODING 374
SWIDTH 578 0
DWIDTH 45 0
BBX 37 70 4 0
BITMAP
0000F80000
0001FC0000
0003DE0000
00078F0000
000F070000
001E038000
001C01C000
003800E000
0070007000
00E0007800
0000000000
0000000000
0000000000
0000000000
0000000000
0000000000
E000000078
F000000070
70000000F0
78000000E0
38000001E0
3C000001C0
1C000003C0
1E00000380
0E00000780
0700000700
0700000F00
0380000E00
0380001E00
01C0001C00
01C0003C00
00E0003800
00E0007000
0070007000
007000E000
003800E000
003C01C000
001C01C000
001E038000
000E038000
000F070000
0007070000
00078E0000
00038E0000
0003DC0000
0001FC0000
0001F80000
0000F80000
0000F00000
0000700000
0000700000
0000700000
0000700000
0000700000
0000700000
0000700000
0000700000
0000700000
0000700000
0000700000
0000700000
0000700000
0000700000
0000700000
0000700000
0000700000
0000700000
0000700000
0000700000
0000700000
ENDCHAR
STARTCHAR 0177
ENCODING 375
SWIDTH 527 0
DWIDTH 41 0
BBX 35 71 3 -14
BITMAP
0001E00000
0003F00000
0007F80000
00073C0000
000E1E0000
001C0F0000
0038070000
0070038000
00F001C000
01E000E000
03C0007000
0000000000
0000000000
0000000000
0000000000
0000000000
E0000000E0
70000000E0
70000001C0
70000001C0
3800000380
3800000380
1C00000700
1C00000700
1C00000700
0E00000E00
0E00000E00
0700001C00
0700001C00
0700003800
0380003800
0380003800
01C0007000
01C0007000
00C000E000
00E000E000
00E001C000
007001C000
0070018000
0030038000
0038038000
0038070000
001C070000
001C060000
000C0E0000
000E0C0000
000E1C0000
00071C0000
0007380000
0003380000
0003B00000
0001F00000
0001E00000
0001E00000
0001C00000
0001C00000
0003C00000
0003800000
0003800000
0007000000
0007000000
000E000000
000E000000
001C000000
001C000000
003C000000
0038000000
0070000000
01E0000000
7FC0000000
7F80000000
ENDCHAR
STARTCHAR 0178
ENCODING 376
SWIDTH 578 0
DWIDTH 45 0
BBX 37 68 4 0
BITMAP
001E038000
003E07C000
003F07C000
003E07C000
001E03C000
0000000000
0000000000
0000000000
0000000000
0000000000
0000000000
0000000000
0000000000
0000000000
E000000078
F000000070
70000000F0
78000000E0
38000001E0
3C000001C0
1C000003C0
1E00000380
0E00000780
0700000700
0700000F00
0380000E00
0380001E00
01C0001C00
01C0003C00
00E0003800
00E0007000
0070007000
007000E000
003800E000
003C01C000
001C01C000
001E038000
000E038000
000F070000
0007070000
00078E0000
00038E0000
0003DC0000
0001FC0000
0001F80000
0000F80000
0000F00000
0000700000
0000700000
0000700000
0000700000
0000700000
0000700000
0000700000
0000700000
0000700000
0000700000
0000700000
0000700000
0000700000
0000700000
0000700000
0000700000
0000700000
0000700000
0000700000
0000700000
0000700000
ENDCHAR
STARTCHAR 0179
ENCODING 377
SWIDTH 591 0
DWIDTH 46 0
BBX 36 72 5 0
BITMAP
000000F000
000000E000
000001E000
000001C000
0000038000
0000070000
0000070000
00000E0000
00000C0000
00001C0000
0000180000
0000300000
0000000000
0000000000
0000000000
0000000000
0000000000
0000000000
FFFFFFFFF0
FFFFFFFFF0
00000000F0
00000000E0
00000001C0
00000003C0
0000000380
0000000700
0000000F00
0000000E00
0000001C00
0000003C00
0000003800
0000007000
000000F000
000000E000
000001C000
000003C000
0000038000
0000070000
00000F0000
00000E0000
00001C0000
00003C0000
0000380000
0000700000
0000F00000
0000E00000
0001C00000
0003C00000
0003800000
0007000000
000F000000
000E000000
001C000000
003C000000
0078000000
0070000000
00F0000000
01E0000000
01C0000000
03C0000000
0780000000
0700000000
0F00000000
1E00000000
1C00000000
3C00000000
7800000000
7000000000
F000000000
FFFFFFFFF0
FFFFFFFFF0
FFFFFFFFF0
ENDCHAR
STARTCHAR 017A
ENCODING 378
SWIDTH 501 0
DWIDTH 39 0
BBX 31 59 4 0
BITMAP
000003C0
00000380
00000780
00000700
00000E00
00001C00
00001C00
00003800
00003000
00007000
0000E000
0000C000
0001C000
00000000
00000000
00000000
00000000
00000000
3FFFFFFE
3FFFFFFE
3FFFFFFE
0000001E
0000001C
00000038
00000070
000000F0
000000E0
000001C0
00000380
00000700
00000F00
00000E00
00001C00
00003800
00007000
00007000
0000E000
0001C000
00038000
00078000
00070000
000E0000
001C0000
00380000
00380000
00700000
00E00000
01C00000
03C00000
03800000
07000000
0E000000
1C000000
1C000000
38000000
70000000
FFFFFFFE
FFFFFFFE
FFFFFFFE
ENDCHAR
STARTCHAR 017B
ENCODING 379
SWIDTH 591 0
DWIDTH 46 0
BBX 36 68 5 0
BITMAP
0000F00000
0000F80000
0000F80000
0000F80000
0000F00000
0000000000
0000000000
0000000000
0000000000
0000000000
0000000000
0000000000
0000000000
0000000000
FFFFFFFFF0
FFFFFFFFF0
00000000F0
00000000E0
00000001C0
00000003C0
0000000380
0000000700
0000000F00
0000000E00
0000001C00
0000003C00
0000003800
0000007000
000000F000
000000E000
000001C000
000003C000
0000038000
0000070000
00000F0000
00000E0000
00001C0000
00003C0000
0000380000
0000700000
0000F00000
0000E00000
0001C00000
0003C00000
0003800000
0007000000
000F000000
000E000000
001C000000
003C000000
0078000000
0070000000
00F0000000
01E0000000
01C0000000
03C0000000
0780000000
0700000000
0F00000000
1E00000000
1C00000000
3C00000000
7800000000
7000000000
F000000000
FFFFFFFFF0
FFFFFFFFF0
FFFFFFFFF0
ENDCHAR
STARTCHAR 017C
ENCODING 380
SWIDTH 501 0
DWIDTH 39 0
BBX 31 55 4 0
BITMAP
00010000
0003C000
0007E000
0007E000
0007C000
00038000
00000000
00000000
00000000
00000000
00000000
00000000
00000000
00000000
3FFFFFFE
3FFFFFFE
3FFFFFFE
0000001E
0000001C
00000038
00000070
000000F0
000000E0
000001C0
00000380
00000700
00000F00
00000E00
00001C00
00003800
00007000
00007000
0000E000
0001C000
00038000
00078000
00070000
000E0000
001C0000
00380000
00380000
00700000
00E00000
01C00000
03C00000
03800000
07000000
0E000000
1C000000
1C000000
38000000
70000000
FFFFFFFE
FFFFFFFE
FFFFFFFE
ENDCHAR
STARTCHAR 017D
ENCODING 381
SWIDTH 591 0
DWIDTH 46 0
BBX 36 70 5 0
BITMAP
00E0007800
007000F000
003801E000
001C01C000
001E038000
000F070000
00078E0000
0003DC0000
0001FC0000
0000F80000
0000000000
0000000000
0000000000
0000000000
0000000000
0000000000
FFFFFFFFF0
FFFFFFFFF0
00000000F0
00000000E0
00000001C0
00000003C0
0000000380
0000000700
0000000F00
0000000E00
0000001C00
0000003C00
0000003800
0000007000
000000F000
000000E000
000001C000
000003C000
0000038000
0000070000
00000F0000
00000E0000
00001C0000
00003C0000
0000380000
0000700000
0000F00000
0000E00000
0001C00000
0003C00000
0003800000
0007000000
000F000000
000E000000
001C000000
003C000000
0078000000
0070000000
00F0000000
01E0000000
01C0000000
03C0000000
0780000000
0700000000
0F00000000
1E00000000
1C00000000
3C00000000
7800000000
7000000000
F000000000
FFFFFFFFF0
FFFFFFFFF0
FFFFFFFFF0
ENDCHAR
STARTCHAR 017E
ENCODING 382
SWIDTH 501 0
DWIDTH 39 0
BBX 31 57 4 0
BITMAP
070001E0
038003C0
01C00380
00E00700
00F00E00
00781C00
003C3C00
001E7800
000FF000
0007E000
0003C000
00000000
00000000
00000000
00000000
00000000
3FFFFFFE
3FFFFFFE
3FFFFFFE
0000001E
0000001C
00000038
00000070
000000F0
000000E0
000001C0
00000380
00000700
00000F00
00000E00
00001C00
00003800
00007000
00007000
0000E000
0001C000
00038000
00078000
00070000
000E0000
001C0000
00380000
00380000
00700000
00E00000
01C00000
03C00000
03800000
07000000
0E000000
1C000000
1C000000
38000000
70000000
FFFFFFFE
FFFFFFFE
FFFFFFFE
ENDCHAR
STARTCHAR 01A0
ENCODING 416
SWIDTH 732 0
DWIDTH 57 0
BBX 48 61 5 0
BITMAP
0000000001C0
0000000001C0
0000000001C0
0000000001C0
0000000001C0
000003E00380
0000FFFF0F80
0003FFFFFF00
000FE007FC00
003F0000FC00
007C00003E00
00F000000F00
01E000000780
03C0000003C0
0780000001E0
0F00000000F0
0E0000000070
1C0000000078
1C0000000038
38000000001C
38000000001C
30000000001C
70000000000E
70000000000E
70000000000E
600000000006
E00000000007
E00000000007
E00000000007
E00000000007
E00000000007
E00000000007
C00000000007
C00000000007
C00000000007
E00000000007
E00000000007
E00000000007
E00000000007
E00000000007
E00000000007
600000000006
70000000000E
70000000000E
70000000000E
38000000001C
38000000001C
38000000003C
1C0000000038
1E0000000078
0E0000000070
0700000000E0
0780000001E0
03C0000003C0
01E000000780
00F800001F00
007C00003E00
003F8001F800
000FF81FF000
0003FFFFC000
00007FFE0000
ENDCHAR
STARTCHAR 01A1
ENCODING 417
SWIDTH 591 0
DWIDTH 46 0
BBX 37 47 5 0
BITMAP
0000000070
0000000070
0000000070
0000000070
00000000E0
0003FE00E0
001FFFFFC0
007FFFFF80
00F800FC00
03E0003E00
0780001F00
0700000700
0E00000380
1E000003C0
1C000001C0
38000000E0
38000000E0
7000000070
7000000070
7000000070
E000000038
E000000038
E000000038
E000000038
E000000038
E000000038
E000000038
E000000038
E000000038
E000000038
E000000038
E000000038
6000000070
7000000070
7000000070
38000000E0
38000000E0
3C000001E0
1C000001C0
0E00000380
0F00000780
0780000F00
03E0003E00
01F800FC00
007F07F000
003FFFE000
0007FF0000
ENDCHAR
STARTCHAR 01AF
ENCODING 431
SWIDTH 681 0
DWIDTH 53 0
BBX 49 62 6 -1
BITMAP
00000000000380
00000000000380
00000000000380
00000000000380
00000000000380
00000000000780
00000000001F00
C000000001FE00
C000000001F800
C0000000018000
C0000000018000
C0000000018000
C0000000018000
C0000000018000
C0000000018000
C0000000018000
C0000000018000
C0000000018000
C0000000018000
C0000000018000
C0000000018000
C0000000018000
C0000000018000
C0000000018000
C0000000018000
C0000000018000
C0000000018000
C0000000018000
C0000000018000
C0000000018000
C0000000018000
C0000000018000
C0000000018000
C0000000018000
C0000000018000
C0000000018000
C0000000018000
C0000000018000
C0000000018000
C0000000018000
E0000000038000
E0000000038000
E0000000038000
E0000000038000
E0000000038000
60000000030000
70000000070000
70000000070000
70000000070000
380000000E0000
380000000E0000
1C0000001C0000
1C0000001C0000
0E000000380000
0F000000380000
07800000700000
03C00001E00000
01F00007C00000
00FE003F800000
003FFFFE000000
000FFFF8000000
00003E00000000
ENDCHAR
STARTCHAR 01B0
ENCODING 432
SWIDTH 617 0
DWIDTH 48 0
BBX 42 48 7 -1
BITMAP
0000000001C0
0000000001C0
0000000001C0
0000000001C0
0000000001C0
000000000380
E0000000FF80
E0000000FF00
E0000000F800
E0000000C000
E0000000C000
E0000000C000
E0000000C000
E0000000C000
E0000000C000
E0000000C000
E0000000C000
E0000000C000
E0000000C000
E0000000C000
E0000000C000
E0000000C000
E0000000C000
E0000000C000
E0000000C000
E0000000C000
E0000000C000
E0000000C000
E0000000C000
E0000000C000
E0000000C000
E0000001C000
E0000001C000
E0000001C000
60000001C000
70000001C000
70000003C000
30000003C000
38000006C000
3C00000CC000
1E00001CC000
0F000038C000
0F800070C000
07E001E0C000
03FE3FC0C000
00FFFF80C000
003FFE00C000
0003E0000000
ENDCHAR
STARTCHAR 02C6
ENCODING 710
SWIDTH 360 0
DWIDTH 28 0
BBX 22 11 3 46
BITMAP
007800
007C00
00FE00
01CF00
038780
0703C0
0F01E0
1E00F0
3C0070
780038
F0001C
ENDCHAR
STARTCHAR 02C7
ENCODING 711
SWIDTH 334 0
DWIDTH 26 0
BBX 22 11 2 46
BITMAP
F0001C
78003C
3C0078
1E00F0
0F01E0
0783C0
038780
01C700
00EE00
007C00
007800
ENDCHAR
STARTCHAR 02D8
ENCODING 728
SWIDTH 360 0
DWIDTH 28 0
BBX 22 6 3 48
BITMAP
E0001C
70001C
380078
1F01F0
0FFFE0
03FF00
ENDCHAR
STARTCHAR 02D9
ENCODING 729
SWIDTH 115 0
DWIDTH 9 0
BBX 6 6 2 49
BITMAP
30
78
F8
FC
F8
70
ENDCHAR
STARTCHAR 02DA
ENCODING 730
SWIDTH 205 0
DWIDTH 16 0
BBX 12 11 2 49
BITMAP
1F80
3FC0
7060
6030
C030
C030
C030
6030
6060
39E0
1F80
ENDCHAR
STARTCHAR 02DB
ENCODING 731
SWIDTH 180 0
DWIDTH 14 0
BBX 10 13 2 -13
BITMAP
0400
1E00
3C00
7800
7000
6000
E000
E000
E000
7000
7C40
3FC0
0FC0
ENDCHAR
STARTCHAR 02DC
ENCODING 732
SWIDTH 360 0
DWIDTH 28 0
BBX 19 7 5 49
BITMAP
0E0060
3F0060
7FC0E0
E1E0E0
E0F1C0
C03FC0
C01F00
ENDCHAR
STARTCHAR 0300
ENCODING 768
SWIDTH 0 0
DWIDTH 0 0
BBX 11 13 -16 49
BITMAP
F000
7800
3800
3C00
1C00
0E00
0E00
0700
0380
0180
01C0
00C0
0060
ENDCHAR
STARTCHAR 0301
ENCODING 769
SWIDTH 0 0
DWIDTH 0 0
BBX 11 13 -12 49
BITMAP
01E0
03C0
0380
0780
0700
0E00
0C00
1C00
3800
3000
7000
6000
C000
ENDCHAR
STARTCHAR 0302
ENCODING 770
SWIDTH 0 0
DWIDTH 0 0
BBX 22 11 -25 46
BITMAP
007800
00F800
01FC00
03CE00
078700
0F0380
1E03C0
3C01E0
3800F0
700078
E0003C
ENDCHAR
STARTCHAR 0303
ENCODING 771
SWIDTH 0 0
DWIDTH 0 0
BBX 20 7 -22 49
BITMAP
0E0070
3F8070
3FC060
70E060
6070E0
E03FC0
E01F80
ENDCHAR
STARTCHAR 0304
ENCODING 772
SWIDTH 0 0
DWIDTH 0 0
BBX 22 2 -24 49
BITMAP
FFFFFC
FFFFFC
ENDCHAR
STARTCHAR 0306
ENCODING 774
SWIDTH 0 0
DWIDTH 0 0
BBX 23 6 -26 48
BITMAP
E0000E
70001C
380078
1F01F0
0FFFE0
03FF80
ENDCHAR
STARTCHAR 0307
ENCODING 775
SWIDTH 0 0
DWIDTH 0 0
BBX 6 6 -12 49
BITMAP
30
78
7C
FC
7C
38
ENDCHAR
STARTCHAR 0308
ENCODING 776
SWIDTH 0 0
DWIDTH 0 0
BBX 16 6 -22 49
BITMAP
2004
F81F
F81F
F81F
F81F
700E
ENDCHAR
STARTCHAR 0309
ENCODING 777
SWIDTH 0 0
DWIDTH 0 0
BBX 13 13 -15 49
BITMAP
0600
3FC0
7FE0
E070
E030
0038
0038
0030
0070
00E0
01C0
0380
0700
ENDCHAR
STARTCHAR 030A
ENCODING 778
SWIDTH 0 0
DWIDTH 0 0
BBX 12 11 -16 49
BITMAP
1F80
3FC0
7060
6030
C030
C030
C030
6030
6060
39E0
1F80
ENDCHAR
STARTCHAR 030C
ENCODING 780
SWIDTH 0 0
DWIDTH 0 0
BBX 22 11 -25 46
BITMAP
E0003C
700078
7800F0
3C01E0
1E01C0
0F0380
078700
03CE00
01DE00
00FC00
007800
ENDCHAR
STARTCHAR 031B
ENCODING 795
SWIDTH 0 0
DWIDTH 0 0
BBX 11 9 -14 38
BITMAP
00E0
00E0
00E0
00E0
00E0
01C0
FFC0
FF80
F800
ENDCHAR
STARTCHAR 0323
ENCODING 803
SWIDTH 0 0
DWIDTH 0 0
BBX 6 6 -8 -16
BITMAP
78
7C
FC
FC
7C
30
ENDCHAR
STARTCHAR 0327
ENCODING 807
SWIDTH 0 0
DWIDTH 0 0
BBX 14 19 -16 -19
BITMAP
1800
3800
3800
3000
7000
7000
7FE0
FFF0
0078
0038
001C
001C
001C
0018
0038
0038
00F0
7FE0
7F80
ENDCHAR
STARTCHAR 0328
ENCODING 808
SWIDTH 0 0
DWIDTH 0 0
BBX 10 13 -12 -13
BITMAP
0C00
1C00
3800
7000
E000
C000
C000
C000
C000
E000
78C0
3FC0
1FC0
ENDCHAR
STARTCHAR 1E80
ENCODING 7808
SWIDTH 990 0
DWIDTH 77 0
BBX 73 72 2 0
BITMAP
0000001C000000000000
0000000E000000000000
0000000F000000000000
00000007000000000000
00000003800000000000
00000003800000000000
00000001C00000000000
00000000E00000000000
00000000E00000000000
00000000700000000000
00000000300000000000
00000000180000000000
00000000000000000000
00000000000000000000
00000000000000000000
00000000000000000000
00000000000000000000
00000000000000000000
C00000001C0000000180
E00000001E0000000380
E00000003E0000000380
600000003E0000000300
70000000770000000700
70000000770000000700
70000000630000000700
30000000E38000000600
38000000E38000000E00
38000000C18000000E00
38000001C1C000000C00
18000001C1C000001C00
1C00000180C000001C00
1C00000380E000001C00
0C00000380E000001800
0E000003006000003800
0E000007007000003800
0E000007007000003800
06000006003000003000
0700000E003800007000
0700000E003800007000
0300000C001800006000
0380001C001C0000E000
0380001C001C0000E000
03800018000C0000E000
01800038000E0000C000
01C00038000E0001C000
01C0003000060001C000
00C00070000700018000
00E00070000700038000
00E00060000300038000
00E000E0000380038000
006000E0000380030000
007000C0000180070000
007001C00001C0070000
007001C00001C0070000
003801800000C00E0000
003803800000E00E0000
003803800000E00E0000
001803000000600C0000
001C07000000701C0000
001C07000000701C0000
001C06000000301C0000
000E0E00000038380000
000E0E00000038380000
000E0C00000018380000
00061C0000001C300000
00071C0000001C700000
0007180000000C700000
0007380000000E700000
0003380000000E600000
0003B000000006E00000
0003F000000007E00000
0003F000000007E00000
ENDCHAR
STARTCHAR 1E81
ENCODING 7809
SWIDTH 810 0
DWIDTH 63 0
BBX 56 59 4 0
BITMAP
00003800000000
00003C00000000
00001C00000000
00000E00000000
00000F00000000
00000700000000
00000380000000
00000380000000
000001C0000000
000000C0000000
000000E0000000
00000070000000
00000030000000
00000000000000
00000000000000
00000000000000
00000000000000
00000000000000
C0000038000007
E000003800000E
E000003C00000E
6000007C00000E
7000007C00000C
7000007E00001C
700000EE00001C
380000EE00001C
380000C7000038
380001C7000038
180001C7000038
1C000183800030
1C000383800070
0C000383800070
0E000301C00060
0E000701C000E0
0E000701C000E0
07000600E000E0
07000E00E001C0
07000E00E001C0
03000C007001C0
03801C00700180
03801C00700380
03801800380380
01C03800380300
01C03800380700
01C030001C0700
00C070001C0700
00E070001C0600
00E060000E0E00
0060E0000E0E00
0070E0000E0C00
0070C000071C00
0071C000071C00
0039C000071C00
0039C00003B800
003B800003B800
001B800003B800
001F800001F000
001F000001F000
001F000001F000
ENDCHAR
STARTCHAR 1E82
ENCODING 7810
SWIDTH 990 0
DWIDTH 77 0
BBX 73 72 2 0
BITMAP
00000000001C00000000
00000000003800000000
00000000007800000000
00000000007000000000
0000000000E000000000
0000000000E000000000
0000000001C000000000
00000000038000000000
00000000038000000000
00000000070000000000
00000000060000000000
000000000C0000000000
00000000000000000000
00000000000000000000
00000000000000000000
00000000000000000000
00000000000000000000
00000000000000000000
C00000001C0000000180
E00000001E0000000380
E00000003E0000000380
600000003E0000000300
70000000770000000700
70000000770000000700
70000000630000000700
30000000E38000000600
38000000E38000000E00
38000000C18000000E00
38000001C1C000000C00
18000001C1C000001C00
1C00000180C000001C00
1C00000380E000001C00
0C00000380E000001800
0E000003006000003800
0E000007007000003800
0E000007007000003800
06000006003000003000
0700000E003800007000
0700000E003800007000
0300000C001800006000
0380001C001C0000E000
0380001C001C0000E000
03800018000C0000E000
01800038000E0000C000
01C00038000E0001C000
01C0003000060001C000
00C00070000700018000
00E00070000700038000
00E00060000300038000
00E000E0000380038000
006000E0000380030000
007000C0000180070000
007001C00001C0070000
007001C00001C0070000
003801800000C00E0000
003803800000E00E0000
003803800000E00E0000
001803000000600C0000
001C07000000701C0000
001C07000000701C0000
001C06000000301C0000
000E0E00000038380000
000E0E00000038380000
000E0C00000018380000
00061C0000001C300000
00071C0000001C700000
0007180000000C700000
0007380000000E700000
0003380000000E600000
0003B000000006E00000
0003F000000007E00000
0003F000000007E00000
ENDCHAR
STARTCHAR 1E83
ENCODING 7811
SWIDTH 810 0
DWIDTH 63 0
BBX 56 59 4 0
BITMAP
000000003C0000
00000000780000
00000000700000
00000000E00000
00000000E00000
00000001C00000
00000003800000
00000003800000
00000007000000
00000006000000
0000000E000000
0000000C000000
00000018000000
00000000000000
00000000000000
00000000000000
00000000000000
00000000000000
C0000038000007
E000003800000E
E000003C00000E
6000007C00000E
7000007C00000C
7000007E00001C
700000EE00001C
380000EE00001C
380000C7000038
380001C7000038
180001C7000038
1C000183800030
1C000383800070
0C000383800070
0E000301C00060
0E000701C000E0
0E000701C000E0
07000600E000E0
07000E00E001C0
07000E00E001C0
03000C007001C0
03801C00700180
03801C00700380
03801800380380
01C03800380300
01C03800380700
01C030001C0700
00C070001C0700
00E070001C0600
00E060000E0E00
0060E0000E0E00
0070E0000E0C00
0070C000071C00
0071C000071C00
0039C000071C00
0039C00003B800
003B800003B800
001B800003B800
001F800001F000
001F000001F000
001F000001F000
ENDCHAR
STARTCHAR 1E84
ENCODING 7812
SWIDTH 990 0
DWIDTH 77 0
BBX 73 68 2 0
BITMAP
0000000780F000000000
0000000F81F000000000
0000000FC1F800000000
0000000FC1F000000000
0000000780F000000000
00000000000000000000
00000000000000000000
00000000000000000000
00000000000000000000
00000000000000000000
00000000000000000000
00000000000000000000
00000000000000000000
00000000000000000000
C00000001C0000000180
E00000001E0000000380
E00000003E0000000380
600000003E0000000300
70000000770000000700
70000000770000000700
70000000630000000700
30000000E38000000600
38000000E38000000E00
38000000C18000000E00
38000001C1C000000C00
18000001C1C000001C00
1C00000180C000001C00
1C00000380E000001C00
0C00000380E000001800
0E000003006000003800
0E000007007000003800
0E000007007000003800
06000006003000003000
0700000E003800007000
0700000E003800007000
0300000C001800006000
0380001C001C0000E000
0380001C001C0000E000
03800018000C0000E000
01800038000E0000C000
01C00038000E0001C000
01C0003000060001C000
00C00070000700018000
00E00070000700038000
00E00060000300038000
00E000E0000380038000
006000E0000380030000
007000C0000180070000
007001C00001C0070000
007001C00001C0070000
003801800000C00E0000
003803800000E00E0000
003803800000E00E0000
001803000000600C0000
001C07000000701C0000
001C07000000701C0000
001C06000000301C0000
000E0E00000038380000
000E0E00000038380000
000E0C00000018380000
00061C0000001C300000
00071C0000001C700000
0007180000000C700000
0007380000000E700000
0003380000000E600000
0003B000000006E00000
0003F000000007E00000
0003F000000007E00000
ENDCHAR
STARTCHAR 1E85
ENCODING 7813
SWIDTH 810 0
DWIDTH 63 0
BBX 56 55 4 0
BITMAP
00000600800000
00000F01E00000
00001F83E00000
00001F83F00000
00000F03E00000
00000F01C00000
00000000000000
00000000000000
00000000000000
00000000000000
00000000000000
00000000000000
00000000000000
00000000000000
C0000038000007
E000003800000E
E000003C00000E
6000007C00000E
7000007C00000C
7000007E00001C
700000EE00001C
380000EE00001C
380000C7000038
380001C7000038
180001C7000038
1C000183800030
1C000383800070
0C000383800070
0E000301C00060
0E000701C000E0
0E000701C000E0
07000600E000E0
07000E00E001C0
07000E00E001C0
03000C007001C0
03801C00700180
03801C00700380
03801800380380
01C03800380300
01C03800380700
01C030001C0700
00C070001C0700
00E070001C0600
00E060000E0E00
0060E0000E0E00
0070E0000E0C00
0070C000071C00
0071C000071C00
0039C000071C00
0039C00003B800
003B800003B800
001B800003B800
001F800001F000
001F000001F000
001F000001F000
ENDCHAR
STARTCHAR 1EA0
ENCODING 7840
SWIDTH 681 0
DWIDTH 53 0
BBX 45 70 4 -16
BITMAP
000007000000
00000F800000
00000F800000
00000D800000
00001DC00000
00001DC00000
000038E00000
000038E00000
000030600000
000070700000
000070700000
0000E0380000
0000E0380000
0000C0180000
0001C01C0000
0001C01C0000
0003800E0000
0003800E0000
000300060000
000700070000
000700070000
000600038000
000E00038000
000E00018000
001C0001C000
001C0001C000
00180000E000
00380000E000
003800006000
007000007000
007000007000
006000003800
00E000003800
00FFFFFFF800
01FFFFFFFC00
01FFFFFFFC00
018000000E00
038000000E00
038000000600
030000000700
070000000700
070000000380
0E0000000380
0E0000000180
0C00000001C0
1C00000001C0
1C00000000C0
3800000000E0
380000000060
300000000070
700000000070
700000000030
E00000000038
E00000000018
000000000000
000000000000
000000000000
000000000000
000000000000
000000000000
000000000000
000000000000
000000000000
000000000000
000007000000
00000F800000
00000F800000
00000F800000
00000F800000
000007000000
ENDCHAR
STARTCHAR 1EA1
ENCODING 7841
SWIDTH 617 0
DWIDTH 48 0
BBX 36 58 5 -16
BITMAP
0007FE0000
003FFF8030
00FFFFE030
01F001F030
03C0007830
0780001C30
0E00000E30
1E00000730
1C00000330
38000003B0
38000001F0
70000000F0
70000000F0
60000000F0
E000000070
E000000070
E000000070
E000000070
C000000070
C000000070
C000000070
C000000070
C000000070
C000000070
E000000070
E000000070
E000000070
E000000070
E0000000F0
70000000F0
70000000F0
38000001F0
38000001B0
3C000003B0
1C00000730
0E00000E30
0700001C30
07C0003830
01F000F030
00FF9FE030
007FFFC030
000FFE0030
0000000000
0000000000
0000000000
0000000000
0000000000
0000000000
0000000000
0000000000
0000000000
0000000000
0000780000
00007C0000
0000FC0000
0000FC0000
00007C0000
0000300000
ENDCHAR
STARTCHAR 1EA2
ENCODING 7842
SWIDTH 681 0
DWIDTH 53 0
BBX 45 72 4 0
BITMAP
00001FE00000
00003FF00000
000070780000
0000E0380000
000000180000
000000180000
000000180000
000000380000
000000700000
000000E00000
000001C00000
000003800000
000000000000
000000000000
000000000000
000000000000
000000000000
000000000000
000007000000
00000F800000
00000F800000
00000D800000
00001DC00000
00001DC00000
000038E00000
000038E00000
000030600000
000070700000
000070700000
0000E0380000
0000E0380000
0000C0180000
0001C01C0000
0001C01C0000
0003800E0000
0003800E0000
000300060000
000700070000
000700070000
000600038000
000E00038000
000E00018000
001C0001C000
001C0001C000
00180000E000
00380000E000
003800006000
007000007000
007000007000
006000003800
00E000003800
00FFFFFFF800
01FFFFFFFC00
01FFFFFFFC00
018000000E00
038000000E00
038000000600
030000000700
070000000700
070000000380
0E0000000380
0E0000000180
0C00000001C0
1C00000001C0
1C00000000C0
3800000000E0
380000000060
300000000070
700000000070
700000000030
E00000000038
E00000000018
ENDCHAR
STARTCHAR 1EA3
ENCODING 7843
SWIDTH 617 0
DWIDTH 48 0
BBX 36 59 5 0
BITMAP
0000780000
0001FE0000
0003FF0000
0007038000
000E018000
0000018000
0000018000
0000018000
0000038000
0000070000
00000E0000
00003C0000
0000380000
0000000000
0000000000
0000000000
0000000000
0007FE0000
003FFF8030
00FFFFE030
01F001F030
03C0007830
0780001C30
0E00000E30
1E00000730
1C00000330
38000003B0
38000001F0
70000000F0
70000000F0
60000000F0
E000000070
E000000070
E000000070
E000000070
C000000070
C000000070
C000000070
C000000070
C000000070
C000000070
E000000070
E000000070
E000000070
E000000070
E0000000F0
70000000F0
70000000F0
38000001F0
38000001B0
3C000003B0
1C00000730
0E00000E30
0700001C30
07C0003830
01F000F030
00FF9FE030
007FFFC030
000FFE0030
ENDCHAR
ENDFONT
